<?xml version="1.0" encoding="utf-8" standalone="no"?>
<!DOCTYPE svg PUBLIC "-//W3C//DTD SVG 1.1//EN"
  "http://www.w3.org/Graphics/SVG/1.1/DTD/svg11.dtd">
<!-- Created with matplotlib (https://matplotlib.org/) -->
<svg height="201.6pt" version="1.1" viewBox="0 0 518.4 201.6" width="518.4pt" xmlns="http://www.w3.org/2000/svg" xmlns:xlink="http://www.w3.org/1999/xlink">
 <defs>
  <style type="text/css">
*{stroke-linecap:butt;stroke-linejoin:round;}
  </style>
 </defs>
 <g id="figure_1">
  <g id="patch_1">
   <path d="M 0 201.6 
L 518.4 201.6 
L 518.4 0 
L 0 0 
z
" style="fill:#ffffff;"/>
  </g>
  <g id="axes_1">
   <g id="patch_2">
    <path d="M 51.60024 158.84976 
L 268.90776 158.84976 
L 268.90776 9.00024 
L 51.60024 9.00024 
z
" style="fill:#eaeaf2;"/>
   </g>
   <g id="matplotlib.axis_1">
    <g id="xtick_1">
     <g id="line2d_1">
      <path clip-path="url(#p819ee14679)" d="M 93.284037 158.84976 
L 93.284037 9.00024 
" style="fill:none;stroke:#ffffff;stroke-linecap:round;"/>
     </g>
     <g id="text_1">
      <!-- $\mathdefault{10^{2}}$ -->
      <defs>
       <path d="M 37.25 0 
L 28.46875 0 
L 28.46875 56 
Q 25.296875 52.984375 20.140625 49.953125 
Q 14.984375 46.921875 10.890625 45.40625 
L 10.890625 53.90625 
Q 18.265625 57.375 23.78125 62.296875 
Q 29.296875 67.234375 31.59375 71.875 
L 37.25 71.875 
z
" id="ArialMT-49"/>
       <path d="M 4.15625 35.296875 
Q 4.15625 48 6.765625 55.734375 
Q 9.375 63.484375 14.515625 67.671875 
Q 19.671875 71.875 27.484375 71.875 
Q 33.25 71.875 37.59375 69.546875 
Q 41.9375 67.234375 44.765625 62.859375 
Q 47.609375 58.5 49.21875 52.21875 
Q 50.828125 45.953125 50.828125 35.296875 
Q 50.828125 22.703125 48.234375 14.96875 
Q 45.65625 7.234375 40.5 3 
Q 35.359375 -1.21875 27.484375 -1.21875 
Q 17.140625 -1.21875 11.234375 6.203125 
Q 4.15625 15.140625 4.15625 35.296875 
z
M 13.1875 35.296875 
Q 13.1875 17.671875 17.3125 11.828125 
Q 21.4375 6 27.484375 6 
Q 33.546875 6 37.671875 11.859375 
Q 41.796875 17.71875 41.796875 35.296875 
Q 41.796875 52.984375 37.671875 58.78125 
Q 33.546875 64.59375 27.390625 64.59375 
Q 21.34375 64.59375 17.71875 59.46875 
Q 13.1875 52.9375 13.1875 35.296875 
z
" id="ArialMT-48"/>
       <path d="M 50.34375 8.453125 
L 50.34375 0 
L 3.03125 0 
Q 2.9375 3.171875 4.046875 6.109375 
Q 5.859375 10.9375 9.828125 15.625 
Q 13.8125 20.3125 21.34375 26.46875 
Q 33.015625 36.03125 37.109375 41.625 
Q 41.21875 47.21875 41.21875 52.203125 
Q 41.21875 57.421875 37.46875 61 
Q 33.734375 64.59375 27.734375 64.59375 
Q 21.390625 64.59375 17.578125 60.78125 
Q 13.765625 56.984375 13.71875 50.25 
L 4.6875 51.171875 
Q 5.609375 61.28125 11.65625 66.578125 
Q 17.71875 71.875 27.9375 71.875 
Q 38.234375 71.875 44.234375 66.15625 
Q 50.25 60.453125 50.25 52 
Q 50.25 47.703125 48.484375 43.546875 
Q 46.734375 39.40625 42.65625 34.8125 
Q 38.578125 30.21875 29.109375 22.21875 
Q 21.1875 15.578125 18.9375 13.203125 
Q 16.703125 10.84375 15.234375 8.453125 
z
" id="ArialMT-50"/>
      </defs>
      <g style="fill:#262626;" transform="translate(84.649037 179.69351)scale(0.11 -0.11)">
       <use transform="translate(0 0.99375)" xlink:href="#ArialMT-49"/>
       <use transform="translate(55.615234 0.99375)" xlink:href="#ArialMT-48"/>
       <use transform="translate(112.972813 70.6875)scale(0.7)" xlink:href="#ArialMT-50"/>
      </g>
     </g>
    </g>
    <g id="xtick_2">
     <g id="line2d_2">
      <path clip-path="url(#p819ee14679)" d="M 257.340372 158.84976 
L 257.340372 9.00024 
" style="fill:none;stroke:#ffffff;stroke-linecap:round;"/>
     </g>
     <g id="text_2">
      <!-- $\mathdefault{10^{3}}$ -->
      <defs>
       <path d="M 4.203125 18.890625 
L 12.984375 20.0625 
Q 14.5 12.59375 18.140625 9.296875 
Q 21.78125 6 27 6 
Q 33.203125 6 37.46875 10.296875 
Q 41.75 14.59375 41.75 20.953125 
Q 41.75 27 37.796875 30.921875 
Q 33.84375 34.859375 27.734375 34.859375 
Q 25.25 34.859375 21.53125 33.890625 
L 22.515625 41.609375 
Q 23.390625 41.5 23.921875 41.5 
Q 29.546875 41.5 34.03125 44.421875 
Q 38.53125 47.359375 38.53125 53.46875 
Q 38.53125 58.296875 35.25 61.46875 
Q 31.984375 64.65625 26.8125 64.65625 
Q 21.6875 64.65625 18.265625 61.421875 
Q 14.84375 58.203125 13.875 51.765625 
L 5.078125 53.328125 
Q 6.6875 62.15625 12.390625 67.015625 
Q 18.109375 71.875 26.609375 71.875 
Q 32.46875 71.875 37.390625 69.359375 
Q 42.328125 66.84375 44.9375 62.5 
Q 47.5625 58.15625 47.5625 53.265625 
Q 47.5625 48.640625 45.0625 44.828125 
Q 42.578125 41.015625 37.703125 38.765625 
Q 44.046875 37.3125 47.5625 32.6875 
Q 51.078125 28.078125 51.078125 21.140625 
Q 51.078125 11.765625 44.234375 5.25 
Q 37.40625 -1.265625 26.953125 -1.265625 
Q 17.53125 -1.265625 11.296875 4.34375 
Q 5.078125 9.96875 4.203125 18.890625 
z
" id="ArialMT-51"/>
      </defs>
      <g style="fill:#262626;" transform="translate(248.705372 179.69351)scale(0.11 -0.11)">
       <use transform="translate(0 0.99375)" xlink:href="#ArialMT-49"/>
       <use transform="translate(55.615234 0.99375)" xlink:href="#ArialMT-48"/>
       <use transform="translate(112.972813 70.6875)scale(0.7)" xlink:href="#ArialMT-51"/>
      </g>
     </g>
    </g>
    <g id="xtick_3"/>
    <g id="xtick_4"/>
    <g id="xtick_5"/>
    <g id="xtick_6"/>
    <g id="xtick_7"/>
    <g id="xtick_8"/>
    <g id="xtick_9"/>
    <g id="xtick_10"/>
    <g id="xtick_11"/>
    <g id="xtick_12"/>
    <g id="xtick_13"/>
    <g id="xtick_14"/>
    <g id="text_3">
     <!-- $N_x$ -->
     <defs>
      <path d="M 16.890625 72.90625 
L 30.171875 72.90625 
L 50.296875 10.40625 
L 62.5 72.90625 
L 72.125 72.90625 
L 57.90625 0 
L 44.578125 0 
L 24.515625 62.890625 
L 12.3125 0 
L 2.6875 0 
z
" id="DejaVuSans-Oblique-78"/>
      <path d="M 60.015625 54.6875 
L 34.90625 27.875 
L 50.296875 0 
L 39.984375 0 
L 28.421875 21.6875 
L 8.296875 0 
L -2.59375 0 
L 24.3125 28.8125 
L 10.015625 54.6875 
L 20.3125 54.6875 
L 30.8125 34.90625 
L 49.125 54.6875 
z
" id="DejaVuSans-Oblique-120"/>
     </defs>
     <g style="fill:#262626;" transform="translate(153.114 194.469135)scale(0.12 -0.12)">
      <use transform="translate(0 0.09375)" xlink:href="#DejaVuSans-Oblique-78"/>
      <use transform="translate(74.804688 -16.3125)scale(0.7)" xlink:href="#DejaVuSans-Oblique-120"/>
     </g>
    </g>
   </g>
   <g id="matplotlib.axis_2">
    <g id="ytick_1">
     <g id="line2d_3">
      <path clip-path="url(#p819ee14679)" d="M 51.60024 158.84976 
L 268.90776 158.84976 
" style="fill:none;stroke:#ffffff;stroke-linecap:round;"/>
     </g>
     <g id="text_4">
      <!-- $\mathdefault{10^{-3}}$ -->
      <defs>
       <path d="M 52.828125 31.203125 
L 5.5625 31.203125 
L 5.5625 39.40625 
L 52.828125 39.40625 
z
" id="ArialMT-8722"/>
      </defs>
      <g style="fill:#262626;" transform="translate(20.32024 164.521635)scale(0.11 -0.11)">
       <use transform="translate(0 0.99375)" xlink:href="#ArialMT-49"/>
       <use transform="translate(55.615234 0.99375)" xlink:href="#ArialMT-48"/>
       <use transform="translate(112.972813 70.6875)scale(0.7)" xlink:href="#ArialMT-8722"/>
       <use transform="translate(153.851719 70.6875)scale(0.7)" xlink:href="#ArialMT-51"/>
      </g>
     </g>
    </g>
    <g id="ytick_2">
     <g id="line2d_4">
      <path clip-path="url(#p819ee14679)" d="M 51.60024 108.89992 
L 268.90776 108.89992 
" style="fill:none;stroke:#ffffff;stroke-linecap:round;"/>
     </g>
     <g id="text_5">
      <!-- $\mathdefault{10^{-2}}$ -->
      <g style="fill:#262626;" transform="translate(20.32024 114.571795)scale(0.11 -0.11)">
       <use transform="translate(0 0.99375)" xlink:href="#ArialMT-49"/>
       <use transform="translate(55.615234 0.99375)" xlink:href="#ArialMT-48"/>
       <use transform="translate(112.972813 70.6875)scale(0.7)" xlink:href="#ArialMT-8722"/>
       <use transform="translate(153.851719 70.6875)scale(0.7)" xlink:href="#ArialMT-50"/>
      </g>
     </g>
    </g>
    <g id="ytick_3">
     <g id="line2d_5">
      <path clip-path="url(#p819ee14679)" d="M 51.60024 58.95008 
L 268.90776 58.95008 
" style="fill:none;stroke:#ffffff;stroke-linecap:round;"/>
     </g>
     <g id="text_6">
      <!-- $\mathdefault{10^{-1}}$ -->
      <g style="fill:#262626;" transform="translate(20.32024 64.621955)scale(0.11 -0.11)">
       <use transform="translate(0 0.99375)" xlink:href="#ArialMT-49"/>
       <use transform="translate(55.615234 0.99375)" xlink:href="#ArialMT-48"/>
       <use transform="translate(112.972813 70.6875)scale(0.7)" xlink:href="#ArialMT-8722"/>
       <use transform="translate(153.851719 70.6875)scale(0.7)" xlink:href="#ArialMT-49"/>
      </g>
     </g>
    </g>
    <g id="ytick_4">
     <g id="line2d_6">
      <path clip-path="url(#p819ee14679)" d="M 51.60024 9.00024 
L 268.90776 9.00024 
" style="fill:none;stroke:#ffffff;stroke-linecap:round;"/>
     </g>
     <g id="text_7">
      <!-- $\mathdefault{10^{0}}$ -->
      <g style="fill:#262626;" transform="translate(24.83024 14.672115)scale(0.11 -0.11)">
       <use transform="translate(0 0.99375)" xlink:href="#ArialMT-49"/>
       <use transform="translate(55.615234 0.99375)" xlink:href="#ArialMT-48"/>
       <use transform="translate(112.972813 70.6875)scale(0.7)" xlink:href="#ArialMT-48"/>
      </g>
     </g>
    </g>
    <g id="ytick_5"/>
    <g id="ytick_6"/>
    <g id="ytick_7"/>
    <g id="ytick_8"/>
    <g id="ytick_9"/>
    <g id="ytick_10"/>
    <g id="ytick_11"/>
    <g id="ytick_12"/>
    <g id="ytick_13"/>
    <g id="ytick_14"/>
    <g id="ytick_15"/>
    <g id="ytick_16"/>
    <g id="ytick_17"/>
    <g id="ytick_18"/>
    <g id="ytick_19"/>
    <g id="ytick_20"/>
    <g id="ytick_21"/>
    <g id="ytick_22"/>
    <g id="ytick_23"/>
    <g id="ytick_24"/>
    <g id="ytick_25"/>
    <g id="ytick_26"/>
    <g id="ytick_27"/>
    <g id="ytick_28"/>
    <g id="text_8">
     <!-- $L^2$ error of interface position -->
     <defs>
      <path d="M 16.796875 72.90625 
L 26.703125 72.90625 
L 14.203125 8.203125 
L 49.703125 8.203125 
L 48.09375 0 
L 2.6875 0 
z
" id="DejaVuSans-Oblique-76"/>
      <path d="M 19.1875 8.296875 
L 53.609375 8.296875 
L 53.609375 0 
L 7.328125 0 
L 7.328125 8.296875 
Q 12.9375 14.109375 22.625 23.890625 
Q 32.328125 33.6875 34.8125 36.53125 
Q 39.546875 41.84375 41.421875 45.53125 
Q 43.3125 49.21875 43.3125 52.78125 
Q 43.3125 58.59375 39.234375 62.25 
Q 35.15625 65.921875 28.609375 65.921875 
Q 23.96875 65.921875 18.8125 64.3125 
Q 13.671875 62.703125 7.8125 59.421875 
L 7.8125 69.390625 
Q 13.765625 71.78125 18.9375 73 
Q 24.125 74.21875 28.421875 74.21875 
Q 39.75 74.21875 46.484375 68.546875 
Q 53.21875 62.890625 53.21875 53.421875 
Q 53.21875 48.921875 51.53125 44.890625 
Q 49.859375 40.875 45.40625 35.40625 
Q 44.1875 33.984375 37.640625 27.21875 
Q 31.109375 20.453125 19.1875 8.296875 
z
" id="DejaVuSans-50"/>
      <path id="ArialMT-32"/>
      <path d="M 42.09375 16.703125 
L 51.171875 15.578125 
Q 49.03125 7.625 43.21875 3.21875 
Q 37.40625 -1.171875 28.375 -1.171875 
Q 17 -1.171875 10.328125 5.828125 
Q 3.65625 12.84375 3.65625 25.484375 
Q 3.65625 38.578125 10.390625 45.796875 
Q 17.140625 53.03125 27.875 53.03125 
Q 38.28125 53.03125 44.875 45.953125 
Q 51.46875 38.875 51.46875 26.03125 
Q 51.46875 25.25 51.421875 23.6875 
L 12.75 23.6875 
Q 13.234375 15.140625 17.578125 10.59375 
Q 21.921875 6.0625 28.421875 6.0625 
Q 33.25 6.0625 36.671875 8.59375 
Q 40.09375 11.140625 42.09375 16.703125 
z
M 13.234375 30.90625 
L 42.1875 30.90625 
Q 41.609375 37.453125 38.875 40.71875 
Q 34.671875 45.796875 27.984375 45.796875 
Q 21.921875 45.796875 17.796875 41.75 
Q 13.671875 37.703125 13.234375 30.90625 
z
" id="ArialMT-101"/>
      <path d="M 6.5 0 
L 6.5 51.859375 
L 14.40625 51.859375 
L 14.40625 44 
Q 17.4375 49.515625 20 51.265625 
Q 22.5625 53.03125 25.640625 53.03125 
Q 30.078125 53.03125 34.671875 50.203125 
L 31.640625 42.046875 
Q 28.421875 43.953125 25.203125 43.953125 
Q 22.3125 43.953125 20.015625 42.21875 
Q 17.71875 40.484375 16.75 37.40625 
Q 15.28125 32.71875 15.28125 27.15625 
L 15.28125 0 
z
" id="ArialMT-114"/>
      <path d="M 3.328125 25.921875 
Q 3.328125 40.328125 11.328125 47.265625 
Q 18.015625 53.03125 27.640625 53.03125 
Q 38.328125 53.03125 45.109375 46.015625 
Q 51.90625 39.015625 51.90625 26.65625 
Q 51.90625 16.65625 48.90625 10.90625 
Q 45.90625 5.171875 40.15625 2 
Q 34.421875 -1.171875 27.640625 -1.171875 
Q 16.75 -1.171875 10.03125 5.8125 
Q 3.328125 12.796875 3.328125 25.921875 
z
M 12.359375 25.921875 
Q 12.359375 15.96875 16.703125 11.015625 
Q 21.046875 6.0625 27.640625 6.0625 
Q 34.1875 6.0625 38.53125 11.03125 
Q 42.875 16.015625 42.875 26.21875 
Q 42.875 35.84375 38.5 40.796875 
Q 34.125 45.75 27.640625 45.75 
Q 21.046875 45.75 16.703125 40.8125 
Q 12.359375 35.890625 12.359375 25.921875 
z
" id="ArialMT-111"/>
      <path d="M 8.6875 0 
L 8.6875 45.015625 
L 0.921875 45.015625 
L 0.921875 51.859375 
L 8.6875 51.859375 
L 8.6875 57.375 
Q 8.6875 62.59375 9.625 65.140625 
Q 10.890625 68.5625 14.078125 70.671875 
Q 17.28125 72.796875 23.046875 72.796875 
Q 26.765625 72.796875 31.25 71.921875 
L 29.9375 64.265625 
Q 27.203125 64.75 24.75 64.75 
Q 20.75 64.75 19.09375 63.03125 
Q 17.4375 61.328125 17.4375 56.640625 
L 17.4375 51.859375 
L 27.546875 51.859375 
L 27.546875 45.015625 
L 17.4375 45.015625 
L 17.4375 0 
z
" id="ArialMT-102"/>
      <path d="M 6.640625 61.46875 
L 6.640625 71.578125 
L 15.4375 71.578125 
L 15.4375 61.46875 
z
M 6.640625 0 
L 6.640625 51.859375 
L 15.4375 51.859375 
L 15.4375 0 
z
" id="ArialMT-105"/>
      <path d="M 6.59375 0 
L 6.59375 51.859375 
L 14.5 51.859375 
L 14.5 44.484375 
Q 20.21875 53.03125 31 53.03125 
Q 35.6875 53.03125 39.625 51.34375 
Q 43.5625 49.65625 45.515625 46.921875 
Q 47.46875 44.1875 48.25 40.4375 
Q 48.734375 37.984375 48.734375 31.890625 
L 48.734375 0 
L 39.9375 0 
L 39.9375 31.546875 
Q 39.9375 36.921875 38.90625 39.578125 
Q 37.890625 42.234375 35.28125 43.8125 
Q 32.671875 45.40625 29.15625 45.40625 
Q 23.53125 45.40625 19.453125 41.84375 
Q 15.375 38.28125 15.375 28.328125 
L 15.375 0 
z
" id="ArialMT-110"/>
      <path d="M 25.78125 7.859375 
L 27.046875 0.09375 
Q 23.34375 -0.6875 20.40625 -0.6875 
Q 15.625 -0.6875 12.984375 0.828125 
Q 10.359375 2.34375 9.28125 4.8125 
Q 8.203125 7.28125 8.203125 15.1875 
L 8.203125 45.015625 
L 1.765625 45.015625 
L 1.765625 51.859375 
L 8.203125 51.859375 
L 8.203125 64.703125 
L 16.9375 69.96875 
L 16.9375 51.859375 
L 25.78125 51.859375 
L 25.78125 45.015625 
L 16.9375 45.015625 
L 16.9375 14.703125 
Q 16.9375 10.9375 17.40625 9.859375 
Q 17.875 8.796875 18.921875 8.15625 
Q 19.96875 7.515625 21.921875 7.515625 
Q 23.390625 7.515625 25.78125 7.859375 
z
" id="ArialMT-116"/>
      <path d="M 40.4375 6.390625 
Q 35.546875 2.25 31.03125 0.53125 
Q 26.515625 -1.171875 21.34375 -1.171875 
Q 12.796875 -1.171875 8.203125 3 
Q 3.609375 7.171875 3.609375 13.671875 
Q 3.609375 17.484375 5.34375 20.625 
Q 7.078125 23.78125 9.890625 25.6875 
Q 12.703125 27.59375 16.21875 28.5625 
Q 18.796875 29.25 24.03125 29.890625 
Q 34.671875 31.15625 39.703125 32.90625 
Q 39.75 34.71875 39.75 35.203125 
Q 39.75 40.578125 37.25 42.78125 
Q 33.890625 45.75 27.25 45.75 
Q 21.046875 45.75 18.09375 43.578125 
Q 15.140625 41.40625 13.71875 35.890625 
L 5.125 37.0625 
Q 6.296875 42.578125 8.984375 45.96875 
Q 11.671875 49.359375 16.75 51.1875 
Q 21.828125 53.03125 28.515625 53.03125 
Q 35.15625 53.03125 39.296875 51.46875 
Q 43.453125 49.90625 45.40625 47.53125 
Q 47.359375 45.171875 48.140625 41.546875 
Q 48.578125 39.3125 48.578125 33.453125 
L 48.578125 21.734375 
Q 48.578125 9.46875 49.140625 6.21875 
Q 49.703125 2.984375 51.375 0 
L 42.1875 0 
Q 40.828125 2.734375 40.4375 6.390625 
z
M 39.703125 26.03125 
Q 34.90625 24.078125 25.34375 22.703125 
Q 19.921875 21.921875 17.671875 20.9375 
Q 15.4375 19.96875 14.203125 18.09375 
Q 12.984375 16.21875 12.984375 13.921875 
Q 12.984375 10.40625 15.640625 8.0625 
Q 18.3125 5.71875 23.4375 5.71875 
Q 28.515625 5.71875 32.46875 7.9375 
Q 36.421875 10.15625 38.28125 14.015625 
Q 39.703125 17 39.703125 22.796875 
z
" id="ArialMT-97"/>
      <path d="M 40.4375 19 
L 49.078125 17.875 
Q 47.65625 8.9375 41.8125 3.875 
Q 35.984375 -1.171875 27.484375 -1.171875 
Q 16.84375 -1.171875 10.375 5.78125 
Q 3.90625 12.75 3.90625 25.734375 
Q 3.90625 34.125 6.6875 40.421875 
Q 9.46875 46.734375 15.15625 49.875 
Q 20.84375 53.03125 27.546875 53.03125 
Q 35.984375 53.03125 41.359375 48.75 
Q 46.734375 44.484375 48.25 36.625 
L 39.703125 35.296875 
Q 38.484375 40.53125 35.375 43.15625 
Q 32.28125 45.796875 27.875 45.796875 
Q 21.234375 45.796875 17.078125 41.03125 
Q 12.9375 36.28125 12.9375 25.984375 
Q 12.9375 15.53125 16.9375 10.796875 
Q 20.953125 6.0625 27.390625 6.0625 
Q 32.5625 6.0625 36.03125 9.234375 
Q 39.5 12.40625 40.4375 19 
z
" id="ArialMT-99"/>
      <path d="M 6.59375 -19.875 
L 6.59375 51.859375 
L 14.59375 51.859375 
L 14.59375 45.125 
Q 17.4375 49.078125 21 51.046875 
Q 24.5625 53.03125 29.640625 53.03125 
Q 36.28125 53.03125 41.359375 49.609375 
Q 46.4375 46.1875 49.015625 39.953125 
Q 51.609375 33.734375 51.609375 26.3125 
Q 51.609375 18.359375 48.75 11.984375 
Q 45.90625 5.609375 40.453125 2.21875 
Q 35.015625 -1.171875 29 -1.171875 
Q 24.609375 -1.171875 21.109375 0.6875 
Q 17.625 2.546875 15.375 5.375 
L 15.375 -19.875 
z
M 14.546875 25.640625 
Q 14.546875 15.625 18.59375 10.84375 
Q 22.65625 6.0625 28.421875 6.0625 
Q 34.28125 6.0625 38.453125 11.015625 
Q 42.625 15.96875 42.625 26.375 
Q 42.625 36.28125 38.546875 41.203125 
Q 34.46875 46.140625 28.8125 46.140625 
Q 23.1875 46.140625 18.859375 40.890625 
Q 14.546875 35.640625 14.546875 25.640625 
z
" id="ArialMT-112"/>
      <path d="M 3.078125 15.484375 
L 11.765625 16.84375 
Q 12.5 11.625 15.84375 8.84375 
Q 19.1875 6.0625 25.203125 6.0625 
Q 31.25 6.0625 34.171875 8.515625 
Q 37.109375 10.984375 37.109375 14.3125 
Q 37.109375 17.28125 34.515625 19 
Q 32.71875 20.171875 25.53125 21.96875 
Q 15.875 24.421875 12.140625 26.203125 
Q 8.40625 27.984375 6.46875 31.125 
Q 4.546875 34.28125 4.546875 38.09375 
Q 4.546875 41.546875 6.125 44.5 
Q 7.71875 47.46875 10.453125 49.421875 
Q 12.5 50.921875 16.03125 51.96875 
Q 19.578125 53.03125 23.640625 53.03125 
Q 29.734375 53.03125 34.34375 51.265625 
Q 38.96875 49.515625 41.15625 46.5 
Q 43.359375 43.5 44.1875 38.484375 
L 35.59375 37.3125 
Q 35.015625 41.3125 32.203125 43.546875 
Q 29.390625 45.796875 24.265625 45.796875 
Q 18.21875 45.796875 15.625 43.796875 
Q 13.03125 41.796875 13.03125 39.109375 
Q 13.03125 37.40625 14.109375 36.03125 
Q 15.1875 34.625 17.484375 33.6875 
Q 18.796875 33.203125 25.25 31.453125 
Q 34.578125 28.953125 38.25 27.359375 
Q 41.9375 25.78125 44.03125 22.75 
Q 46.140625 19.734375 46.140625 15.234375 
Q 46.140625 10.84375 43.578125 6.953125 
Q 41.015625 3.078125 36.171875 0.953125 
Q 31.34375 -1.171875 25.25 -1.171875 
Q 15.140625 -1.171875 9.84375 3.03125 
Q 4.546875 7.234375 3.078125 15.484375 
z
" id="ArialMT-115"/>
     </defs>
     <g style="fill:#262626;" transform="translate(13.92024 158.565)rotate(-90)scale(0.12 -0.12)">
      <use transform="translate(0 0.765625)" xlink:href="#DejaVuSans-Oblique-76"/>
      <use transform="translate(62.729661 39.046875)scale(0.7)" xlink:href="#DejaVuSans-50"/>
      <use transform="translate(110.000169 0.765625)" xlink:href="#ArialMT-32"/>
      <use transform="translate(137.783372 0.765625)" xlink:href="#ArialMT-101"/>
      <use transform="translate(193.398607 0.765625)" xlink:href="#ArialMT-114"/>
      <use transform="translate(226.699388 0.765625)" xlink:href="#ArialMT-114"/>
      <use transform="translate(260.000169 0.765625)" xlink:href="#ArialMT-111"/>
      <use transform="translate(315.615404 0.765625)" xlink:href="#ArialMT-114"/>
      <use transform="translate(348.916185 0.765625)" xlink:href="#ArialMT-32"/>
      <use transform="translate(376.699388 0.765625)" xlink:href="#ArialMT-111"/>
      <use transform="translate(432.314622 0.765625)" xlink:href="#ArialMT-102"/>
      <use transform="translate(460.097826 0.765625)" xlink:href="#ArialMT-32"/>
      <use transform="translate(487.881029 0.765625)" xlink:href="#ArialMT-105"/>
      <use transform="translate(510.097826 0.765625)" xlink:href="#ArialMT-110"/>
      <use transform="translate(565.71306 0.765625)" xlink:href="#ArialMT-116"/>
      <use transform="translate(593.496263 0.765625)" xlink:href="#ArialMT-101"/>
      <use transform="translate(649.111497 0.765625)" xlink:href="#ArialMT-114"/>
      <use transform="translate(682.412279 0.765625)" xlink:href="#ArialMT-102"/>
      <use transform="translate(710.195482 0.765625)" xlink:href="#ArialMT-97"/>
      <use transform="translate(765.810716 0.765625)" xlink:href="#ArialMT-99"/>
      <use transform="translate(815.810716 0.765625)" xlink:href="#ArialMT-101"/>
      <use transform="translate(871.425951 0.765625)" xlink:href="#ArialMT-32"/>
      <use transform="translate(899.209154 0.765625)" xlink:href="#ArialMT-112"/>
      <use transform="translate(954.824388 0.765625)" xlink:href="#ArialMT-111"/>
      <use transform="translate(1010.439622 0.765625)" xlink:href="#ArialMT-115"/>
      <use transform="translate(1060.439622 0.765625)" xlink:href="#ArialMT-105"/>
      <use transform="translate(1082.656419 0.765625)" xlink:href="#ArialMT-116"/>
      <use transform="translate(1110.439622 0.765625)" xlink:href="#ArialMT-105"/>
      <use transform="translate(1132.656419 0.765625)" xlink:href="#ArialMT-111"/>
      <use transform="translate(1188.271654 0.765625)" xlink:href="#ArialMT-110"/>
     </g>
    </g>
   </g>
   <g id="PathCollection_1">
    <defs>
     <path d="M 0 3 
C 0.795609 3 1.55874 2.683901 2.12132 2.12132 
C 2.683901 1.55874 3 0.795609 3 0 
C 3 -0.795609 2.683901 -1.55874 2.12132 -2.12132 
C 1.55874 -2.683901 0.795609 -3 0 -3 
C -0.795609 -3 -1.55874 -2.683901 -2.12132 -2.12132 
C -2.683901 -1.55874 -3 -0.795609 -3 0 
C -3 0.795609 -2.683901 1.55874 -2.12132 2.12132 
C -1.55874 2.683901 -0.795609 3 0 3 
z
" id="C0_0_5d6938f4e4"/>
    </defs>
    <g clip-path="url(#p819ee14679)">
     <use style="fill:#ad1759;stroke:#1a1a1a;" x="160.258389" xlink:href="#C0_0_5d6938f4e4" y="82.80428"/>
    </g>
    <g clip-path="url(#p819ee14679)">
     <use style="fill:#35193e;stroke:#1a1a1a;" x="160.258389" xlink:href="#C0_0_5d6938f4e4" y="49958.84024"/>
    </g>
    <g clip-path="url(#p819ee14679)">
     <use style="fill:#e13342;stroke:#1a1a1a;" x="160.258389" xlink:href="#C0_0_5d6938f4e4" y="103.23746"/>
    </g>
    <g clip-path="url(#p819ee14679)">
     <use style="fill:#701f57;stroke:#1a1a1a;" x="160.258389" xlink:href="#C0_0_5d6938f4e4" y="49958.84024"/>
    </g>
    <g clip-path="url(#p819ee14679)">
     <use style="fill:#f37651;stroke:#1a1a1a;" x="160.258389" xlink:href="#C0_0_5d6938f4e4" y="126.268789"/>
    </g>
    <g clip-path="url(#p819ee14679)">
     <use style="fill:#ad1759;stroke:#1a1a1a;" x="61.486633" xlink:href="#C0_0_5d6938f4e4" y="78.350171"/>
    </g>
    <g clip-path="url(#p819ee14679)">
     <use style="fill:#35193e;stroke:#1a1a1a;" x="61.486633" xlink:href="#C0_0_5d6938f4e4" y="43.544849"/>
    </g>
    <g clip-path="url(#p819ee14679)">
     <use style="fill:#e13342;stroke:#1a1a1a;" x="61.486633" xlink:href="#C0_0_5d6938f4e4" y="82.400578"/>
    </g>
    <g clip-path="url(#p819ee14679)">
     <use style="fill:#701f57;stroke:#1a1a1a;" x="61.486633" xlink:href="#C0_0_5d6938f4e4" y="61.471751"/>
    </g>
    <g clip-path="url(#p819ee14679)">
     <use style="fill:#f37651;stroke:#1a1a1a;" x="61.486633" xlink:href="#C0_0_5d6938f4e4" y="49958.84024"/>
    </g>
    <g clip-path="url(#p819ee14679)">
     <use style="fill:#ad1759;stroke:#1a1a1a;" x="110.872511" xlink:href="#C0_0_5d6938f4e4" y="81.559004"/>
    </g>
    <g clip-path="url(#p819ee14679)">
     <use style="fill:#35193e;stroke:#1a1a1a;" x="110.872511" xlink:href="#C0_0_5d6938f4e4" y="49958.84024"/>
    </g>
    <g clip-path="url(#p819ee14679)">
     <use style="fill:#e13342;stroke:#1a1a1a;" x="110.872511" xlink:href="#C0_0_5d6938f4e4" y="100.215726"/>
    </g>
    <g clip-path="url(#p819ee14679)">
     <use style="fill:#701f57;stroke:#1a1a1a;" x="110.872511" xlink:href="#C0_0_5d6938f4e4" y="62.407318"/>
    </g>
    <g clip-path="url(#p819ee14679)">
     <use style="fill:#f37651;stroke:#1a1a1a;" x="110.872511" xlink:href="#C0_0_5d6938f4e4" y="49958.84024"/>
    </g>
    <g clip-path="url(#p819ee14679)">
     <use style="fill:#ad1759;stroke:#1a1a1a;" x="209.644267" xlink:href="#C0_0_5d6938f4e4" y="49958.84024"/>
    </g>
    <g clip-path="url(#p819ee14679)">
     <use style="fill:#35193e;stroke:#1a1a1a;" x="209.644267" xlink:href="#C0_0_5d6938f4e4" y="49958.84024"/>
    </g>
    <g clip-path="url(#p819ee14679)">
     <use style="fill:#e13342;stroke:#1a1a1a;" x="209.644267" xlink:href="#C0_0_5d6938f4e4" y="105.206072"/>
    </g>
    <g clip-path="url(#p819ee14679)">
     <use style="fill:#701f57;stroke:#1a1a1a;" x="209.644267" xlink:href="#C0_0_5d6938f4e4" y="49958.84024"/>
    </g>
    <g clip-path="url(#p819ee14679)">
     <use style="fill:#f37651;stroke:#1a1a1a;" x="209.644267" xlink:href="#C0_0_5d6938f4e4" y="132.29358"/>
    </g>
   </g>
   <g id="line2d_7">
    <path clip-path="url(#p819ee14679)" d="M 61.486633 4.674082 
L 65.518134 7.129004 
L 69.549634 9.583926 
L 73.581134 12.038849 
L 77.612634 14.493771 
L 81.644135 16.948694 
L 85.675635 19.403616 
L 89.707135 21.858539 
L 93.738635 24.313461 
L 97.770136 26.768384 
L 101.801636 29.223306 
L 105.833136 31.678229 
L 109.864636 34.133151 
L 113.896137 36.588074 
L 117.927637 39.042996 
L 121.959137 41.497919 
L 125.990637 43.952841 
L 130.022138 46.407764 
L 134.053638 48.862686 
L 138.085138 51.317608 
L 142.116638 53.772531 
L 146.148139 56.227453 
L 150.179639 58.682376 
L 154.211139 61.137298 
L 158.242639 63.592221 
L 162.27414 66.047143 
L 166.30564 68.502066 
L 170.33714 70.956988 
L 174.36864 73.411911 
L 178.400141 75.866833 
L 182.431641 78.321756 
L 186.463141 80.776678 
L 190.494641 83.231601 
L 194.526142 85.686523 
L 198.557642 88.141445 
L 202.589142 90.596368 
L 206.620642 93.05129 
L 210.652143 95.506213 
L 214.683643 97.961135 
L 218.715143 100.416058 
L 222.746643 102.87098 
L 226.778144 105.325903 
L 230.809644 107.780825 
L 234.841144 110.235748 
L 238.872644 112.69067 
L 242.904144 115.145593 
L 246.935645 117.600515 
L 250.967145 120.055438 
L 254.998645 122.51036 
L 259.030145 124.965282 
" style="fill:none;stroke:#1a1a1a;stroke-dasharray:5.55,2.4;stroke-dashoffset:0;stroke-width:1.5;"/>
   </g>
   <g id="line2d_8">
    <path clip-path="url(#p819ee14679)" d="M 61.486633 99.218641 
L 65.518134 100.446102 
L 69.549634 101.673563 
L 73.581134 102.901024 
L 77.612634 104.128486 
L 81.644135 105.355947 
L 85.675635 106.583408 
L 89.707135 107.810869 
L 93.738635 109.038331 
L 97.770136 110.265792 
L 101.801636 111.493253 
L 105.833136 112.720714 
L 109.864636 113.948176 
L 113.896137 115.175637 
L 117.927637 116.403098 
L 121.959137 117.630559 
L 125.990637 118.85802 
L 130.022138 120.085482 
L 134.053638 121.312943 
L 138.085138 122.540404 
L 142.116638 123.767865 
L 146.148139 124.995327 
L 150.179639 126.222788 
L 154.211139 127.450249 
L 158.242639 128.67771 
L 162.27414 129.905172 
L 166.30564 131.132633 
L 170.33714 132.360094 
L 174.36864 133.587555 
L 178.400141 134.815017 
L 182.431641 136.042478 
L 186.463141 137.269939 
L 190.494641 138.4974 
L 194.526142 139.724861 
L 198.557642 140.952323 
L 202.589142 142.179784 
L 206.620642 143.407245 
L 210.652143 144.634706 
L 214.683643 145.862168 
L 218.715143 147.089629 
L 222.746643 148.31709 
L 226.778144 149.544551 
L 230.809644 150.772013 
L 234.841144 151.999474 
L 238.872644 153.226935 
L 242.904144 154.454396 
L 246.935645 155.681857 
L 250.967145 156.909319 
L 254.998645 158.13678 
L 259.030145 159.364241 
" style="fill:none;stroke:#1a1a1a;stroke-dasharray:5.55,2.4;stroke-dashoffset:0;stroke-width:1.5;"/>
   </g>
   <g id="patch_3">
    <path d="M 51.60024 158.84976 
L 51.60024 9.00024 
" style="fill:none;stroke:#ffffff;stroke-linecap:square;stroke-linejoin:miter;stroke-width:1.25;"/>
   </g>
   <g id="patch_4">
    <path d="M 268.90776 158.84976 
L 268.90776 9.00024 
" style="fill:none;stroke:#ffffff;stroke-linecap:square;stroke-linejoin:miter;stroke-width:1.25;"/>
   </g>
   <g id="patch_5">
    <path d="M 51.60024 158.84976 
L 268.90776 158.84976 
" style="fill:none;stroke:#ffffff;stroke-linecap:square;stroke-linejoin:miter;stroke-width:1.25;"/>
   </g>
   <g id="patch_6">
    <path d="M 51.60024 9.00024 
L 268.90776 9.00024 
" style="fill:none;stroke:#ffffff;stroke-linecap:square;stroke-linejoin:miter;stroke-width:1.25;"/>
   </g>
   <g id="text_9">
    <!-- $N^{-2}$ -->
    <defs>
     <path d="M 10.59375 35.5 
L 73.1875 35.5 
L 73.1875 27.203125 
L 10.59375 27.203125 
z
" id="DejaVuSans-8722"/>
    </defs>
    <g style="fill:#262626;" transform="translate(142.669915 43.91368)scale(0.12 -0.12)">
     <use transform="translate(0 0.765625)" xlink:href="#DejaVuSans-Oblique-78"/>
     <use transform="translate(81.821458 39.046875)scale(0.7)" xlink:href="#DejaVuSans-8722"/>
     <use transform="translate(140.473802 39.046875)scale(0.7)" xlink:href="#DejaVuSans-50"/>
    </g>
   </g>
   <g id="text_10">
    <!-- $N^{-1}$ -->
    <defs>
     <path d="M 12.40625 8.296875 
L 28.515625 8.296875 
L 28.515625 63.921875 
L 10.984375 60.40625 
L 10.984375 69.390625 
L 28.421875 72.90625 
L 38.28125 72.90625 
L 38.28125 8.296875 
L 54.390625 8.296875 
L 54.390625 0 
L 12.40625 0 
z
" id="DejaVuSans-49"/>
    </defs>
    <g style="fill:#262626;" transform="translate(122.172923 143.81336)scale(0.12 -0.12)">
     <use transform="translate(0 0.684375)" xlink:href="#DejaVuSans-Oblique-78"/>
     <use transform="translate(81.821458 38.965625)scale(0.7)" xlink:href="#DejaVuSans-8722"/>
     <use transform="translate(140.473802 38.965625)scale(0.7)" xlink:href="#DejaVuSans-49"/>
    </g>
   </g>
  </g>
  <g id="axes_2">
   <g id="patch_7">
    <path d="M 292.09224 158.84976 
L 509.39976 158.84976 
L 509.39976 9.00024 
L 292.09224 9.00024 
z
" style="fill:#eaeaf2;"/>
   </g>
   <g id="matplotlib.axis_3">
    <g id="xtick_15">
     <g id="line2d_9">
      <path clip-path="url(#p1be6e458a9)" d="M 333.775948 158.84976 
L 333.775948 9.00024 
" style="fill:none;stroke:#ffffff;stroke-linecap:round;"/>
     </g>
     <g id="text_11">
      <!-- $\mathdefault{10^{2}}$ -->
      <g style="fill:#262626;" transform="translate(325.140948 179.69351)scale(0.11 -0.11)">
       <use transform="translate(0 0.99375)" xlink:href="#ArialMT-49"/>
       <use transform="translate(55.615234 0.99375)" xlink:href="#ArialMT-48"/>
       <use transform="translate(112.972813 70.6875)scale(0.7)" xlink:href="#ArialMT-50"/>
      </g>
     </g>
    </g>
    <g id="xtick_16">
     <g id="line2d_10">
      <path clip-path="url(#p1be6e458a9)" d="M 497.831828 158.84976 
L 497.831828 9.00024 
" style="fill:none;stroke:#ffffff;stroke-linecap:round;"/>
     </g>
     <g id="text_12">
      <!-- $\mathdefault{10^{3}}$ -->
      <g style="fill:#262626;" transform="translate(489.196828 179.69351)scale(0.11 -0.11)">
       <use transform="translate(0 0.99375)" xlink:href="#ArialMT-49"/>
       <use transform="translate(55.615234 0.99375)" xlink:href="#ArialMT-48"/>
       <use transform="translate(112.972813 70.6875)scale(0.7)" xlink:href="#ArialMT-51"/>
      </g>
     </g>
    </g>
    <g id="xtick_17"/>
    <g id="xtick_18"/>
    <g id="xtick_19"/>
    <g id="xtick_20"/>
    <g id="xtick_21"/>
    <g id="xtick_22"/>
    <g id="xtick_23"/>
    <g id="xtick_24"/>
    <g id="xtick_25"/>
    <g id="xtick_26"/>
    <g id="xtick_27"/>
    <g id="xtick_28"/>
    <g id="text_13">
     <!-- $N_x^r$ -->
     <defs>
      <path d="M 44.578125 46.390625 
Q 43.21875 47.125 41.453125 47.515625 
Q 39.703125 47.90625 37.703125 47.90625 
Q 30.515625 47.90625 25.140625 42.453125 
Q 19.78125 37.015625 18.015625 27.875 
L 12.5 0 
L 3.515625 0 
L 14.203125 54.6875 
L 23.1875 54.6875 
L 21.484375 46.1875 
Q 25.046875 50.921875 30 53.453125 
Q 34.96875 56 40.578125 56 
Q 42.046875 56 43.453125 55.828125 
Q 44.875 55.671875 46.296875 55.28125 
z
" id="DejaVuSans-Oblique-114"/>
     </defs>
     <g style="fill:#262626;" transform="translate(393.606 195.23976)scale(0.12 -0.12)">
      <use transform="translate(0 0.51875)" xlink:href="#DejaVuSans-Oblique-78"/>
      <use transform="translate(81.821458 38.8)scale(0.7)" xlink:href="#DejaVuSans-Oblique-114"/>
      <use transform="translate(74.804688 -26.825)scale(0.7)" xlink:href="#DejaVuSans-Oblique-120"/>
     </g>
    </g>
   </g>
   <g id="matplotlib.axis_4">
    <g id="ytick_29">
     <g id="line2d_11">
      <path clip-path="url(#p1be6e458a9)" d="M 292.09224 158.84976 
L 509.39976 158.84976 
" style="fill:none;stroke:#ffffff;stroke-linecap:round;"/>
     </g>
    </g>
    <g id="ytick_30">
     <g id="line2d_12">
      <path clip-path="url(#p1be6e458a9)" d="M 292.09224 108.89992 
L 509.39976 108.89992 
" style="fill:none;stroke:#ffffff;stroke-linecap:round;"/>
     </g>
    </g>
    <g id="ytick_31">
     <g id="line2d_13">
      <path clip-path="url(#p1be6e458a9)" d="M 292.09224 58.95008 
L 509.39976 58.95008 
" style="fill:none;stroke:#ffffff;stroke-linecap:round;"/>
     </g>
    </g>
    <g id="ytick_32">
     <g id="line2d_14">
      <path clip-path="url(#p1be6e458a9)" d="M 292.09224 9.00024 
L 509.39976 9.00024 
" style="fill:none;stroke:#ffffff;stroke-linecap:round;"/>
     </g>
    </g>
    <g id="ytick_33"/>
    <g id="ytick_34"/>
    <g id="ytick_35"/>
    <g id="ytick_36"/>
    <g id="ytick_37"/>
    <g id="ytick_38"/>
    <g id="ytick_39"/>
    <g id="ytick_40"/>
    <g id="ytick_41"/>
    <g id="ytick_42"/>
    <g id="ytick_43"/>
    <g id="ytick_44"/>
    <g id="ytick_45"/>
    <g id="ytick_46"/>
    <g id="ytick_47"/>
    <g id="ytick_48"/>
    <g id="ytick_49"/>
    <g id="ytick_50"/>
    <g id="ytick_51"/>
    <g id="ytick_52"/>
    <g id="ytick_53"/>
    <g id="ytick_54"/>
    <g id="ytick_55"/>
    <g id="ytick_56"/>
   </g>
   <g id="PathCollection_2">
    <defs>
     <path d="M 0 3 
C 0.795609 3 1.55874 2.683901 2.12132 2.12132 
C 2.683901 1.55874 3 0.795609 3 0 
C 3 -0.795609 2.683901 -1.55874 2.12132 -2.12132 
C 1.55874 -2.683901 0.795609 -3 0 -3 
C -0.795609 -3 -1.55874 -2.683901 -2.12132 -2.12132 
C -2.683901 -1.55874 -3 -0.795609 -3 0 
C -3 0.795609 -2.683901 1.55874 -2.12132 2.12132 
C -1.55874 2.683901 -0.795609 3 0 3 
z
" id="C1_0_de1bc7e365"/>
    </defs>
    <g clip-path="url(#p1be6e458a9)">
     <use style="fill:#ad1759;stroke:#1a1a1a;" x="400.750115" xlink:href="#C1_0_de1bc7e365" y="82.80428"/>
    </g>
    <g clip-path="url(#p1be6e458a9)">
     <use style="fill:#35193e;stroke:#1a1a1a;" x="301.978633" xlink:href="#C1_0_de1bc7e365" y="49958.84024"/>
    </g>
    <g clip-path="url(#p1be6e458a9)">
     <use style="fill:#e13342;stroke:#1a1a1a;" x="450.135856" xlink:href="#C1_0_de1bc7e365" y="103.23746"/>
    </g>
    <g clip-path="url(#p1be6e458a9)">
     <use style="fill:#701f57;stroke:#1a1a1a;" x="351.364374" xlink:href="#C1_0_de1bc7e365" y="49958.84024"/>
    </g>
    <g clip-path="url(#p1be6e458a9)">
     <use style="fill:#f37651;stroke:#1a1a1a;" x="499.521597" xlink:href="#C1_0_de1bc7e365" y="126.268789"/>
    </g>
    <g clip-path="url(#p1be6e458a9)">
     <use style="fill:#ad1759;stroke:#1a1a1a;" x="400.750115" xlink:href="#C1_0_de1bc7e365" y="78.350171"/>
    </g>
    <g clip-path="url(#p1be6e458a9)">
     <use style="fill:#35193e;stroke:#1a1a1a;" x="301.978633" xlink:href="#C1_0_de1bc7e365" y="43.544849"/>
    </g>
    <g clip-path="url(#p1be6e458a9)">
     <use style="fill:#e13342;stroke:#1a1a1a;" x="450.135856" xlink:href="#C1_0_de1bc7e365" y="82.400578"/>
    </g>
    <g clip-path="url(#p1be6e458a9)">
     <use style="fill:#701f57;stroke:#1a1a1a;" x="351.364374" xlink:href="#C1_0_de1bc7e365" y="61.471751"/>
    </g>
    <g clip-path="url(#p1be6e458a9)">
     <use style="fill:#f37651;stroke:#1a1a1a;" x="499.521597" xlink:href="#C1_0_de1bc7e365" y="49958.84024"/>
    </g>
    <g clip-path="url(#p1be6e458a9)">
     <use style="fill:#ad1759;stroke:#1a1a1a;" x="400.750115" xlink:href="#C1_0_de1bc7e365" y="81.559004"/>
    </g>
    <g clip-path="url(#p1be6e458a9)">
     <use style="fill:#35193e;stroke:#1a1a1a;" x="301.978633" xlink:href="#C1_0_de1bc7e365" y="49958.84024"/>
    </g>
    <g clip-path="url(#p1be6e458a9)">
     <use style="fill:#e13342;stroke:#1a1a1a;" x="450.135856" xlink:href="#C1_0_de1bc7e365" y="100.215726"/>
    </g>
    <g clip-path="url(#p1be6e458a9)">
     <use style="fill:#701f57;stroke:#1a1a1a;" x="351.364374" xlink:href="#C1_0_de1bc7e365" y="62.407318"/>
    </g>
    <g clip-path="url(#p1be6e458a9)">
     <use style="fill:#f37651;stroke:#1a1a1a;" x="499.521597" xlink:href="#C1_0_de1bc7e365" y="49958.84024"/>
    </g>
    <g clip-path="url(#p1be6e458a9)">
     <use style="fill:#ad1759;stroke:#1a1a1a;" x="400.750115" xlink:href="#C1_0_de1bc7e365" y="49958.84024"/>
    </g>
    <g clip-path="url(#p1be6e458a9)">
     <use style="fill:#35193e;stroke:#1a1a1a;" x="301.978633" xlink:href="#C1_0_de1bc7e365" y="49958.84024"/>
    </g>
    <g clip-path="url(#p1be6e458a9)">
     <use style="fill:#e13342;stroke:#1a1a1a;" x="450.135856" xlink:href="#C1_0_de1bc7e365" y="105.206072"/>
    </g>
    <g clip-path="url(#p1be6e458a9)">
     <use style="fill:#701f57;stroke:#1a1a1a;" x="351.364374" xlink:href="#C1_0_de1bc7e365" y="49958.84024"/>
    </g>
    <g clip-path="url(#p1be6e458a9)">
     <use style="fill:#f37651;stroke:#1a1a1a;" x="499.521597" xlink:href="#C1_0_de1bc7e365" y="132.29358"/>
    </g>
   </g>
   <g id="line2d_15">
    <path clip-path="url(#p1be6e458a9)" d="M 301.978633 4.674082 
L 306.010123 7.129004 
L 310.041612 9.583926 
L 314.073101 12.038849 
L 318.10459 14.493771 
L 322.136079 16.948694 
L 326.167568 19.403616 
L 330.199057 21.858539 
L 334.230546 24.313461 
L 338.262035 26.768384 
L 342.293524 29.223306 
L 346.325013 31.678229 
L 350.356502 34.133151 
L 354.387991 36.588074 
L 358.41948 39.042996 
L 362.450969 41.497919 
L 366.482458 43.952841 
L 370.513947 46.407764 
L 374.545436 48.862686 
L 378.576925 51.317608 
L 382.608414 53.772531 
L 386.639903 56.227453 
L 390.671393 58.682376 
L 394.702882 61.137298 
L 398.734371 63.592221 
L 402.76586 66.047143 
L 406.797349 68.502066 
L 410.828838 70.956988 
L 414.860327 73.411911 
L 418.891816 75.866833 
L 422.923305 78.321756 
L 426.954794 80.776678 
L 430.986283 83.231601 
L 435.017772 85.686523 
L 439.049261 88.141445 
L 443.08075 90.596368 
L 447.112239 93.05129 
L 451.143728 95.506213 
L 455.175217 97.961135 
L 459.206706 100.416058 
L 463.238195 102.87098 
L 467.269684 105.325903 
L 471.301173 107.780825 
L 475.332663 110.235748 
L 479.364152 112.69067 
L 483.395641 115.145593 
L 487.42713 117.600515 
L 491.458619 120.055438 
L 495.490108 122.51036 
L 499.521597 124.965282 
" style="fill:none;stroke:#1a1a1a;stroke-dasharray:5.55,2.4;stroke-dashoffset:0;stroke-width:1.5;"/>
   </g>
   <g id="line2d_16">
    <path clip-path="url(#p1be6e458a9)" d="M 301.978633 75.38651 
L 306.010123 76.613972 
L 310.041612 77.841433 
L 314.073101 79.068894 
L 318.10459 80.296355 
L 322.136079 81.523817 
L 326.167568 82.751278 
L 330.199057 83.978739 
L 334.230546 85.2062 
L 338.262035 86.433661 
L 342.293524 87.661123 
L 346.325013 88.888584 
L 350.356502 90.116045 
L 354.387991 91.343506 
L 358.41948 92.570968 
L 362.450969 93.798429 
L 366.482458 95.02589 
L 370.513947 96.253351 
L 374.545436 97.480813 
L 378.576925 98.708274 
L 382.608414 99.935735 
L 386.639903 101.163196 
L 390.671393 102.390658 
L 394.702882 103.618119 
L 398.734371 104.84558 
L 402.76586 106.073041 
L 406.797349 107.300502 
L 410.828838 108.527964 
L 414.860327 109.755425 
L 418.891816 110.982886 
L 422.923305 112.210347 
L 426.954794 113.437809 
L 430.986283 114.66527 
L 435.017772 115.892731 
L 439.049261 117.120192 
L 443.08075 118.347654 
L 447.112239 119.575115 
L 451.143728 120.802576 
L 455.175217 122.030037 
L 459.206706 123.257499 
L 463.238195 124.48496 
L 467.269684 125.712421 
L 471.301173 126.939882 
L 475.332663 128.167343 
L 479.364152 129.394805 
L 483.395641 130.622266 
L 487.42713 131.849727 
L 491.458619 133.077188 
L 495.490108 134.30465 
L 499.521597 135.532111 
" style="fill:none;stroke:#1a1a1a;stroke-dasharray:5.55,2.4;stroke-dashoffset:0;stroke-width:1.5;"/>
   </g>
   <g id="patch_8">
    <path d="M 292.09224 158.84976 
L 292.09224 9.00024 
" style="fill:none;stroke:#ffffff;stroke-linecap:square;stroke-linejoin:miter;stroke-width:1.25;"/>
   </g>
   <g id="patch_9">
    <path d="M 509.39976 158.84976 
L 509.39976 9.00024 
" style="fill:none;stroke:#ffffff;stroke-linecap:square;stroke-linejoin:miter;stroke-width:1.25;"/>
   </g>
   <g id="patch_10">
    <path d="M 292.09224 158.84976 
L 509.39976 158.84976 
" style="fill:none;stroke:#ffffff;stroke-linecap:square;stroke-linejoin:miter;stroke-width:1.25;"/>
   </g>
   <g id="patch_11">
    <path d="M 292.09224 9.00024 
L 509.39976 9.00024 
" style="fill:none;stroke:#ffffff;stroke-linecap:square;stroke-linejoin:miter;stroke-width:1.25;"/>
   </g>
   <g id="text_14">
    <!-- $N^{-2}$ -->
    <g style="fill:#262626;" transform="translate(383.161689 43.91368)scale(0.12 -0.12)">
     <use transform="translate(0 0.765625)" xlink:href="#DejaVuSans-Oblique-78"/>
     <use transform="translate(81.821458 39.046875)scale(0.7)" xlink:href="#DejaVuSans-8722"/>
     <use transform="translate(140.473802 39.046875)scale(0.7)" xlink:href="#DejaVuSans-50"/>
    </g>
   </g>
   <g id="text_15">
    <!-- $N^{-1}$ -->
    <g style="fill:#262626;" transform="translate(412.050496 135.01763)scale(0.12 -0.12)">
     <use transform="translate(0 0.684375)" xlink:href="#DejaVuSans-Oblique-78"/>
     <use transform="translate(81.821458 38.965625)scale(0.7)" xlink:href="#DejaVuSans-8722"/>
     <use transform="translate(140.473802 38.965625)scale(0.7)" xlink:href="#DejaVuSans-49"/>
    </g>
   </g>
  </g>
 </g>
 <defs>
  <clipPath id="p819ee14679">
   <rect height="149.84952" width="217.30752" x="51.60024" y="9.00024"/>
  </clipPath>
  <clipPath id="p1be6e458a9">
   <rect height="149.84952" width="217.30752" x="292.09224" y="9.00024"/>
  </clipPath>
 </defs>
</svg>
