<?xml version="1.0" encoding="utf-8" standalone="no"?>
<!DOCTYPE svg PUBLIC "-//W3C//DTD SVG 1.1//EN"
  "http://www.w3.org/Graphics/SVG/1.1/DTD/svg11.dtd">
<svg xmlns:xlink="http://www.w3.org/1999/xlink" width="432pt" height="144pt" viewBox="0 0 432 144" xmlns="http://www.w3.org/2000/svg" version="1.1">
 <metadata>
  <rdf:RDF xmlns:dc="http://purl.org/dc/elements/1.1/" xmlns:cc="http://creativecommons.org/ns#" xmlns:rdf="http://www.w3.org/1999/02/22-rdf-syntax-ns#">
   <cc:Work>
    <dc:type rdf:resource="http://purl.org/dc/dcmitype/StillImage"/>
    <dc:date>2023-09-19T15:50:52.845402</dc:date>
    <dc:format>image/svg+xml</dc:format>
    <dc:creator>
     <cc:Agent>
      <dc:title>Matplotlib v3.7.2, https://matplotlib.org/</dc:title>
     </cc:Agent>
    </dc:creator>
   </cc:Work>
  </rdf:RDF>
 </metadata>
 <defs>
  <style type="text/css">*{stroke-linejoin: round; stroke-linecap: butt}</style>
 </defs>
 <g id="figure_1">
  <g id="patch_1">
   <path d="M 0 144 
L 432 144 
L 432 0 
L 0 0 
z
" style="fill: #ffffff"/>
  </g>
  <g id="axes_1">
   <g id="patch_2">
    <path d="M 42.765865 110.64351 
L 419.45601 110.64351 
L 419.45601 6.799459 
L 42.765865 6.799459 
z
" style="fill: #ffffff"/>
   </g>
   <g id="matplotlib.axis_1">
    <g id="xtick_1">
     <g id="line2d_1">
      <path d="M 42.765865 110.64351 
L 42.765865 6.799459 
" clip-path="url(#p3eabc99ca3)" style="fill: none; stroke: #b0b0b0; stroke-width: 0.8; stroke-linecap: square"/>
     </g>
     <g id="line2d_2">
      <defs>
       <path id="m4bea550410" d="M 0 0 
L 0 3.5 
" style="stroke: #000000; stroke-width: 0.8"/>
      </defs>
      <g>
       <use xlink:href="#m4bea550410" x="42.765865" y="110.64351" style="stroke: #000000; stroke-width: 0.8"/>
      </g>
     </g>
     <g id="text_1">
      <!-- 0 -->
      <g transform="translate(39.584615 125.241948) scale(0.1 -0.1)">
       <defs>
        <path id="DejaVuSans-30" d="M 2034 4250 
Q 1547 4250 1301 3770 
Q 1056 3291 1056 2328 
Q 1056 1369 1301 889 
Q 1547 409 2034 409 
Q 2525 409 2770 889 
Q 3016 1369 3016 2328 
Q 3016 3291 2770 3770 
Q 2525 4250 2034 4250 
z
M 2034 4750 
Q 2819 4750 3233 4129 
Q 3647 3509 3647 2328 
Q 3647 1150 3233 529 
Q 2819 -91 2034 -91 
Q 1250 -91 836 529 
Q 422 1150 422 2328 
Q 422 3509 836 4129 
Q 1250 4750 2034 4750 
z
" transform="scale(0.015625)"/>
       </defs>
       <use xlink:href="#DejaVuSans-30"/>
      </g>
     </g>
    </g>
    <g id="xtick_2">
     <g id="line2d_3">
      <path d="M 89.852133 110.64351 
L 89.852133 6.799459 
" clip-path="url(#p3eabc99ca3)" style="fill: none; stroke: #b0b0b0; stroke-width: 0.8; stroke-linecap: square"/>
     </g>
     <g id="line2d_4">
      <g>
       <use xlink:href="#m4bea550410" x="89.852133" y="110.64351" style="stroke: #000000; stroke-width: 0.8"/>
      </g>
     </g>
     <g id="text_2">
      <!-- 25 -->
      <g transform="translate(83.489633 125.241948) scale(0.1 -0.1)">
       <defs>
        <path id="DejaVuSans-32" d="M 1228 531 
L 3431 531 
L 3431 0 
L 469 0 
L 469 531 
Q 828 903 1448 1529 
Q 2069 2156 2228 2338 
Q 2531 2678 2651 2914 
Q 2772 3150 2772 3378 
Q 2772 3750 2511 3984 
Q 2250 4219 1831 4219 
Q 1534 4219 1204 4116 
Q 875 4013 500 3803 
L 500 4441 
Q 881 4594 1212 4672 
Q 1544 4750 1819 4750 
Q 2544 4750 2975 4387 
Q 3406 4025 3406 3419 
Q 3406 3131 3298 2873 
Q 3191 2616 2906 2266 
Q 2828 2175 2409 1742 
Q 1991 1309 1228 531 
z
" transform="scale(0.015625)"/>
        <path id="DejaVuSans-35" d="M 691 4666 
L 3169 4666 
L 3169 4134 
L 1269 4134 
L 1269 2991 
Q 1406 3038 1543 3061 
Q 1681 3084 1819 3084 
Q 2600 3084 3056 2656 
Q 3513 2228 3513 1497 
Q 3513 744 3044 326 
Q 2575 -91 1722 -91 
Q 1428 -91 1123 -41 
Q 819 9 494 109 
L 494 744 
Q 775 591 1075 516 
Q 1375 441 1709 441 
Q 2250 441 2565 725 
Q 2881 1009 2881 1497 
Q 2881 1984 2565 2268 
Q 2250 2553 1709 2553 
Q 1456 2553 1204 2497 
Q 953 2441 691 2322 
L 691 4666 
z
" transform="scale(0.015625)"/>
       </defs>
       <use xlink:href="#DejaVuSans-32"/>
       <use xlink:href="#DejaVuSans-35" x="63.623047"/>
      </g>
     </g>
    </g>
    <g id="xtick_3">
     <g id="line2d_5">
      <path d="M 136.938401 110.64351 
L 136.938401 6.799459 
" clip-path="url(#p3eabc99ca3)" style="fill: none; stroke: #b0b0b0; stroke-width: 0.8; stroke-linecap: square"/>
     </g>
     <g id="line2d_6">
      <g>
       <use xlink:href="#m4bea550410" x="136.938401" y="110.64351" style="stroke: #000000; stroke-width: 0.8"/>
      </g>
     </g>
     <g id="text_3">
      <!-- 50 -->
      <g transform="translate(130.575901 125.241948) scale(0.1 -0.1)">
       <use xlink:href="#DejaVuSans-35"/>
       <use xlink:href="#DejaVuSans-30" x="63.623047"/>
      </g>
     </g>
    </g>
    <g id="xtick_4">
     <g id="line2d_7">
      <path d="M 184.024669 110.64351 
L 184.024669 6.799459 
" clip-path="url(#p3eabc99ca3)" style="fill: none; stroke: #b0b0b0; stroke-width: 0.8; stroke-linecap: square"/>
     </g>
     <g id="line2d_8">
      <g>
       <use xlink:href="#m4bea550410" x="184.024669" y="110.64351" style="stroke: #000000; stroke-width: 0.8"/>
      </g>
     </g>
     <g id="text_4">
      <!-- 75 -->
      <g transform="translate(177.662169 125.241948) scale(0.1 -0.1)">
       <defs>
        <path id="DejaVuSans-37" d="M 525 4666 
L 3525 4666 
L 3525 4397 
L 1831 0 
L 1172 0 
L 2766 4134 
L 525 4134 
L 525 4666 
z
" transform="scale(0.015625)"/>
       </defs>
       <use xlink:href="#DejaVuSans-37"/>
       <use xlink:href="#DejaVuSans-35" x="63.623047"/>
      </g>
     </g>
    </g>
    <g id="xtick_5">
     <g id="line2d_9">
      <path d="M 231.110938 110.64351 
L 231.110938 6.799459 
" clip-path="url(#p3eabc99ca3)" style="fill: none; stroke: #b0b0b0; stroke-width: 0.8; stroke-linecap: square"/>
     </g>
     <g id="line2d_10">
      <g>
       <use xlink:href="#m4bea550410" x="231.110938" y="110.64351" style="stroke: #000000; stroke-width: 0.8"/>
      </g>
     </g>
     <g id="text_5">
      <!-- 100 -->
      <g transform="translate(221.567188 125.241948) scale(0.1 -0.1)">
       <defs>
        <path id="DejaVuSans-31" d="M 794 531 
L 1825 531 
L 1825 4091 
L 703 3866 
L 703 4441 
L 1819 4666 
L 2450 4666 
L 2450 531 
L 3481 531 
L 3481 0 
L 794 0 
L 794 531 
z
" transform="scale(0.015625)"/>
       </defs>
       <use xlink:href="#DejaVuSans-31"/>
       <use xlink:href="#DejaVuSans-30" x="63.623047"/>
       <use xlink:href="#DejaVuSans-30" x="127.246094"/>
      </g>
     </g>
    </g>
    <g id="xtick_6">
     <g id="line2d_11">
      <path d="M 278.197206 110.64351 
L 278.197206 6.799459 
" clip-path="url(#p3eabc99ca3)" style="fill: none; stroke: #b0b0b0; stroke-width: 0.8; stroke-linecap: square"/>
     </g>
     <g id="line2d_12">
      <g>
       <use xlink:href="#m4bea550410" x="278.197206" y="110.64351" style="stroke: #000000; stroke-width: 0.8"/>
      </g>
     </g>
     <g id="text_6">
      <!-- 125 -->
      <g transform="translate(268.653456 125.241948) scale(0.1 -0.1)">
       <use xlink:href="#DejaVuSans-31"/>
       <use xlink:href="#DejaVuSans-32" x="63.623047"/>
       <use xlink:href="#DejaVuSans-35" x="127.246094"/>
      </g>
     </g>
    </g>
    <g id="xtick_7">
     <g id="line2d_13">
      <path d="M 325.283474 110.64351 
L 325.283474 6.799459 
" clip-path="url(#p3eabc99ca3)" style="fill: none; stroke: #b0b0b0; stroke-width: 0.8; stroke-linecap: square"/>
     </g>
     <g id="line2d_14">
      <g>
       <use xlink:href="#m4bea550410" x="325.283474" y="110.64351" style="stroke: #000000; stroke-width: 0.8"/>
      </g>
     </g>
     <g id="text_7">
      <!-- 150 -->
      <g transform="translate(315.739724 125.241948) scale(0.1 -0.1)">
       <use xlink:href="#DejaVuSans-31"/>
       <use xlink:href="#DejaVuSans-35" x="63.623047"/>
       <use xlink:href="#DejaVuSans-30" x="127.246094"/>
      </g>
     </g>
    </g>
    <g id="xtick_8">
     <g id="line2d_15">
      <path d="M 372.369742 110.64351 
L 372.369742 6.799459 
" clip-path="url(#p3eabc99ca3)" style="fill: none; stroke: #b0b0b0; stroke-width: 0.8; stroke-linecap: square"/>
     </g>
     <g id="line2d_16">
      <g>
       <use xlink:href="#m4bea550410" x="372.369742" y="110.64351" style="stroke: #000000; stroke-width: 0.8"/>
      </g>
     </g>
     <g id="text_8">
      <!-- 175 -->
      <g transform="translate(362.825992 125.241948) scale(0.1 -0.1)">
       <use xlink:href="#DejaVuSans-31"/>
       <use xlink:href="#DejaVuSans-37" x="63.623047"/>
       <use xlink:href="#DejaVuSans-35" x="127.246094"/>
      </g>
     </g>
    </g>
    <g id="xtick_9">
     <g id="line2d_17">
      <path d="M 419.45601 110.64351 
L 419.45601 6.799459 
" clip-path="url(#p3eabc99ca3)" style="fill: none; stroke: #b0b0b0; stroke-width: 0.8; stroke-linecap: square"/>
     </g>
     <g id="line2d_18">
      <g>
       <use xlink:href="#m4bea550410" x="419.45601" y="110.64351" style="stroke: #000000; stroke-width: 0.8"/>
      </g>
     </g>
     <g id="text_9">
      <!-- 200 -->
      <g transform="translate(409.91226 125.241948) scale(0.1 -0.1)">
       <use xlink:href="#DejaVuSans-32"/>
       <use xlink:href="#DejaVuSans-30" x="63.623047"/>
       <use xlink:href="#DejaVuSans-30" x="127.246094"/>
      </g>
     </g>
    </g>
    <g id="text_10">
     <!-- $t/(H/U_f)$ -->
     <g transform="translate(213.060938 138.920073) scale(0.1 -0.1)">
      <defs>
       <path id="DejaVuSans-Oblique-74" d="M 2706 3500 
L 2619 3053 
L 1472 3053 
L 1100 1153 
Q 1081 1047 1072 975 
Q 1063 903 1063 863 
Q 1063 663 1183 572 
Q 1303 481 1569 481 
L 2150 481 
L 2053 0 
L 1503 0 
Q 991 0 739 200 
Q 488 400 488 806 
Q 488 878 497 964 
Q 506 1050 525 1153 
L 897 3053 
L 409 3053 
L 500 3500 
L 978 3500 
L 1172 4494 
L 1747 4494 
L 1556 3500 
L 2706 3500 
z
" transform="scale(0.015625)"/>
       <path id="DejaVuSans-2f" d="M 1625 4666 
L 2156 4666 
L 531 -594 
L 0 -594 
L 1625 4666 
z
" transform="scale(0.015625)"/>
       <path id="DejaVuSans-28" d="M 1984 4856 
Q 1566 4138 1362 3434 
Q 1159 2731 1159 2009 
Q 1159 1288 1364 580 
Q 1569 -128 1984 -844 
L 1484 -844 
Q 1016 -109 783 600 
Q 550 1309 550 2009 
Q 550 2706 781 3412 
Q 1013 4119 1484 4856 
L 1984 4856 
z
" transform="scale(0.015625)"/>
       <path id="DejaVuSans-Oblique-48" d="M 1081 4666 
L 1716 4666 
L 1344 2753 
L 3634 2753 
L 4006 4666 
L 4641 4666 
L 3731 0 
L 3097 0 
L 3531 2222 
L 1241 2222 
L 806 0 
L 172 0 
L 1081 4666 
z
" transform="scale(0.015625)"/>
       <path id="DejaVuSans-Oblique-55" d="M 991 4666 
L 1625 4666 
L 1075 1831 
Q 1041 1641 1027 1517 
Q 1013 1394 1013 1300 
Q 1013 869 1253 645 
Q 1494 422 1959 422 
Q 2563 422 2898 753 
Q 3234 1084 3378 1831 
L 3928 4666 
L 4563 4666 
L 4000 1753 
Q 3816 809 3300 359 
Q 2784 -91 1888 -91 
Q 1188 -91 780 261 
Q 372 613 372 1216 
Q 372 1325 387 1461 
Q 403 1597 434 1753 
L 991 4666 
z
" transform="scale(0.015625)"/>
       <path id="DejaVuSans-Oblique-66" d="M 3059 4863 
L 2969 4384 
L 2419 4384 
Q 2106 4384 1964 4261 
Q 1822 4138 1753 3809 
L 1691 3500 
L 2638 3500 
L 2553 3053 
L 1606 3053 
L 1013 0 
L 434 0 
L 1031 3053 
L 481 3053 
L 563 3500 
L 1113 3500 
L 1159 3744 
Q 1278 4363 1576 4613 
Q 1875 4863 2516 4863 
L 3059 4863 
z
" transform="scale(0.015625)"/>
       <path id="DejaVuSans-29" d="M 513 4856 
L 1013 4856 
Q 1481 4119 1714 3412 
Q 1947 2706 1947 2009 
Q 1947 1309 1714 600 
Q 1481 -109 1013 -844 
L 513 -844 
Q 928 -128 1133 580 
Q 1338 1288 1338 2009 
Q 1338 2731 1133 3434 
Q 928 4138 513 4856 
z
" transform="scale(0.015625)"/>
      </defs>
      <use xlink:href="#DejaVuSans-Oblique-74" transform="translate(0 0.125)"/>
      <use xlink:href="#DejaVuSans-2f" transform="translate(39.208984 0.125)"/>
      <use xlink:href="#DejaVuSans-28" transform="translate(72.900391 0.125)"/>
      <use xlink:href="#DejaVuSans-Oblique-48" transform="translate(111.914062 0.125)"/>
      <use xlink:href="#DejaVuSans-2f" transform="translate(187.109375 0.125)"/>
      <use xlink:href="#DejaVuSans-Oblique-55" transform="translate(220.800781 0.125)"/>
      <use xlink:href="#DejaVuSans-Oblique-66" transform="translate(293.994141 -16.28125) scale(0.7)"/>
      <use xlink:href="#DejaVuSans-29" transform="translate(321.37207 0.125)"/>
     </g>
    </g>
   </g>
   <g id="matplotlib.axis_2">
    <g id="ytick_1">
     <g id="line2d_19">
      <path d="M 42.765865 110.64351 
L 419.45601 110.64351 
" clip-path="url(#p3eabc99ca3)" style="fill: none; stroke: #b0b0b0; stroke-width: 0.8; stroke-linecap: square"/>
     </g>
     <g id="line2d_20">
      <defs>
       <path id="m1d49eacdd1" d="M 0 0 
L -3.5 0 
" style="stroke: #000000; stroke-width: 0.8"/>
      </defs>
      <g>
       <use xlink:href="#m1d49eacdd1" x="42.765865" y="110.64351" style="stroke: #000000; stroke-width: 0.8"/>
      </g>
     </g>
     <g id="text_11">
      <!-- 0 -->
      <g transform="translate(29.403365 114.442729) scale(0.1 -0.1)">
       <use xlink:href="#DejaVuSans-30"/>
      </g>
     </g>
    </g>
    <g id="ytick_2">
     <g id="line2d_21">
      <path d="M 42.765865 89.8747 
L 419.45601 89.8747 
" clip-path="url(#p3eabc99ca3)" style="fill: none; stroke: #b0b0b0; stroke-width: 0.8; stroke-linecap: square"/>
     </g>
     <g id="line2d_22">
      <g>
       <use xlink:href="#m1d49eacdd1" x="42.765865" y="89.8747" style="stroke: #000000; stroke-width: 0.8"/>
      </g>
     </g>
     <g id="text_12">
      <!-- 20 -->
      <g transform="translate(23.040865 93.673919) scale(0.1 -0.1)">
       <use xlink:href="#DejaVuSans-32"/>
       <use xlink:href="#DejaVuSans-30" x="63.623047"/>
      </g>
     </g>
    </g>
    <g id="ytick_3">
     <g id="line2d_23">
      <path d="M 42.765865 69.10589 
L 419.45601 69.10589 
" clip-path="url(#p3eabc99ca3)" style="fill: none; stroke: #b0b0b0; stroke-width: 0.8; stroke-linecap: square"/>
     </g>
     <g id="line2d_24">
      <g>
       <use xlink:href="#m1d49eacdd1" x="42.765865" y="69.10589" style="stroke: #000000; stroke-width: 0.8"/>
      </g>
     </g>
     <g id="text_13">
      <!-- 40 -->
      <g transform="translate(23.040865 72.905108) scale(0.1 -0.1)">
       <defs>
        <path id="DejaVuSans-34" d="M 2419 4116 
L 825 1625 
L 2419 1625 
L 2419 4116 
z
M 2253 4666 
L 3047 4666 
L 3047 1625 
L 3713 1625 
L 3713 1100 
L 3047 1100 
L 3047 0 
L 2419 0 
L 2419 1100 
L 313 1100 
L 313 1709 
L 2253 4666 
z
" transform="scale(0.015625)"/>
       </defs>
       <use xlink:href="#DejaVuSans-34"/>
       <use xlink:href="#DejaVuSans-30" x="63.623047"/>
      </g>
     </g>
    </g>
    <g id="ytick_4">
     <g id="line2d_25">
      <path d="M 42.765865 48.337079 
L 419.45601 48.337079 
" clip-path="url(#p3eabc99ca3)" style="fill: none; stroke: #b0b0b0; stroke-width: 0.8; stroke-linecap: square"/>
     </g>
     <g id="line2d_26">
      <g>
       <use xlink:href="#m1d49eacdd1" x="42.765865" y="48.337079" style="stroke: #000000; stroke-width: 0.8"/>
      </g>
     </g>
     <g id="text_14">
      <!-- 60 -->
      <g transform="translate(23.040865 52.136298) scale(0.1 -0.1)">
       <defs>
        <path id="DejaVuSans-36" d="M 2113 2584 
Q 1688 2584 1439 2293 
Q 1191 2003 1191 1497 
Q 1191 994 1439 701 
Q 1688 409 2113 409 
Q 2538 409 2786 701 
Q 3034 994 3034 1497 
Q 3034 2003 2786 2293 
Q 2538 2584 2113 2584 
z
M 3366 4563 
L 3366 3988 
Q 3128 4100 2886 4159 
Q 2644 4219 2406 4219 
Q 1781 4219 1451 3797 
Q 1122 3375 1075 2522 
Q 1259 2794 1537 2939 
Q 1816 3084 2150 3084 
Q 2853 3084 3261 2657 
Q 3669 2231 3669 1497 
Q 3669 778 3244 343 
Q 2819 -91 2113 -91 
Q 1303 -91 875 529 
Q 447 1150 447 2328 
Q 447 3434 972 4092 
Q 1497 4750 2381 4750 
Q 2619 4750 2861 4703 
Q 3103 4656 3366 4563 
z
" transform="scale(0.015625)"/>
       </defs>
       <use xlink:href="#DejaVuSans-36"/>
       <use xlink:href="#DejaVuSans-30" x="63.623047"/>
      </g>
     </g>
    </g>
    <g id="ytick_5">
     <g id="line2d_27">
      <path d="M 42.765865 27.568269 
L 419.45601 27.568269 
" clip-path="url(#p3eabc99ca3)" style="fill: none; stroke: #b0b0b0; stroke-width: 0.8; stroke-linecap: square"/>
     </g>
     <g id="line2d_28">
      <g>
       <use xlink:href="#m1d49eacdd1" x="42.765865" y="27.568269" style="stroke: #000000; stroke-width: 0.8"/>
      </g>
     </g>
     <g id="text_15">
      <!-- 80 -->
      <g transform="translate(23.040865 31.367488) scale(0.1 -0.1)">
       <defs>
        <path id="DejaVuSans-38" d="M 2034 2216 
Q 1584 2216 1326 1975 
Q 1069 1734 1069 1313 
Q 1069 891 1326 650 
Q 1584 409 2034 409 
Q 2484 409 2743 651 
Q 3003 894 3003 1313 
Q 3003 1734 2745 1975 
Q 2488 2216 2034 2216 
z
M 1403 2484 
Q 997 2584 770 2862 
Q 544 3141 544 3541 
Q 544 4100 942 4425 
Q 1341 4750 2034 4750 
Q 2731 4750 3128 4425 
Q 3525 4100 3525 3541 
Q 3525 3141 3298 2862 
Q 3072 2584 2669 2484 
Q 3125 2378 3379 2068 
Q 3634 1759 3634 1313 
Q 3634 634 3220 271 
Q 2806 -91 2034 -91 
Q 1263 -91 848 271 
Q 434 634 434 1313 
Q 434 1759 690 2068 
Q 947 2378 1403 2484 
z
M 1172 3481 
Q 1172 3119 1398 2916 
Q 1625 2713 2034 2713 
Q 2441 2713 2670 2916 
Q 2900 3119 2900 3481 
Q 2900 3844 2670 4047 
Q 2441 4250 2034 4250 
Q 1625 4250 1398 4047 
Q 1172 3844 1172 3481 
z
" transform="scale(0.015625)"/>
       </defs>
       <use xlink:href="#DejaVuSans-38"/>
       <use xlink:href="#DejaVuSans-30" x="63.623047"/>
      </g>
     </g>
    </g>
    <g id="ytick_6">
     <g id="line2d_29">
      <path d="M 42.765865 6.799459 
L 419.45601 6.799459 
" clip-path="url(#p3eabc99ca3)" style="fill: none; stroke: #b0b0b0; stroke-width: 0.8; stroke-linecap: square"/>
     </g>
     <g id="line2d_30">
      <g>
       <use xlink:href="#m1d49eacdd1" x="42.765865" y="6.799459" style="stroke: #000000; stroke-width: 0.8"/>
      </g>
     </g>
     <g id="text_16">
      <!-- 100 -->
      <g transform="translate(16.678365 10.598678) scale(0.1 -0.1)">
       <use xlink:href="#DejaVuSans-31"/>
       <use xlink:href="#DejaVuSans-30" x="63.623047"/>
       <use xlink:href="#DejaVuSans-30" x="127.246094"/>
      </g>
     </g>
    </g>
    <g id="text_17">
     <!-- $Nu$ -->
     <g transform="translate(10.598678 65.671484) rotate(-90) scale(0.1 -0.1)">
      <defs>
       <path id="DejaVuSans-Oblique-4e" d="M 1081 4666 
L 1931 4666 
L 3219 666 
L 4000 4666 
L 4616 4666 
L 3706 0 
L 2853 0 
L 1569 4025 
L 788 0 
L 172 0 
L 1081 4666 
z
" transform="scale(0.015625)"/>
       <path id="DejaVuSans-Oblique-75" d="M 428 1388 
L 838 3500 
L 1416 3500 
L 1006 1409 
Q 975 1256 961 1147 
Q 947 1038 947 966 
Q 947 700 1109 554 
Q 1272 409 1569 409 
Q 2031 409 2368 721 
Q 2706 1034 2809 1563 
L 3194 3500 
L 3769 3500 
L 3091 0 
L 2516 0 
L 2631 550 
Q 2388 244 2052 76 
Q 1716 -91 1338 -91 
Q 878 -91 622 161 
Q 366 413 366 863 
Q 366 956 381 1097 
Q 397 1238 428 1388 
z
" transform="scale(0.015625)"/>
      </defs>
      <use xlink:href="#DejaVuSans-Oblique-4e" transform="translate(0 0.09375)"/>
      <use xlink:href="#DejaVuSans-Oblique-75" transform="translate(74.804688 0.09375)"/>
     </g>
    </g>
   </g>
   <g id="line2d_31">
    <path d="M 42.765865 109.604878 
L 57.833471 109.491117 
L 58.586851 109.337564 
L 58.963541 109.180365 
L 59.340231 108.897974 
L 59.716922 108.32772 
L 60.093612 107.143099 
L 60.470302 104.754368 
L 60.846992 100.470684 
L 61.223682 94.067867 
L 61.600372 85.008218 
L 61.977062 72.393308 
L 62.730443 35.23549 
L 63.107133 25.270074 
L 63.483823 21.782819 
L 63.860513 21.33184 
L 64.237203 23.052194 
L 65.367274 34.152987 
L 66.874034 54.015738 
L 67.250724 56.930251 
L 67.627415 58.809229 
L 68.004105 59.823152 
L 68.380795 60.051476 
L 68.757485 58.484097 
L 69.887555 47.249595 
L 70.264246 45.66047 
L 71.017626 34.930515 
L 71.394316 34.366689 
L 71.771006 36.039657 
L 72.524386 42.339903 
L 72.901077 45.37238 
L 73.654457 48.645814 
L 75.161217 54.336259 
L 75.537908 55.648553 
L 76.291288 57.253444 
L 77.798048 60.54418 
L 79.304809 64.056561 
L 80.058189 65.286465 
L 80.81157 66.105617 
L 81.56495 66.62331 
L 82.31833 66.95263 
L 82.69502 66.995783 
L 83.448401 66.782497 
L 84.201781 66.576371 
L 84.955161 66.583119 
L 86.085232 66.845079 
L 87.591992 67.462639 
L 90.228823 68.738287 
L 93.995725 71.0573 
L 95.125795 71.321388 
L 98.139316 71.699693 
L 100.399457 72.290513 
L 105.673119 74.083797 
L 107.93326 74.550578 
L 109.440021 74.674003 
L 113.583612 74.74194 
L 119.233964 76.011541 
L 122.624176 76.926097 
L 127.521148 78.35876 
L 129.027908 78.519189 
L 130.157979 78.417099 
L 133.54819 77.862562 
L 135.054951 78.080149 
L 138.821852 78.734105 
L 140.328613 78.702546 
L 141.835373 78.474325 
L 143.342134 77.995826 
L 145.602275 77.015353 
L 147.109035 76.386473 
L 147.862415 76.285168 
L 148.615796 76.381538 
L 151.629317 77.132338 
L 152.759387 77.101998 
L 153.512768 76.73275 
L 156.902979 73.279804 
L 157.656359 73.029273 
L 158.40974 73.097904 
L 159.16312 73.39254 
L 160.66988 74.384245 
L 161.423261 74.820661 
L 162.930021 75.228169 
L 164.436782 75.344047 
L 166.320233 75.526821 
L 167.073613 75.56133 
L 168.957064 75.392123 
L 169.710444 75.736452 
L 174.230726 78.345943 
L 174.984106 78.517654 
L 177.244247 78.545584 
L 178.374317 78.368068 
L 179.504388 77.847771 
L 180.257768 77.217432 
L 181.011148 76.141763 
L 181.764529 74.993862 
L 182.517909 74.410853 
L 184.40136 73.682506 
L 185.15474 73.398193 
L 185.90812 73.503389 
L 187.791571 74.24971 
L 190.051712 75.65366 
L 191.181782 75.857272 
L 192.311853 75.844573 
L 194.948684 75.459774 
L 195.702064 74.927696 
L 196.455444 74.440423 
L 197.208824 74.408556 
L 199.092275 74.871317 
L 202.859177 75.448085 
L 204.742627 76.216602 
L 206.626078 76.599127 
L 207.379458 76.441454 
L 208.132839 76.185099 
L 208.886219 76.145021 
L 210.016289 76.126225 
L 211.14636 76.075859 
L 213.029811 76.288174 
L 214.159881 76.202929 
L 215.289951 76.385903 
L 219.056853 77.206345 
L 223.953825 77.796033 
L 225.083895 77.709702 
L 226.967346 77.368226 
L 229.604177 77.42847 
L 230.357557 77.122903 
L 231.487628 76.599307 
L 232.241008 76.496906 
L 232.994388 76.665644 
L 234.501149 77.40375 
L 235.254529 77.649089 
L 236.007909 77.470876 
L 237.51467 76.939669 
L 238.26805 76.919926 
L 239.021431 77.062253 
L 240.904881 77.69436 
L 241.281571 77.522526 
L 242.788332 76.36383 
L 244.671783 75.497027 
L 245.425163 75.278698 
L 246.555233 75.206279 
L 247.685304 75.318797 
L 249.568755 75.97536 
L 250.322135 75.724903 
L 251.828895 74.77089 
L 252.582276 74.748618 
L 253.712346 75.083724 
L 254.842417 75.392108 
L 255.595797 75.432171 
L 256.349177 75.737062 
L 257.479248 76.284197 
L 259.739389 76.922831 
L 261.246149 77.118905 
L 263.88298 77.1306 
L 265.766431 77.663064 
L 266.896501 77.997306 
L 268.779952 78.805439 
L 269.533332 78.867981 
L 271.793473 78.642796 
L 274.430304 78.275904 
L 275.560375 78.020441 
L 277.067135 77.953662 
L 278.950586 77.904831 
L 279.703966 77.579085 
L 281.587417 76.513614 
L 282.340797 76.277778 
L 283.094178 76.28643 
L 283.847558 76.512665 
L 284.977628 77.133214 
L 286.861079 78.301195 
L 291.004671 79.636976 
L 292.511431 79.918986 
L 293.264811 79.915792 
L 294.018192 79.626502 
L 294.771572 78.974516 
L 296.655023 76.934818 
L 298.161783 76.055792 
L 298.915164 75.807077 
L 300.421924 75.458787 
L 301.175304 75.187122 
L 301.928685 75.230568 
L 302.682065 75.53048 
L 304.188826 76.299035 
L 305.318896 76.526837 
L 306.448967 76.716388 
L 307.579037 77.176715 
L 309.462488 77.961229 
L 310.215868 78.053136 
L 311.722629 77.855006 
L 312.476009 77.661773 
L 313.229389 77.260213 
L 313.982769 76.70027 
L 315.11284 75.72168 
L 315.86622 75.451351 
L 316.996291 75.573537 
L 318.503051 75.918095 
L 319.633122 76.450516 
L 320.763192 76.929495 
L 324.153403 77.771829 
L 325.660164 77.814493 
L 328.296995 77.510622 
L 330.180446 77.332748 
L 331.310516 77.429741 
L 332.440587 77.61614 
L 333.193967 77.393947 
L 334.700727 76.670284 
L 335.830798 76.347138 
L 336.584178 76.355341 
L 337.714249 76.684787 
L 339.597699 77.469303 
L 340.72777 77.579575 
L 342.987911 77.441708 
L 343.741291 77.10368 
L 347.131502 74.28132 
L 347.884882 73.713645 
L 348.638263 73.671712 
L 349.391643 73.96258 
L 350.898404 75.044795 
L 353.158544 76.477581 
L 354.288615 76.981486 
L 355.418685 77.04759 
L 356.548756 76.888886 
L 358.055516 76.437439 
L 359.185587 76.559575 
L 359.938967 76.604498 
L 362.199108 76.436708 
L 363.329178 76.788256 
L 365.589319 77.638056 
L 366.71939 77.88214 
L 367.47277 77.905644 
L 368.22615 77.707323 
L 369.356221 77.259323 
L 370.486291 77.179176 
L 372.746432 77.071864 
L 373.499812 76.704736 
L 378.396784 72.405034 
L 378.773474 72.319744 
L 379.526855 72.56621 
L 380.280235 73.093999 
L 381.786996 74.473965 
L 382.917066 75.446265 
L 383.670446 75.917376 
L 384.423827 76.156545 
L 385.177207 76.085017 
L 385.930587 75.997285 
L 388.190728 76.014178 
L 389.320798 75.70874 
L 390.827559 75.176574 
L 391.957629 75.182006 
L 392.71101 75.359956 
L 394.21777 75.844811 
L 394.59446 75.678315 
L 395.724531 74.81409 
L 396.477911 74.459702 
L 396.854601 74.421842 
L 397.231291 74.509732 
L 397.984672 74.982935 
L 400.244813 76.458769 
L 400.998193 76.770081 
L 401.751573 76.842219 
L 402.881644 76.812631 
L 404.011714 77.123471 
L 405.518475 77.576129 
L 407.401925 77.899008 
L 409.285376 78.350225 
L 410.038756 78.232177 
L 411.168827 77.699729 
L 413.428968 76.298202 
L 414.182348 76.138526 
L 415.689109 75.931427 
L 417.195869 75.407444 
L 417.949249 75.322219 
L 419.07932 75.535012 
L 419.45601 75.499623 
L 419.45601 75.499623 
" clip-path="url(#p3eabc99ca3)" style="fill: none; stroke: #1f77b4; stroke-width: 1.5; stroke-linecap: square"/>
   </g>
   <g id="line2d_32">
    <path d="M 42.765865 109.603725 
L 57.080091 109.553906 
L 58.210161 109.435285 
L 58.963541 109.175375 
L 59.340231 108.87668 
L 59.716922 108.253228 
L 60.093612 106.948245 
L 60.470302 104.399309 
L 60.846992 99.981432 
L 61.223682 93.397565 
L 61.600372 84.096896 
L 61.977062 71.426881 
L 62.730443 34.72908 
L 63.107133 25.108806 
L 63.483823 20.472738 
L 63.860513 19.759204 
L 64.990584 29.414533 
L 66.874034 54.294365 
L 67.250724 57.162332 
L 67.627415 59.023957 
L 68.004105 59.966567 
L 68.380795 60.164801 
L 68.757485 57.732942 
L 69.510865 50.085512 
L 70.264246 45.555928 
L 70.640936 45.063811 
L 71.017626 44.227106 
L 71.394316 44.073098 
L 71.771006 44.147611 
L 72.147696 44.902778 
L 72.524386 46.513623 
L 72.901077 47.633603 
L 73.277767 48.234389 
L 74.031147 50.398787 
L 75.161217 53.802594 
L 77.421358 59.987183 
L 78.551429 61.89788 
L 81.56495 66.312017 
L 82.69502 67.439644 
L 85.708542 69.973069 
L 86.461922 70.400631 
L 87.215302 70.647 
L 87.968682 70.700559 
L 89.098753 70.49348 
L 91.358894 69.903329 
L 92.488964 69.877997 
L 93.242344 70.048655 
L 94.749105 70.702086 
L 97.762626 72.212323 
L 103.036288 74.959185 
L 104.166359 75.213216 
L 105.673119 75.311003 
L 107.55657 75.406291 
L 109.440021 75.808085 
L 112.076852 76.354725 
L 122.247486 77.690168 
L 124.884317 78.044034 
L 128.274528 78.458716 
L 131.664739 78.821721 
L 133.1715 78.778795 
L 136.185021 78.199232 
L 137.691782 77.820223 
L 140.705303 76.755504 
L 141.835373 76.744478 
L 144.095514 76.953155 
L 145.225584 76.684144 
L 146.732345 76.060234 
L 147.862415 75.36083 
L 148.615796 75.153505 
L 149.745866 75.113287 
L 150.875937 75.12442 
L 152.382697 74.950217 
L 153.136077 75.176412 
L 154.642838 75.847826 
L 155.772909 75.999836 
L 156.526289 75.948053 
L 157.656359 75.537335 
L 158.40974 75.306119 
L 159.16312 75.450652 
L 160.66988 76.09958 
L 161.799951 76.128474 
L 162.930021 75.931203 
L 163.683402 75.547503 
L 164.060092 75.139989 
L 164.813472 73.608319 
L 165.566852 72.240637 
L 166.320233 71.485143 
L 167.073613 71.247234 
L 168.203683 71.417537 
L 168.957064 71.756006 
L 169.710444 72.455554 
L 172.723965 75.625847 
L 173.854035 76.435707 
L 174.984106 77.010098 
L 176.867557 77.745788 
L 177.620937 77.785183 
L 180.257768 77.383563 
L 182.894599 76.680252 
L 186.6615 76.297606 
L 190.051712 75.339159 
L 191.181782 75.307477 
L 192.311853 75.542368 
L 193.818613 76.099183 
L 195.325374 76.683021 
L 198.715585 77.038394 
L 199.845655 76.932298 
L 201.352416 76.989007 
L 202.859177 77.339227 
L 206.626078 78.243423 
L 208.509529 78.198894 
L 210.016289 78.083809 
L 211.14636 77.769141 
L 212.27643 77.131904 
L 213.406501 76.40205 
L 214.159881 76.119626 
L 214.913261 76.027709 
L 216.043332 76.150715 
L 217.926782 76.699717 
L 220.563613 77.480027 
L 222.447064 77.761317 
L 223.953825 77.762088 
L 225.083895 77.578048 
L 225.837275 77.185392 
L 226.590656 76.350263 
L 227.344036 75.477861 
L 228.474106 74.531788 
L 229.227487 74.081784 
L 230.357557 73.720361 
L 231.110938 73.61452 
L 231.864318 73.688029 
L 232.617698 73.990464 
L 234.877839 75.303653 
L 235.631219 75.435175 
L 236.76129 75.342487 
L 237.51467 75.31246 
L 238.26805 75.565339 
L 239.774811 76.32493 
L 240.151501 76.277913 
L 242.034952 75.41716 
L 243.541712 75.389462 
L 244.671783 75.569086 
L 245.801853 75.715606 
L 246.931924 75.461485 
L 247.685304 75.012293 
L 248.438684 74.561313 
L 249.192064 74.469761 
L 250.322135 74.664718 
L 251.452205 74.9956 
L 252.205586 75.456996 
L 255.219107 77.907143 
L 256.349177 78.405306 
L 257.855938 78.756501 
L 258.986008 78.797943 
L 260.492769 78.578599 
L 263.1296 78.071371 
L 265.013051 77.794137 
L 265.766431 77.486174 
L 267.273191 76.577283 
L 268.026572 76.419356 
L 268.779952 76.439354 
L 270.286713 76.680944 
L 272.170163 76.551936 
L 272.923544 76.565794 
L 273.676924 76.398111 
L 275.183684 75.909046 
L 277.067135 75.502743 
L 277.820515 75.152354 
L 280.080656 73.807825 
L 280.834037 73.632395 
L 281.587417 73.826466 
L 282.717487 74.283046 
L 283.847558 74.375545 
L 284.977628 75.063189 
L 286.484389 75.858724 
L 287.237769 76.147562 
L 287.991149 76.194124 
L 288.74453 76.185805 
L 289.8746 76.441219 
L 293.264811 77.460751 
L 294.018192 77.405938 
L 294.771572 76.965756 
L 295.901642 76.110607 
L 296.655023 75.730657 
L 297.408403 75.551154 
L 298.161783 75.702281 
L 300.045234 76.434909 
L 301.928685 76.036281 
L 302.682065 76.214148 
L 303.812135 76.740273 
L 305.695586 77.814971 
L 306.448967 77.99981 
L 307.202347 77.929181 
L 309.462488 77.325348 
L 310.969248 77.052442 
L 312.476009 76.693475 
L 313.606079 76.768434 
L 316.996291 77.279925 
L 319.256431 77.346825 
L 320.009812 76.812218 
L 320.763192 76.295193 
L 321.893262 75.928422 
L 322.646643 75.830042 
L 323.400023 75.924295 
L 324.530093 76.235743 
L 324.906784 76.197352 
L 325.283474 75.889904 
L 326.036854 74.817191 
L 326.413544 74.499245 
L 327.166924 74.264415 
L 327.920305 74.333615 
L 329.050375 74.735505 
L 330.557136 75.537433 
L 331.687206 76.284913 
L 332.063896 76.39068 
L 333.193967 76.1805 
L 334.324037 76.112782 
L 335.830798 76.252963 
L 338.090939 76.569615 
L 339.221009 76.615634 
L 340.35108 76.942617 
L 341.10446 77.200406 
L 341.85784 77.234091 
L 344.117981 77.048116 
L 345.624742 77.072083 
L 347.508192 76.863238 
L 349.014953 76.808632 
L 350.145023 77.030449 
L 350.898404 77.382506 
L 352.405164 78.460772 
L 353.535235 79.160303 
L 354.288615 79.365132 
L 355.041995 79.227828 
L 355.795375 78.800832 
L 357.302136 77.800102 
L 358.432207 77.145459 
L 359.562277 76.381138 
L 360.692347 75.834967 
L 361.822418 75.537135 
L 363.329178 75.391189 
L 365.212629 75.421493 
L 366.3427 74.850332 
L 367.84946 74.207975 
L 369.356221 73.70646 
L 370.486291 73.656705 
L 371.616362 73.824026 
L 372.746432 74.385557 
L 373.876502 74.973925 
L 376.890024 75.814168 
L 379.526855 76.813795 
L 382.163686 77.46812 
L 382.917066 77.354626 
L 384.423827 76.902521 
L 385.553897 76.916206 
L 387.060658 77.098736 
L 387.814038 76.971063 
L 388.944108 76.756423 
L 389.697489 76.644765 
L 391.204249 76.046214 
L 391.580939 75.776463 
L 392.71101 74.463979 
L 393.46439 74.156511 
L 394.21777 74.121854 
L 394.971151 74.298854 
L 397.607982 75.357024 
L 398.738052 75.119999 
L 399.868122 75.028259 
L 403.635024 75.028635 
L 405.141784 74.602352 
L 405.895165 74.649823 
L 406.648545 74.433047 
L 407.401925 74.196851 
L 408.155306 74.23553 
L 409.285376 74.796895 
L 410.415447 75.470214 
L 412.298897 76.974572 
L 413.052278 77.144415 
L 413.805658 77.314832 
L 415.689109 78.335969 
L 416.065799 78.33921 
L 416.442489 78.194131 
L 417.949249 77.148337 
L 419.07932 77.003711 
L 419.45601 76.996225 
L 419.45601 76.996225 
" clip-path="url(#p3eabc99ca3)" style="fill: none; stroke: #ff7f0e; stroke-width: 1.5; stroke-linecap: square"/>
   </g>
   <g id="line2d_33">
    <path d="M 42.765865 107.57725 
L 43.142555 109.594968 
L 48.416217 109.604634 
L 54.443259 109.501154 
L 55.57333 109.312187 
L 56.32671 109.026649 
L 57.080091 108.477901 
L 57.833471 107.433097 
L 58.210161 106.624048 
L 58.586851 105.366292 
L 58.963541 103.543561 
L 59.340231 100.644209 
L 59.716922 95.774362 
L 60.093612 88.027205 
L 60.470302 76.185848 
L 60.846992 58.534269 
L 61.223682 33.551796 
L 61.587672 -1 
M 74.502613 -1 
L 75.161217 14.109966 
L 75.914598 26.540038 
L 76.667978 35.833908 
L 77.421358 41.801863 
L 78.551429 48.347286 
L 79.681499 53.124878 
L 80.43488 55.40178 
L 81.18826 57.164682 
L 81.94164 58.493096 
L 82.69502 59.392213 
L 83.825091 60.571138 
L 85.331851 62.376803 
L 86.461922 63.351827 
L 87.968682 64.272129 
L 90.228823 65.292274 
L 93.242344 67.40282 
L 94.749105 68.554737 
L 97.385936 69.893547 
L 99.646077 71.343344 
L 100.776147 72.136299 
L 102.282908 73.283248 
L 103.412978 73.732923 
L 105.296429 74.143485 
L 107.93326 74.691942 
L 109.816711 75.237659 
L 111.323471 75.418952 
L 113.206922 75.506407 
L 114.713683 75.900384 
L 119.233964 77.242189 
L 121.494105 77.799143 
L 124.130936 78.670792 
L 127.521148 79.454786 
L 128.651218 79.675554 
L 129.781288 79.614519 
L 133.54819 79.061587 
L 135.054951 79.119275 
L 136.185021 79.13268 
L 138.445162 78.830579 
L 140.328613 78.471935 
L 142.212063 77.960883 
L 144.848894 77.572653 
L 147.862415 75.778713 
L 148.615796 75.754485 
L 149.369176 75.889126 
L 150.499246 76.191839 
L 152.759387 76.070615 
L 153.512768 76.120977 
L 154.266148 75.778575 
L 156.526289 74.229809 
L 157.279669 73.859592 
L 158.033049 73.719542 
L 158.40974 73.819226 
L 159.16312 74.414702 
L 160.29319 75.423185 
L 161.046571 75.693862 
L 163.683402 75.819068 
L 164.060092 75.571942 
L 165.566852 73.586382 
L 166.320233 73.149615 
L 167.073613 73.089121 
L 167.826993 73.255321 
L 168.203683 73.229765 
L 168.580373 73.406465 
L 169.333754 74.17387 
L 172.723965 78.026619 
L 173.854035 78.723346 
L 174.607416 78.968016 
L 176.867557 79.23712 
L 177.620937 79.114264 
L 178.751007 78.566351 
L 179.504388 78.098091 
L 180.257768 77.134579 
L 181.387838 75.495563 
L 182.141219 74.93037 
L 182.894599 74.88291 
L 183.647979 74.869387 
L 184.40136 74.757164 
L 185.53143 74.941518 
L 186.28481 75.057222 
L 187.038191 75.10041 
L 187.791571 75.362522 
L 188.921641 75.891541 
L 189.675022 75.937448 
L 191.181782 75.922385 
L 193.441923 76.016745 
L 194.571993 76.271954 
L 195.325374 76.157493 
L 196.078754 75.934876 
L 196.832134 76.003812 
L 197.585515 76.204107 
L 197.962205 76.19486 
L 198.715585 75.96831 
L 199.468965 76.04104 
L 201.729106 76.872323 
L 202.859177 76.951519 
L 204.365937 77.127413 
L 205.119317 77.302903 
L 206.626078 77.834817 
L 207.379458 77.785551 
L 208.509529 77.663621 
L 209.262909 77.65465 
L 212.27643 76.964519 
L 213.406501 76.375115 
L 214.159881 76.287263 
L 215.289951 76.46689 
L 217.173402 77.132965 
L 219.433543 78.109953 
L 220.940304 78.394049 
L 223.577135 78.51746 
L 224.707205 78.219798 
L 225.460585 77.858068 
L 226.213966 77.20588 
L 226.967346 76.537298 
L 227.720726 76.163219 
L 228.474106 75.935289 
L 229.227487 75.835833 
L 230.357557 75.282414 
L 231.110938 74.958739 
L 231.864318 75.000056 
L 232.617698 75.47082 
L 233.747769 76.421606 
L 234.501149 76.818245 
L 235.254529 76.948223 
L 236.007909 76.84855 
L 237.51467 76.355987 
L 238.26805 76.337745 
L 239.021431 76.680486 
L 239.774811 76.951984 
L 240.528191 76.795413 
L 242.034952 76.183426 
L 243.165022 75.63124 
L 244.671783 75.510805 
L 246.555233 75.321089 
L 247.308614 75.090499 
L 248.061994 74.869039 
L 249.192064 74.936008 
L 250.322135 75.1329 
L 251.452205 74.898013 
L 252.205586 75.198656 
L 252.958966 75.810469 
L 254.089036 76.974464 
L 254.842417 77.409717 
L 255.972487 77.86097 
L 257.102558 78.42497 
L 258.609318 78.788197 
L 259.739389 78.752378 
L 260.869459 78.489986 
L 262.37622 77.950577 
L 263.1296 77.856488 
L 263.88298 78.002222 
L 264.63636 78.208029 
L 265.389741 78.189325 
L 266.143121 77.935479 
L 266.896501 77.672878 
L 267.649882 77.776996 
L 269.156642 78.303601 
L 269.910022 78.367474 
L 272.546853 78.058062 
L 273.300234 77.818342 
L 274.806994 77.0404 
L 276.690445 76.772547 
L 277.820515 76.793509 
L 278.573896 76.592027 
L 279.327276 76.13585 
L 280.457346 75.216141 
L 281.210727 75.033707 
L 282.717487 75.10297 
L 283.470868 75.307786 
L 284.224248 75.884644 
L 286.861079 78.244052 
L 287.614459 78.396814 
L 288.74453 78.55118 
L 291.004671 79.263842 
L 292.134741 79.397269 
L 292.888121 79.318117 
L 293.641502 78.988401 
L 294.394882 78.106099 
L 295.901642 76.157259 
L 296.655023 75.605839 
L 298.161783 75.156193 
L 298.538473 75.14002 
L 299.668544 75.476459 
L 300.421924 75.204057 
L 300.798614 75.030435 
L 301.175304 74.979949 
L 301.551995 75.080055 
L 302.305375 75.650091 
L 304.188826 77.471169 
L 304.942206 77.974486 
L 306.072276 78.410598 
L 306.825657 78.521313 
L 310.215868 78.176619 
L 311.345938 77.694429 
L 312.852699 77.373538 
L 313.606079 77.0136 
L 315.11284 76.061821 
L 315.86622 76.10671 
L 318.879741 76.684259 
L 319.633122 76.54342 
L 320.763192 76.243819 
L 321.516572 76.315968 
L 322.269953 76.828427 
L 323.023333 77.306332 
L 324.530093 77.885086 
L 324.906784 77.788759 
L 326.036854 76.613838 
L 326.790234 76.339993 
L 327.920305 76.186283 
L 329.050375 76.266296 
L 330.180446 76.564411 
L 332.063896 77.341861 
L 334.324037 76.734717 
L 335.454108 76.527657 
L 336.207488 76.639035 
L 337.337558 77.080684 
L 338.467629 77.476345 
L 341.85784 77.904834 
L 342.987911 77.579934 
L 343.741291 77.251281 
L 344.871361 76.625706 
L 346.001432 76.16114 
L 347.884882 74.795151 
L 348.638263 74.671225 
L 349.014953 74.797755 
L 349.768333 75.380143 
L 351.651784 77.346001 
L 353.158544 78.984839 
L 353.911925 79.424597 
L 354.665305 79.442541 
L 355.418685 79.041576 
L 357.678826 77.349971 
L 360.692347 75.78022 
L 362.199108 75.858274 
L 363.329178 76.117063 
L 364.835939 76.657896 
L 365.589319 76.639338 
L 366.71939 76.397023 
L 368.22615 75.929833 
L 368.979531 75.684001 
L 370.862981 75.679003 
L 371.616362 75.8594 
L 372.746432 76.309889 
L 373.123122 76.342563 
L 373.876502 76.094617 
L 375.759953 75.252831 
L 376.513333 74.897897 
L 378.396784 74.370153 
L 379.150164 74.45046 
L 379.903545 74.970106 
L 382.163686 77.103622 
L 382.540376 77.256235 
L 383.293756 77.236118 
L 384.423827 76.92099 
L 385.177207 76.752569 
L 385.930587 76.942116 
L 386.683967 77.160612 
L 387.437348 76.999784 
L 389.320798 76.139788 
L 390.074179 75.556641 
L 390.827559 75.293791 
L 391.204249 75.197386 
L 392.33432 74.472871 
L 392.71101 74.448803 
L 394.21777 74.862821 
L 395.724531 74.49613 
L 396.101221 74.49892 
L 396.854601 74.906778 
L 397.984672 75.646532 
L 399.114742 76.138313 
L 400.621503 76.80871 
L 401.374883 77.007312 
L 402.128263 76.930629 
L 404.388404 76.498488 
L 405.141784 76.581849 
L 406.271855 76.8534 
L 407.778616 77.197853 
L 408.908686 77.487666 
L 409.662066 77.491705 
L 410.415447 77.414588 
L 411.922207 77.507405 
L 412.675587 77.39329 
L 413.428968 77.189287 
L 414.182348 77.353545 
L 415.312418 77.696841 
L 416.065799 77.439024 
L 416.819179 76.830912 
L 417.572559 76.279811 
L 418.70263 76.025317 
L 419.45601 75.853359 
L 419.45601 75.853359 
" clip-path="url(#p3eabc99ca3)" style="fill: none; stroke: #2ca02c; stroke-width: 1.5; stroke-linecap: square"/>
   </g>
   <g id="line2d_34">
    <path d="M 42.765865 109.604944 
L 51.429738 109.518056 
L 52.559809 109.353424 
L 53.313189 109.094699 
L 54.066569 108.57096 
L 54.443259 108.133773 
L 54.81995 107.512645 
L 55.19664 106.63092 
L 55.57333 105.380688 
L 55.95002 103.61072 
L 56.32671 101.110477 
L 56.7034 97.589719 
L 57.080091 92.654413 
L 57.456781 85.782727 
L 58.210161 64.089949 
L 58.963541 25.524149 
L 59.350389 -1 
M 76.376209 -1 
L 77.044668 18.672252 
L 77.798048 35.411331 
L 78.551429 48.054881 
L 79.304809 57.311802 
L 80.058189 63.868804 
L 80.81157 68.133289 
L 81.56495 70.936971 
L 82.31833 72.926648 
L 83.071711 74.3812 
L 87.968682 82.095021 
L 92.112274 90.196977 
L 93.242344 91.750621 
L 94.372415 92.831728 
L 95.502485 93.563628 
L 97.009246 94.24228 
L 98.516006 94.64935 
L 100.776147 94.925735 
L 102.659598 95.012355 
L 104.543049 95.00065 
L 109.816711 95.385492 
L 111.700162 95.121622 
L 114.336993 94.466347 
L 116.973824 93.850363 
L 118.480584 93.756144 
L 121.494105 93.702269 
L 123.377556 93.364812 
L 127.521148 92.393584 
L 129.404598 91.663983 
L 131.288049 90.646553 
L 136.185021 87.427693 
L 138.445162 85.358129 
L 139.575232 84.123872 
L 141.081993 82.242348 
L 142.212063 81.216778 
L 143.342134 80.570561 
L 145.225584 79.763476 
L 145.978965 79.226127 
L 148.615796 76.678196 
L 150.875937 75.251938 
L 152.006007 74.360967 
L 152.759387 73.357524 
L 153.889458 71.636444 
L 154.642838 70.899916 
L 156.149599 69.895181 
L 156.902979 69.456271 
L 157.279669 69.325369 
L 157.656359 69.329401 
L 158.033049 69.548674 
L 159.9165 71.307436 
L 160.66988 71.403941 
L 161.423261 71.54021 
L 162.553331 72.049816 
L 162.930021 72.06689 
L 163.306711 71.814634 
L 164.436782 70.127542 
L 164.813472 70.169907 
L 165.190162 70.550914 
L 167.073613 73.281497 
L 167.826993 74.045453 
L 168.957064 75.92939 
L 170.463824 78.246104 
L 171.593895 79.463634 
L 172.347275 79.967971 
L 173.477345 80.409758 
L 174.984106 80.984935 
L 175.737486 81.346231 
L 176.490866 81.443289 
L 177.244247 81.224227 
L 177.997627 80.780255 
L 178.751007 79.998788 
L 179.504388 78.825613 
L 180.634458 76.929242 
L 181.387838 76.132512 
L 181.764529 75.905014 
L 182.141219 75.833675 
L 185.53143 76.296966 
L 187.038191 75.975243 
L 188.544951 75.842704 
L 190.051712 75.436221 
L 191.558472 75.217713 
L 192.688543 74.94074 
L 193.441923 75.148523 
L 194.571993 75.532837 
L 195.325374 75.814891 
L 197.208824 77.113599 
L 198.338895 77.186933 
L 199.845655 77.679926 
L 200.599036 77.66346 
L 201.352416 77.316553 
L 202.482486 76.732585 
L 203.612557 76.424233 
L 203.989247 76.529133 
L 204.742627 77.125462 
L 205.872698 78.210631 
L 208.132839 79.746806 
L 208.886219 80.052694 
L 209.639599 80.067678 
L 210.76967 79.75815 
L 213.029811 79.052149 
L 214.536571 79.463385 
L 215.666642 79.752036 
L 217.550092 79.767518 
L 218.680163 79.660442 
L 223.953825 78.307218 
L 224.707205 77.778358 
L 225.460585 76.830349 
L 226.213966 75.855092 
L 226.967346 75.381215 
L 227.720726 74.916289 
L 228.850797 74.011267 
L 229.604177 73.678064 
L 230.734247 73.496338 
L 232.994388 73.290269 
L 233.747769 72.869142 
L 236.007909 71.297773 
L 236.76129 71.396589 
L 238.64474 72.092526 
L 239.398121 71.868549 
L 240.904881 71.136014 
L 241.281571 71.05575 
L 242.034952 71.260657 
L 243.165022 71.833525 
L 245.048473 72.234214 
L 245.801853 72.695375 
L 246.931924 73.525513 
L 248.438684 74.454784 
L 249.192064 74.495214 
L 250.698825 74.243561 
L 251.452205 74.711528 
L 252.582276 75.85484 
L 253.712346 77.082751 
L 254.465726 77.508496 
L 255.219107 77.862949 
L 258.986008 80.4666 
L 259.739389 80.761155 
L 260.869459 80.908525 
L 261.622839 80.874991 
L 262.75291 80.550843 
L 263.88298 80.075503 
L 265.389741 79.245287 
L 266.143121 79.034467 
L 266.896501 79.009278 
L 267.649882 79.200398 
L 269.156642 79.790437 
L 269.910022 79.752836 
L 271.793473 79.318249 
L 272.546853 78.788718 
L 273.300234 78.165061 
L 274.430304 77.60617 
L 275.183684 77.388138 
L 277.067135 77.067379 
L 277.820515 76.542403 
L 278.950586 75.565699 
L 279.703966 75.404398 
L 280.457346 75.699905 
L 281.587417 76.723115 
L 282.340797 77.385152 
L 283.470868 78.00519 
L 284.600938 78.253432 
L 285.731009 78.591299 
L 287.237769 79.07013 
L 287.991149 79.138181 
L 288.74453 78.993779 
L 289.8746 78.410978 
L 290.62798 77.925199 
L 291.381361 77.239966 
L 292.511431 75.810007 
L 293.264811 74.342297 
L 294.771572 71.079763 
L 295.148262 70.552183 
L 295.524952 70.322474 
L 295.901642 70.39379 
L 297.408403 71.613113 
L 299.291854 73.982644 
L 300.798614 74.690191 
L 301.551995 75.421179 
L 303.058755 77.118694 
L 303.812135 77.630143 
L 308.709107 79.451647 
L 309.085798 79.40235 
L 309.839178 78.953039 
L 313.606079 75.947956 
L 313.982769 75.876843 
L 314.73615 76.172843 
L 316.996291 77.486272 
L 317.749671 77.738225 
L 318.503051 77.786324 
L 319.256431 77.469331 
L 320.009812 77.137467 
L 320.763192 77.048097 
L 321.516572 77.173204 
L 323.400023 77.757287 
L 323.776713 77.630125 
L 324.153403 77.195775 
L 325.283474 74.986187 
L 325.660164 74.870945 
L 326.036854 75.084174 
L 327.166924 76.341591 
L 327.920305 77.080796 
L 328.673685 77.547832 
L 329.803755 77.923722 
L 330.933826 78.064565 
L 331.310516 77.945917 
L 332.440587 77.163232 
L 333.193967 77.043929 
L 333.947347 77.214198 
L 336.584178 78.291378 
L 337.714249 78.700834 
L 338.844319 79.106933 
L 339.221009 79.094418 
L 339.974389 78.707474 
L 340.72777 77.867647 
L 342.61122 75.257575 
L 346.001432 71.381967 
L 346.378122 71.203331 
L 346.754812 71.170836 
L 347.508192 71.54906 
L 348.638263 72.391716 
L 349.391643 73.250079 
L 351.651784 76.082663 
L 352.405164 76.828274 
L 353.158544 77.35666 
L 353.911925 77.634865 
L 355.041995 77.61959 
L 356.172066 77.72756 
L 357.302136 77.845989 
L 358.055516 77.624844 
L 358.808897 76.981926 
L 359.562277 76.349988 
L 359.938967 76.242675 
L 360.315657 76.303028 
L 362.199108 77.197445 
L 364.082559 77.682817 
L 365.966009 77.78256 
L 367.09608 77.753024 
L 368.22615 77.600452 
L 368.979531 77.837919 
L 371.616362 78.916823 
L 372.369742 78.975256 
L 373.123122 78.621261 
L 374.253193 77.813303 
L 376.136643 75.987558 
L 376.890024 75.441511 
L 377.643404 75.199913 
L 378.020094 75.197642 
L 378.396784 75.343941 
L 379.150164 76.028262 
L 380.656925 77.906753 
L 381.410305 78.393502 
L 382.163686 78.477706 
L 382.917066 78.352279 
L 383.670446 77.905569 
L 384.423827 77.372048 
L 384.800517 77.263728 
L 386.307277 77.227484 
L 387.060658 77.076033 
L 387.814038 77.192331 
L 388.567418 77.356402 
L 389.697489 77.245425 
L 390.450869 77.05673 
L 390.827559 76.864662 
L 391.957629 75.972179 
L 392.33432 76.043455 
L 393.46439 76.606158 
L 393.84108 76.612595 
L 394.971151 76.203915 
L 395.724531 75.777312 
L 396.854601 75.359138 
L 398.361362 74.298338 
L 400.998193 74.079608 
L 401.751573 74.493787 
L 402.881644 75.443676 
L 404.388404 76.271657 
L 405.141784 76.786583 
L 406.271855 77.080489 
L 407.025235 77.759203 
L 408.155306 78.786183 
L 408.908686 79.113182 
L 410.415447 79.230964 
L 411.168827 79.026332 
L 411.922207 78.472012 
L 413.052278 77.247908 
L 413.805658 76.690627 
L 414.559038 75.838147 
L 416.065799 74.02644 
L 416.442489 73.630882 
L 416.819179 73.423515 
L 417.572559 73.399113 
L 417.949249 73.225784 
L 418.32594 72.763085 
L 419.07932 71.594625 
L 419.45601 71.443605 
L 419.45601 71.443605 
" clip-path="url(#p3eabc99ca3)" style="fill: none; stroke: #d62728; stroke-width: 1.5; stroke-linecap: square"/>
   </g>
   <g id="line2d_35">
    <path d="M 42.765865 109.60507 
L 47.662837 109.500867 
L 48.792907 109.306726 
L 49.546288 109.003199 
L 50.299668 108.390584 
L 50.676358 107.879808 
L 51.053048 107.154215 
L 51.429738 106.123554 
L 51.806428 104.659767 
L 52.183119 102.581265 
L 52.559809 99.63079 
L 52.936499 95.444338 
L 53.313189 89.50781 
L 53.689879 81.096975 
L 54.066569 69.195299 
L 54.443259 52.383351 
L 54.81995 28.693729 
L 55.156194 -1 
M 61.494632 -1 
L 61.558914 145 
M 65.437903 145 
L 65.674085 -1 
M 72.830444 -1 
L 74.031147 93.972012 
L 74.784527 134.989433 
L 75.117825 145 
M 76.834625 145 
L 77.421358 135.31817 
L 79.304809 102.396283 
L 80.058189 91.727609 
L 80.81157 83.36986 
L 81.56495 77.488707 
L 82.31833 73.912473 
L 82.69502 72.943325 
L 83.071711 72.522235 
L 83.448401 72.608915 
L 83.825091 73.189697 
L 84.201781 74.168418 
L 84.955161 77.198928 
L 86.085232 83.281441 
L 87.591992 91.275683 
L 88.345373 94.519438 
L 89.098753 97.00716 
L 89.852133 98.763358 
L 90.605513 99.784544 
L 90.982204 100.004895 
L 91.358894 100.039393 
L 91.735584 99.910207 
L 92.488964 99.291442 
L 96.255866 95.233586 
L 97.009246 94.811869 
L 97.762626 94.62121 
L 98.516006 94.620348 
L 99.646077 94.852727 
L 100.776147 95.303669 
L 103.412978 96.462051 
L 105.673119 97.267701 
L 106.80319 97.361917 
L 107.93326 97.16258 
L 109.063331 96.679979 
L 110.570091 95.739271 
L 113.206922 93.997846 
L 114.336993 93.450597 
L 115.467063 93.161021 
L 119.233964 92.719503 
L 121.117415 91.997227 
L 124.884317 90.223288 
L 127.897838 89.234996 
L 129.027908 88.561436 
L 130.157979 87.508827 
L 132.041429 85.230505 
L 136.938401 79.565816 
L 143.342134 72.426305 
L 144.848894 70.492529 
L 145.978965 68.64458 
L 148.239106 64.532714 
L 149.369176 63.113734 
L 150.122556 62.449235 
L 151.252627 61.75647 
L 151.629317 61.603316 
L 152.006007 61.570596 
L 152.382697 61.72448 
L 152.759387 62.083195 
L 153.512768 63.278582 
L 154.642838 65.773394 
L 155.772909 68.799835 
L 157.279669 72.854036 
L 158.40974 75.248637 
L 159.16312 76.342555 
L 159.9165 76.924518 
L 160.66988 77.138678 
L 161.799951 77.303516 
L 162.553331 77.711737 
L 163.306711 78.63562 
L 164.813472 81.236554 
L 165.190162 81.544689 
L 165.566852 81.671405 
L 166.320233 81.562819 
L 167.073613 81.502475 
L 167.826993 81.558293 
L 168.580373 81.292842 
L 169.333754 80.679116 
L 173.477345 76.734866 
L 176.114176 74.846394 
L 176.867557 74.270354 
L 177.620937 74.023197 
L 178.374317 74.050568 
L 179.127697 74.320027 
L 181.764529 75.610646 
L 182.141219 75.597553 
L 182.894599 75.201002 
L 185.90812 72.781173 
L 186.6615 72.382309 
L 189.675022 71.335588 
L 190.428402 71.399546 
L 191.181782 71.673773 
L 191.935162 72.225809 
L 193.441923 73.883475 
L 197.585515 78.460818 
L 198.715585 79.448123 
L 199.845655 80.362877 
L 201.729106 82.377332 
L 202.482486 82.755694 
L 203.235867 82.676467 
L 206.249388 81.692377 
L 208.132839 81.515636 
L 211.14636 81.614083 
L 212.27643 81.81277 
L 213.029811 81.961466 
L 213.783191 81.91878 
L 214.536571 81.61718 
L 215.289951 81.012921 
L 216.420022 79.654168 
L 219.433543 75.827049 
L 220.186923 75.086349 
L 220.940304 74.575531 
L 222.070374 74.149936 
L 223.200444 73.67124 
L 224.330515 72.938379 
L 227.720726 70.26053 
L 229.980867 69.577422 
L 230.734247 68.998266 
L 232.617698 67.23355 
L 232.994388 67.112433 
L 233.371078 67.17269 
L 233.747769 67.452028 
L 234.124459 67.981514 
L 234.877839 69.555124 
L 236.007909 71.912784 
L 236.76129 72.906602 
L 237.51467 73.536364 
L 238.26805 73.842669 
L 239.021431 74.015133 
L 239.774811 74.417121 
L 241.658262 75.739012 
L 243.541712 76.387322 
L 245.425163 77.611039 
L 246.555233 78.027134 
L 247.308614 78.037461 
L 248.061994 77.732607 
L 248.815374 77.342523 
L 249.192064 77.272972 
L 249.568755 77.346016 
L 250.322135 77.917455 
L 251.075515 78.637227 
L 251.828895 79.076019 
L 252.582276 79.234421 
L 253.712346 79.254733 
L 254.465726 79.598749 
L 255.972487 80.915658 
L 257.479248 82.313226 
L 258.232628 82.793851 
L 258.986008 83.012891 
L 259.739389 82.912562 
L 261.246149 82.471385 
L 262.37622 82.247587 
L 263.1296 81.888739 
L 266.143121 79.988885 
L 268.779952 78.927815 
L 270.286713 77.717517 
L 271.793473 76.391314 
L 272.546853 76.033392 
L 273.676924 75.856567 
L 276.690445 76.009638 
L 277.820515 76.409518 
L 278.950586 76.995279 
L 280.080656 77.509285 
L 281.210727 77.662929 
L 282.717487 77.707403 
L 283.470868 77.926874 
L 285.354318 78.699281 
L 286.107699 78.599422 
L 286.484389 78.361467 
L 286.861079 77.987725 
L 287.614459 76.783973 
L 288.74453 74.328766 
L 290.25129 71.021457 
L 291.004671 69.777737 
L 291.758051 69.048039 
L 292.511431 68.783849 
L 293.264811 68.894434 
L 294.018192 69.46825 
L 294.771572 70.430199 
L 295.524952 71.934481 
L 297.031713 75.330701 
L 297.785093 76.509197 
L 298.161783 76.835223 
L 298.915164 77.048526 
L 301.175304 77.155417 
L 301.928685 77.184934 
L 302.682065 76.99148 
L 306.448967 75.386566 
L 308.332417 74.249475 
L 309.085798 74.000815 
L 309.839178 73.995662 
L 310.592558 74.387818 
L 311.345938 75.140999 
L 313.606079 77.640083 
L 314.35946 78.024556 
L 315.11284 78.083668 
L 315.86622 77.844489 
L 317.372981 77.096282 
L 318.503051 76.869228 
L 320.009812 76.546788 
L 321.893262 75.988652 
L 322.646643 76.034592 
L 323.023333 76.215907 
L 323.776713 76.98123 
L 324.530093 78.288634 
L 325.660164 80.207617 
L 326.036854 80.569427 
L 326.413544 80.740175 
L 326.790234 80.760603 
L 327.543615 80.433123 
L 329.050375 79.12428 
L 330.180446 78.19659 
L 330.933826 77.785617 
L 331.687206 77.707202 
L 333.947347 78.218287 
L 334.700727 77.937421 
L 335.454108 77.372294 
L 338.844319 73.721693 
L 340.35108 72.125657 
L 341.10446 71.69297 
L 341.48115 71.670622 
L 341.85784 71.794166 
L 342.61122 72.441662 
L 343.364601 73.558314 
L 345.248051 76.638016 
L 346.378122 78.177879 
L 347.131502 78.862339 
L 347.508192 79.013029 
L 347.884882 79.007389 
L 348.638263 78.683683 
L 350.145023 77.862132 
L 351.275094 77.502419 
L 352.028474 77.473208 
L 353.535235 77.714129 
L 355.041995 78.254536 
L 355.795375 78.493947 
L 356.548756 78.53322 
L 358.055516 78.436985 
L 358.808897 78.698469 
L 359.938967 79.271362 
L 360.692347 79.309688 
L 362.199108 78.923267 
L 362.952488 78.779152 
L 364.459249 78.643828 
L 365.212629 78.351386 
L 366.71939 77.40009 
L 369.732911 75.595352 
L 370.486291 74.839181 
L 371.239671 73.875695 
L 372.746432 71.678839 
L 373.499812 70.997665 
L 374.253193 70.758591 
L 375.006573 70.88744 
L 376.890024 71.542575 
L 377.266714 71.543576 
L 377.643404 71.428633 
L 378.020094 71.189281 
L 380.280235 68.975444 
L 381.033615 68.742403 
L 381.786996 68.75701 
L 382.917066 69.036936 
L 384.423827 69.652448 
L 385.553897 70.370263 
L 386.307277 71.102746 
L 389.697489 74.699402 
L 391.957629 76.970849 
L 395.347841 80.627032 
L 397.231291 82.892072 
L 397.984672 83.356154 
L 398.738052 83.358806 
L 399.868122 82.875227 
L 400.998193 82.392641 
L 402.881644 81.981945 
L 404.388404 81.827907 
L 406.271855 81.621489 
L 407.025235 81.152061 
L 407.778616 80.197962 
L 408.531996 78.747627 
L 410.792137 74.140041 
L 411.922207 72.670439 
L 413.052278 71.247896 
L 413.805658 70.261097 
L 414.559038 69.689012 
L 414.935728 69.633698 
L 415.312418 69.741166 
L 416.065799 70.355066 
L 419.45601 74.19795 
L 419.45601 74.19795 
" clip-path="url(#p3eabc99ca3)" style="fill: none; stroke: #9467bd; stroke-width: 1.5; stroke-linecap: square"/>
   </g>
   <g id="patch_3">
    <path d="M 42.765865 110.64351 
L 42.765865 6.799459 
" style="fill: none; stroke: #000000; stroke-width: 0.8; stroke-linejoin: miter; stroke-linecap: square"/>
   </g>
   <g id="patch_4">
    <path d="M 419.45601 110.64351 
L 419.45601 6.799459 
" style="fill: none; stroke: #000000; stroke-width: 0.8; stroke-linejoin: miter; stroke-linecap: square"/>
   </g>
   <g id="patch_5">
    <path d="M 42.765865 110.64351 
L 419.45601 110.64351 
" style="fill: none; stroke: #000000; stroke-width: 0.8; stroke-linejoin: miter; stroke-linecap: square"/>
   </g>
   <g id="patch_6">
    <path d="M 42.765865 6.799459 
L 419.45601 6.799459 
" style="fill: none; stroke: #000000; stroke-width: 0.8; stroke-linejoin: miter; stroke-linecap: square"/>
   </g>
   <g id="legend_1">
    <g id="patch_7">
     <path d="M 284.95601 61.894771 
L 412.45601 61.894771 
Q 414.45601 61.894771 414.45601 59.894771 
L 414.45601 13.799459 
Q 414.45601 11.799459 412.45601 11.799459 
L 284.95601 11.799459 
Q 282.95601 11.799459 282.95601 13.799459 
L 282.95601 59.894771 
Q 282.95601 61.894771 284.95601 61.894771 
z
" style="fill: #ffffff; opacity: 0.8; stroke: #cccccc; stroke-linejoin: miter"/>
    </g>
    <g id="line2d_36">
     <path d="M 286.95601 19.897896 
L 296.95601 19.897896 
L 306.95601 19.897896 
" style="fill: none; stroke: #1f77b4; stroke-width: 1.5; stroke-linecap: square"/>
    </g>
    <g id="text_18">
     <!-- $Nu_\mathrm{pl}$ -->
     <g transform="translate(314.95601 23.397896) scale(0.1 -0.1)">
      <defs>
       <path id="DejaVuSans-70" d="M 1159 525 
L 1159 -1331 
L 581 -1331 
L 581 3500 
L 1159 3500 
L 1159 2969 
Q 1341 3281 1617 3432 
Q 1894 3584 2278 3584 
Q 2916 3584 3314 3078 
Q 3713 2572 3713 1747 
Q 3713 922 3314 415 
Q 2916 -91 2278 -91 
Q 1894 -91 1617 61 
Q 1341 213 1159 525 
z
M 3116 1747 
Q 3116 2381 2855 2742 
Q 2594 3103 2138 3103 
Q 1681 3103 1420 2742 
Q 1159 2381 1159 1747 
Q 1159 1113 1420 752 
Q 1681 391 2138 391 
Q 2594 391 2855 752 
Q 3116 1113 3116 1747 
z
" transform="scale(0.015625)"/>
       <path id="DejaVuSans-6c" d="M 603 4863 
L 1178 4863 
L 1178 0 
L 603 0 
L 603 4863 
z
" transform="scale(0.015625)"/>
      </defs>
      <use xlink:href="#DejaVuSans-Oblique-4e" transform="translate(0 0.09375)"/>
      <use xlink:href="#DejaVuSans-Oblique-75" transform="translate(74.804688 0.09375)"/>
      <use xlink:href="#DejaVuSans-70" transform="translate(138.183594 -16.3125) scale(0.7)"/>
      <use xlink:href="#DejaVuSans-6c" transform="translate(182.617188 -16.3125) scale(0.7)"/>
     </g>
    </g>
    <g id="line2d_37">
     <path d="M 286.95601 35.596334 
L 296.95601 35.596334 
L 306.95601 35.596334 
" style="fill: none; stroke: #ff7f0e; stroke-width: 1.5; stroke-linecap: square"/>
    </g>
    <g id="text_19">
     <!-- $Nu_\mathrm{pu}$ -->
     <g transform="translate(314.95601 39.096334) scale(0.1 -0.1)">
      <defs>
       <path id="DejaVuSans-75" d="M 544 1381 
L 544 3500 
L 1119 3500 
L 1119 1403 
Q 1119 906 1312 657 
Q 1506 409 1894 409 
Q 2359 409 2629 706 
Q 2900 1003 2900 1516 
L 2900 3500 
L 3475 3500 
L 3475 0 
L 2900 0 
L 2900 538 
Q 2691 219 2414 64 
Q 2138 -91 1772 -91 
Q 1169 -91 856 284 
Q 544 659 544 1381 
z
M 1991 3584 
L 1991 3584 
z
" transform="scale(0.015625)"/>
      </defs>
      <use xlink:href="#DejaVuSans-Oblique-4e" transform="translate(0 0.09375)"/>
      <use xlink:href="#DejaVuSans-Oblique-75" transform="translate(74.804688 0.09375)"/>
      <use xlink:href="#DejaVuSans-70" transform="translate(138.183594 -16.3125) scale(0.7)"/>
      <use xlink:href="#DejaVuSans-75" transform="translate(182.617188 -16.3125) scale(0.7)"/>
     </g>
    </g>
    <g id="line2d_38">
     <path d="M 286.95601 51.294771 
L 296.95601 51.294771 
L 306.95601 51.294771 
" style="fill: none; stroke: #2ca02c; stroke-width: 1.5; stroke-linecap: square"/>
    </g>
    <g id="text_20">
     <!-- $Nu_\chi$ -->
     <g transform="translate(314.95601 54.794771) scale(0.1 -0.1)">
      <defs>
       <path id="DejaVuSans-Oblique-3c7" d="M 1922 -781 
L 1691 416 
L 394 -1334 
L -284 -1334 
L 1553 1141 
L 1269 2613 
Q 1194 3006 713 3006 
L 559 3006 
L 653 3500 
L 872 3494 
Q 1675 3472 1775 2950 
L 2006 1753 
L 3303 3503 
L 3981 3503 
L 2144 1028 
L 2428 -444 
Q 2503 -838 2984 -838 
L 3138 -838 
L 3044 -1331 
L 2825 -1325 
Q 2022 -1303 1922 -781 
z
" transform="scale(0.015625)"/>
      </defs>
      <use xlink:href="#DejaVuSans-Oblique-4e" transform="translate(0 0.09375)"/>
      <use xlink:href="#DejaVuSans-Oblique-75" transform="translate(74.804688 0.09375)"/>
      <use xlink:href="#DejaVuSans-Oblique-3c7" transform="translate(138.183594 -16.3125) scale(0.7)"/>
     </g>
    </g>
    <g id="line2d_39">
     <path d="M 357.95601 19.897896 
L 367.95601 19.897896 
L 377.95601 19.897896 
" style="fill: none; stroke: #d62728; stroke-width: 1.5; stroke-linecap: square"/>
    </g>
    <g id="text_21">
     <!-- $Nu_\varepsilon$ -->
     <g transform="translate(385.95601 23.397896) scale(0.1 -0.1)">
      <defs>
       <path id="DejaVuSans-Oblique-3b5" d="M 1263 1888 
Q 925 1963 778 2166 
Q 669 2309 669 2503 
Q 669 3034 1175 3344 
Q 1575 3588 2188 3588 
Q 2425 3588 2684 3550 
Q 2944 3513 3234 3438 
L 3134 2916 
Q 2847 3006 2606 3047 
Q 2359 3088 2138 3088 
Q 1766 3088 1522 2944 
Q 1228 2772 1228 2522 
Q 1228 2356 1381 2241 
Q 1563 2103 1925 2103 
L 2409 2103 
L 2319 1628 
L 1856 1628 
Q 1425 1628 1172 1469 
Q 828 1253 828 916 
Q 828 703 1013 563 
Q 1244 388 1716 388 
Q 2006 388 2284 444 
Q 2563 503 2806 619 
L 2700 84 
Q 2403 -3 2131 -47 
Q 1859 -91 1609 -91 
Q 866 -91 516 194 
Q 250 413 250 781 
Q 250 1278 600 1584 
Q 859 1813 1263 1888 
z
" transform="scale(0.015625)"/>
      </defs>
      <use xlink:href="#DejaVuSans-Oblique-4e" transform="translate(0 0.09375)"/>
      <use xlink:href="#DejaVuSans-Oblique-75" transform="translate(74.804688 0.09375)"/>
      <use xlink:href="#DejaVuSans-Oblique-3b5" transform="translate(138.183594 -16.3125) scale(0.7)"/>
     </g>
    </g>
    <g id="line2d_40">
     <path d="M 357.95601 34.576021 
L 367.95601 34.576021 
L 377.95601 34.576021 
" style="fill: none; stroke: #9467bd; stroke-width: 1.5; stroke-linecap: square"/>
    </g>
    <g id="text_22">
     <!-- $Nu_\mathrm{vol}$ -->
     <g transform="translate(385.95601 38.076021) scale(0.1 -0.1)">
      <defs>
       <path id="DejaVuSans-76" d="M 191 3500 
L 800 3500 
L 1894 563 
L 2988 3500 
L 3597 3500 
L 2284 0 
L 1503 0 
L 191 3500 
z
" transform="scale(0.015625)"/>
       <path id="DejaVuSans-6f" d="M 1959 3097 
Q 1497 3097 1228 2736 
Q 959 2375 959 1747 
Q 959 1119 1226 758 
Q 1494 397 1959 397 
Q 2419 397 2687 759 
Q 2956 1122 2956 1747 
Q 2956 2369 2687 2733 
Q 2419 3097 1959 3097 
z
M 1959 3584 
Q 2709 3584 3137 3096 
Q 3566 2609 3566 1747 
Q 3566 888 3137 398 
Q 2709 -91 1959 -91 
Q 1206 -91 779 398 
Q 353 888 353 1747 
Q 353 2609 779 3096 
Q 1206 3584 1959 3584 
z
" transform="scale(0.015625)"/>
      </defs>
      <use xlink:href="#DejaVuSans-Oblique-4e" transform="translate(0 0.09375)"/>
      <use xlink:href="#DejaVuSans-Oblique-75" transform="translate(74.804688 0.09375)"/>
      <use xlink:href="#DejaVuSans-76" transform="translate(138.183594 -16.3125) scale(0.7)"/>
      <use xlink:href="#DejaVuSans-6f" transform="translate(179.609375 -16.3125) scale(0.7)"/>
      <use xlink:href="#DejaVuSans-6c" transform="translate(222.436523 -16.3125) scale(0.7)"/>
     </g>
    </g>
   </g>
  </g>
 </g>
 <defs>
  <clipPath id="p3eabc99ca3">
   <rect x="42.765865" y="6.799459" width="376.690145" height="103.844051"/>
  </clipPath>
 </defs>
</svg>
