<svg width="2731" height="2504" xmlns="http://www.w3.org/2000/svg" xmlns:xlink="http://www.w3.org/1999/xlink" xml:space="preserve" overflow="hidden"><g transform="translate(-496 12)"><path d="M1819 783 1819 1042.84" stroke="#000000" stroke-width="13.75" stroke-linecap="round" stroke-linejoin="round" stroke-miterlimit="10" fill="none" fill-rule="evenodd"/><path d="M1819 1173 1819 1432.84" stroke="#000000" stroke-width="13.75" stroke-linecap="round" stroke-linejoin="round" stroke-miterlimit="10" fill="none" fill-rule="evenodd"/><path d="M1819 1433 2078.84 1433" stroke="#000000" stroke-width="13.75" stroke-linecap="round" stroke-linejoin="round" stroke-miterlimit="10" fill="none" fill-rule="evenodd"/><path d="M1819 783 2078.84 783" stroke="#000000" stroke-width="13.75" stroke-linecap="round" stroke-linejoin="round" stroke-miterlimit="10" fill="none" fill-rule="evenodd"/><path d="M2209 1433 2468.84 1433" stroke="#000000" stroke-width="13.75" stroke-linecap="round" stroke-linejoin="round" stroke-miterlimit="10" fill="none" fill-rule="evenodd"/><path d="M2209 783 2468.84 783" stroke="#000000" stroke-width="13.75" stroke-linecap="round" stroke-linejoin="round" stroke-miterlimit="10" fill="none" fill-rule="evenodd"/><path d="M2469 1173 2469 1432.84" stroke="#000000" stroke-width="13.75" stroke-linecap="round" stroke-linejoin="round" stroke-miterlimit="10" fill="none" fill-rule="evenodd"/><path d="M2469 783 2469 1042.84" stroke="#000000" stroke-width="13.75" stroke-linecap="round" stroke-linejoin="round" stroke-miterlimit="10" fill="none" fill-rule="evenodd"/><path d="M1754.5 1108.5C1754.5 1072.6 1783.6 1043.5 1819.5 1043.5 1855.4 1043.5 1884.5 1072.6 1884.5 1108.5 1884.5 1144.4 1855.4 1173.5 1819.5 1173.5 1783.6 1173.5 1754.5 1144.4 1754.5 1108.5Z" stroke="#153F10" stroke-width="4.58333" stroke-miterlimit="8" fill="#3F9C35" fill-rule="evenodd"/><path d="M2469 1433 2728.84 1433" stroke="#000000" stroke-width="13.75" stroke-linecap="round" stroke-linejoin="round" stroke-miterlimit="10" fill="none" fill-rule="evenodd"/><path d="M2469 783 2728.84 783" stroke="#000000" stroke-width="13.75" stroke-linecap="round" stroke-linejoin="round" stroke-miterlimit="10" fill="none" fill-rule="evenodd"/><path d="M2858 1433 3117.84 1433" stroke="#000000" stroke-width="13.75" stroke-linecap="round" stroke-linejoin="round" stroke-miterlimit="10" fill="none" fill-rule="evenodd"/><path d="M2858 783 3117.84 783" stroke="#000000" stroke-width="13.75" stroke-linecap="round" stroke-linejoin="round" stroke-miterlimit="10" fill="none" fill-rule="evenodd"/><path d="M3118 1173 3118 1432.84" stroke="#000000" stroke-width="13.75" stroke-linecap="round" stroke-linejoin="round" stroke-miterlimit="10" fill="none" fill-rule="evenodd"/><path d="M3118 783 3118 1042.84" stroke="#000000" stroke-width="13.75" stroke-linecap="round" stroke-linejoin="round" stroke-miterlimit="10" fill="none" fill-rule="evenodd"/><path d="M2404.5 1108.5C2404.5 1072.6 2433.38 1043.5 2469 1043.5 2504.62 1043.5 2533.5 1072.6 2533.5 1108.5 2533.5 1144.4 2504.62 1173.5 2469 1173.5 2433.38 1173.5 2404.5 1144.4 2404.5 1108.5Z" stroke="#153F10" stroke-width="4.58333" stroke-miterlimit="8" fill="#3F9C35" fill-rule="evenodd"/><path d="M3053.5 1108.5C3053.5 1072.6 3082.6 1043.5 3118.5 1043.5 3154.4 1043.5 3183.5 1072.6 3183.5 1108.5 3183.5 1144.4 3154.4 1173.5 3118.5 1173.5 3082.6 1173.5 3053.5 1144.4 3053.5 1108.5Z" stroke="#153F10" stroke-width="4.58333" stroke-miterlimit="8" fill="#3F9C35" fill-rule="evenodd"/><path d="M2079.5 1433.5C2079.5 1397.6 2108.6 1368.5 2144.5 1368.5 2180.4 1368.5 2209.5 1397.6 2209.5 1433.5 2209.5 1469.4 2180.4 1498.5 2144.5 1498.5 2108.6 1498.5 2079.5 1469.4 2079.5 1433.5Z" stroke="#000C23" stroke-width="4.58333" stroke-miterlimit="8" fill="#002C5F" fill-rule="evenodd"/><path d="M2079.5 783.5C2079.5 747.601 2108.6 718.5 2144.5 718.5 2180.4 718.5 2209.5 747.601 2209.5 783.5 2209.5 819.398 2180.4 848.5 2144.5 848.5 2108.6 848.5 2079.5 819.398 2079.5 783.5Z" stroke="#000C23" stroke-width="4.58333" stroke-miterlimit="8" fill="#002C5F" fill-rule="evenodd"/><path d="M2728.5 783.5C2728.5 747.601 2757.6 718.5 2793.5 718.5 2829.4 718.5 2858.5 747.601 2858.5 783.5 2858.5 819.398 2829.4 848.5 2793.5 848.5 2757.6 848.5 2728.5 819.398 2728.5 783.5Z" stroke="#000C23" stroke-width="4.58333" stroke-miterlimit="8" fill="#002C5F" fill-rule="evenodd"/><path d="M2728.5 1433.5C2728.5 1397.6 2757.6 1368.5 2793.5 1368.5 2829.4 1368.5 2858.5 1397.6 2858.5 1433.5 2858.5 1469.4 2829.4 1498.5 2793.5 1498.5 2757.6 1498.5 2728.5 1469.4 2728.5 1433.5Z" stroke="#000C23" stroke-width="4.58333" stroke-miterlimit="8" fill="#002C5F" fill-rule="evenodd"/><path d="M1169 783 1169 1042.84" stroke="#000000" stroke-width="13.75" stroke-linecap="round" stroke-linejoin="round" stroke-miterlimit="10" fill="none" fill-rule="evenodd"/><path d="M1169 1173 1169 1432.84" stroke="#000000" stroke-width="13.75" stroke-linecap="round" stroke-linejoin="round" stroke-miterlimit="10" fill="none" fill-rule="evenodd"/><path d="M1169 1433 1428.84 1433" stroke="#000000" stroke-width="13.75" stroke-linecap="round" stroke-linejoin="round" stroke-miterlimit="10" fill="none" fill-rule="evenodd"/><path d="M1169 783 1428.84 783" stroke="#000000" stroke-width="13.75" stroke-linecap="round" stroke-linejoin="round" stroke-miterlimit="10" fill="none" fill-rule="evenodd"/><path d="M1559 1433 1818.84 1433" stroke="#000000" stroke-width="13.75" stroke-linecap="round" stroke-linejoin="round" stroke-miterlimit="10" fill="none" fill-rule="evenodd"/><path d="M1559 783 1818.84 783" stroke="#000000" stroke-width="13.75" stroke-linecap="round" stroke-linejoin="round" stroke-miterlimit="10" fill="none" fill-rule="evenodd"/><path d="M1104.5 1108.5C1104.5 1072.6 1133.6 1043.5 1169.5 1043.5 1205.4 1043.5 1234.5 1072.6 1234.5 1108.5 1234.5 1144.4 1205.4 1173.5 1169.5 1173.5 1133.6 1173.5 1104.5 1144.4 1104.5 1108.5Z" stroke="#153F10" stroke-width="4.58333" stroke-miterlimit="8" fill="#3F9C35" fill-rule="evenodd"/><path d="M1429.5 1433.5C1429.5 1397.6 1458.6 1368.5 1494.5 1368.5 1530.4 1368.5 1559.5 1397.6 1559.5 1433.5 1559.5 1469.4 1530.4 1498.5 1494.5 1498.5 1458.6 1498.5 1429.5 1469.4 1429.5 1433.5Z" stroke="#000C23" stroke-width="4.58333" stroke-miterlimit="8" fill="#002C5F" fill-rule="evenodd"/><path d="M1429.5 783.5C1429.5 747.601 1458.6 718.5 1494.5 718.5 1530.4 718.5 1559.5 747.601 1559.5 783.5 1559.5 819.398 1530.4 848.5 1494.5 848.5 1458.6 848.5 1429.5 819.398 1429.5 783.5Z" stroke="#000C23" stroke-width="4.58333" stroke-miterlimit="8" fill="#002C5F" fill-rule="evenodd"/><path d="M1819 134 1819 393.843" stroke="#000000" stroke-width="13.75" stroke-linecap="round" stroke-linejoin="round" stroke-miterlimit="10" fill="none" fill-rule="evenodd"/><path d="M1819 523 1819 782.842" stroke="#000000" stroke-width="13.75" stroke-linecap="round" stroke-linejoin="round" stroke-miterlimit="10" fill="none" fill-rule="evenodd"/><path d="M1819 134 2078.84 134" stroke="#000000" stroke-width="13.75" stroke-linecap="round" stroke-linejoin="round" stroke-miterlimit="10" fill="none" fill-rule="evenodd"/><path d="M2209 134 2468.84 134" stroke="#000000" stroke-width="13.75" stroke-linecap="round" stroke-linejoin="round" stroke-miterlimit="10" fill="none" fill-rule="evenodd"/><path d="M2469 523 2469 782.842" stroke="#000000" stroke-width="13.75" stroke-linecap="round" stroke-linejoin="round" stroke-miterlimit="10" fill="none" fill-rule="evenodd"/><path d="M2469 134 2469 393.843" stroke="#000000" stroke-width="13.75" stroke-linecap="round" stroke-linejoin="round" stroke-miterlimit="10" fill="none" fill-rule="evenodd"/><path d="M1754.5 458.5C1754.5 422.602 1783.6 393.5 1819.5 393.5 1855.4 393.5 1884.5 422.602 1884.5 458.5 1884.5 494.399 1855.4 523.5 1819.5 523.5 1783.6 523.5 1754.5 494.399 1754.5 458.5Z" stroke="#153F10" stroke-width="4.58333" stroke-miterlimit="8" fill="#3F9C35" fill-rule="evenodd"/><path d="M2404.5 458.5C2404.5 422.602 2433.38 393.5 2469 393.5 2504.62 393.5 2533.5 422.602 2533.5 458.5 2533.5 494.399 2504.62 523.5 2469 523.5 2433.38 523.5 2404.5 494.399 2404.5 458.5Z" stroke="#153F10" stroke-width="4.58333" stroke-miterlimit="8" fill="#3F9C35" fill-rule="evenodd"/><path d="M2079.5 134.5C2079.5 98.6014 2108.6 69.4999 2144.5 69.4999 2180.4 69.4999 2209.5 98.6014 2209.5 134.5 2209.5 170.398 2180.4 199.5 2144.5 199.5 2108.6 199.5 2079.5 170.398 2079.5 134.5Z" stroke="#000C23" stroke-width="4.58333" stroke-miterlimit="8" fill="#002C5F" fill-rule="evenodd"/><path d="M1819 1433 1819 1692.84" stroke="#000000" stroke-width="13.75" stroke-linecap="round" stroke-linejoin="round" stroke-miterlimit="10" fill="none" fill-rule="evenodd"/><path d="M1819 1823 1819 2082.84" stroke="#000000" stroke-width="13.75" stroke-linecap="round" stroke-linejoin="round" stroke-miterlimit="10" fill="none" fill-rule="evenodd"/><path d="M1819 2082 2078.84 2082" stroke="#000000" stroke-width="13.75" stroke-linecap="round" stroke-linejoin="round" stroke-miterlimit="10" fill="none" fill-rule="evenodd"/><path d="M2209 2082 2468.84 2082" stroke="#000000" stroke-width="13.75" stroke-linecap="round" stroke-linejoin="round" stroke-miterlimit="10" fill="none" fill-rule="evenodd"/><path d="M2469 1823 2469 2082.84" stroke="#000000" stroke-width="13.75" stroke-linecap="round" stroke-linejoin="round" stroke-miterlimit="10" fill="none" fill-rule="evenodd"/><path d="M2469 1433 2469 1692.84" stroke="#000000" stroke-width="13.75" stroke-linecap="round" stroke-linejoin="round" stroke-miterlimit="10" fill="none" fill-rule="evenodd"/><path d="M1754.5 1758.5C1754.5 1722.6 1783.6 1693.5 1819.5 1693.5 1855.4 1693.5 1884.5 1722.6 1884.5 1758.5 1884.5 1794.4 1855.4 1823.5 1819.5 1823.5 1783.6 1823.5 1754.5 1794.4 1754.5 1758.5Z" stroke="#153F10" stroke-width="4.58333" stroke-miterlimit="8" fill="#3F9C35" fill-rule="evenodd"/><path d="M2404.5 1758.5C2404.5 1722.6 2433.38 1693.5 2469 1693.5 2504.62 1693.5 2533.5 1722.6 2533.5 1758.5 2533.5 1794.4 2504.62 1823.5 2469 1823.5 2433.38 1823.5 2404.5 1794.4 2404.5 1758.5Z" stroke="#153F10" stroke-width="4.58333" stroke-miterlimit="8" fill="#3F9C35" fill-rule="evenodd"/><path d="M2079.5 2082.5C2079.5 2046.6 2108.6 2017.5 2144.5 2017.5 2180.4 2017.5 2209.5 2046.6 2209.5 2082.5 2209.5 2118.4 2180.4 2147.5 2144.5 2147.5 2108.6 2147.5 2079.5 2118.4 2079.5 2082.5Z" stroke="#000C23" stroke-width="4.58333" stroke-miterlimit="8" fill="#002C5F" fill-rule="evenodd"/><path d="M1429.5 1108.5C1429.5 1072.6 1458.6 1043.5 1494.5 1043.5 1530.4 1043.5 1559.5 1072.6 1559.5 1108.5 1559.5 1144.4 1530.4 1173.5 1494.5 1173.5 1458.6 1173.5 1429.5 1144.4 1429.5 1108.5Z" stroke="#633001" stroke-width="4.58333" stroke-miterlimit="8" fill="#EC7A08" fill-rule="evenodd"/><path d="M2079.5 1108.5C2079.5 1072.6 2108.6 1043.5 2144.5 1043.5 2180.4 1043.5 2209.5 1072.6 2209.5 1108.5 2209.5 1144.4 2180.4 1173.5 2144.5 1173.5 2108.6 1173.5 2079.5 1144.4 2079.5 1108.5Z" stroke="#633001" stroke-width="4.58333" stroke-miterlimit="8" fill="#EC7A08" fill-rule="evenodd"/><path d="M2079.5 457.5C2079.5 421.602 2108.6 392.5 2144.5 392.5 2180.4 392.5 2209.5 421.602 2209.5 457.5 2209.5 493.398 2180.4 522.5 2144.5 522.5 2108.6 522.5 2079.5 493.398 2079.5 457.5Z" stroke="#633001" stroke-width="4.58333" stroke-miterlimit="8" fill="#EC7A08" fill-rule="evenodd"/><path d="M2728.5 1108.5C2728.5 1072.6 2757.6 1043.5 2793.5 1043.5 2829.4 1043.5 2858.5 1072.6 2858.5 1108.5 2858.5 1144.4 2829.4 1173.5 2793.5 1173.5 2757.6 1173.5 2728.5 1144.4 2728.5 1108.5Z" stroke="#633001" stroke-width="4.58333" stroke-miterlimit="8" fill="#EC7A08" fill-rule="evenodd"/><path d="M2079.5 1759.5C2079.5 1723.6 2108.6 1694.5 2144.5 1694.5 2180.4 1694.5 2209.5 1723.6 2209.5 1759.5 2209.5 1795.4 2180.4 1824.5 2144.5 1824.5 2108.6 1824.5 2079.5 1795.4 2079.5 1759.5Z" stroke="#633001" stroke-width="4.58333" stroke-miterlimit="8" fill="#EC7A08" fill-rule="evenodd"/><path d="M6.875-2.38715e-05 6.87524 69.562C6.87526 73.3589 3.79722 76.437 0.000265406 76.437-3.79669 76.437-6.87474 73.359-6.87476 69.562L-6.875 2.38715e-05C-6.87501-3.79693-3.79698-6.87499-2.38715e-05-6.875 3.79693-6.87501 6.87499-3.79698 6.875-2.38715e-05ZM20.6252 62.6869 0.000360892 103.937-20.6248 62.6871Z" fill="#FFFFFF" transform="matrix(1 0 0 -1 2144 2133.94)"/><path d="M6.875-2.38715e-05 6.87524 69.562C6.87526 73.3589 3.79722 76.437 0.000265406 76.437-3.79669 76.437-6.87474 73.359-6.87476 69.562L-6.875 2.38715e-05C-6.87501-3.79693-3.79698-6.87499-2.38715e-05-6.875 3.79693-6.87501 6.87499-3.79698 6.875-2.38715e-05ZM20.6252 62.6869 0.000360892 103.937-20.6248 62.6871Z" fill="#FFFFFF" transform="matrix(1 0 0 -1 2144 1484.94)"/><path d="M6.875-2.38715e-05 6.87524 69.562C6.87526 73.3589 3.79722 76.437 0.000265406 76.437-3.79669 76.437-6.87474 73.359-6.87476 69.562L-6.875 2.38715e-05C-6.87501-3.79693-3.79698-6.87499-2.38715e-05-6.875 3.79693-6.87501 6.87499-3.79698 6.875-2.38715e-05ZM20.6252 62.6869 0.000360892 103.937-20.6248 62.6871Z" fill="#FFFFFF" transform="matrix(1 0 0 -1 2144 834.937)"/><path d="M6.875-2.38715e-05 6.87524 69.562C6.87526 73.3589 3.79722 76.437 0.000265406 76.437-3.79669 76.437-6.87474 73.359-6.87476 69.562L-6.875 2.38715e-05C-6.87501-3.79693-3.79698-6.87499-2.38715e-05-6.875 3.79693-6.87501 6.87499-3.79698 6.875-2.38715e-05ZM20.6252 62.6869 0.000360892 103.937-20.6248 62.6871Z" fill="#FFFFFF" transform="matrix(1 0 0 -1 2144 185.937)"/><path d="M6.875-2.38715e-05 6.87524 69.562C6.87526 73.3589 3.79722 76.437 0.000265406 76.437-3.79669 76.437-6.87474 73.359-6.87476 69.562L-6.875 2.38715e-05C-6.87501-3.79693-3.79698-6.87499-2.38715e-05-6.875 3.79693-6.87501 6.87499-3.79698 6.875-2.38715e-05ZM20.6252 62.6869 0.000360892 103.937-20.6248 62.6871Z" fill="#FFFFFF" transform="matrix(1 0 0 -1 1494 1484.94)"/><path d="M6.875-2.38715e-05 6.87524 69.562C6.87526 73.3589 3.79722 76.437 0.000265406 76.437-3.79669 76.437-6.87474 73.359-6.87476 69.562L-6.875 2.38715e-05C-6.87501-3.79693-3.79698-6.87499-2.38715e-05-6.875 3.79693-6.87501 6.87499-3.79698 6.875-2.38715e-05ZM20.6252 62.6869 0.000360892 103.937-20.6248 62.6871Z" fill="#FFFFFF" transform="matrix(1 0 0 -1 2793 1484.94)"/><path d="M6.875-2.38715e-05 6.87524 69.562C6.87526 73.3589 3.79722 76.437 0.000265406 76.437-3.79669 76.437-6.87474 73.359-6.87476 69.562L-6.875 2.38715e-05C-6.87501-3.79693-3.79698-6.87499-2.38715e-05-6.875 3.79693-6.87501 6.87499-3.79698 6.875-2.38715e-05ZM20.6252 62.6869 0.000360892 103.937-20.6248 62.6871Z" fill="#FFFFFF" transform="matrix(1 0 0 -1 2793 834.937)"/><path d="M6.875-2.38715e-05 6.87524 69.562C6.87526 73.3589 3.79722 76.437 0.000265406 76.437-3.79669 76.437-6.87474 73.359-6.87476 69.562L-6.875 2.38715e-05C-6.87501-3.79693-3.79698-6.87499-2.38715e-05-6.875 3.79693-6.87501 6.87499-3.79698 6.875-2.38715e-05ZM20.6252 62.6869 0.000360892 103.937-20.6248 62.6871Z" fill="#FFFFFF" transform="matrix(1 0 0 -1 1494 834.937)"/><path d="M2.38715e-05-6.875 69.562-6.87476C73.359-6.87474 76.437-3.79669 76.437 0.000265406 76.437 3.79722 73.3589 6.87526 69.562 6.87524L-2.38715e-05 6.875C-3.79698 6.87499-6.87501 3.79693-6.875-2.38715e-05-6.87499-3.79698-3.79693-6.87501 2.38715e-05-6.875ZM62.6871-20.6248 103.937 0.000360892 62.6869 20.6252Z" fill="#FFFFFF" transform="matrix(1 0 0 -1 1767 458)"/><path d="M2.38715e-05-6.875 69.562-6.87476C73.359-6.87474 76.437-3.79669 76.437 0.000265406 76.437 3.79722 73.3589 6.87526 69.562 6.87524L-2.38715e-05 6.875C-3.79698 6.87499-6.87501 3.79693-6.875-2.38715e-05-6.87499-3.79698-3.79693-6.87501 2.38715e-05-6.875ZM62.6871-20.6248 103.937 0.000360892 62.6869 20.6252Z" fill="#FFFFFF" transform="matrix(1 0 0 -1 2417 459)"/><path d="M2.38715e-05-6.875 69.562-6.87476C73.359-6.87474 76.437-3.79669 76.437 0.000265406 76.437 3.79722 73.3589 6.87526 69.562 6.87524L-2.38715e-05 6.875C-3.79698 6.87499-6.87501 3.79693-6.875-2.38715e-05-6.87499-3.79698-3.79693-6.87501 2.38715e-05-6.875ZM62.6871-20.6248 103.937 0.000360892 62.6869 20.6252Z" fill="#FFFFFF" transform="matrix(1 0 0 -1 1117 1108)"/><path d="M2.38715e-05-6.875 69.562-6.87476C73.359-6.87474 76.437-3.79669 76.437 0.000265406 76.437 3.79722 73.3589 6.87526 69.562 6.87524L-2.38715e-05 6.875C-3.79698 6.87499-6.87501 3.79693-6.875-2.38715e-05-6.87499-3.79698-3.79693-6.87501 2.38715e-05-6.875ZM62.6871-20.6248 103.937 0.000360892 62.6869 20.6252Z" fill="#FFFFFF" transform="matrix(1 0 0 -1 1767 1108)"/><path d="M2.38715e-05-6.875 69.562-6.87476C73.359-6.87474 76.437-3.79669 76.437 0.000265406 76.437 3.79722 73.3589 6.87526 69.562 6.87524L-2.38715e-05 6.875C-3.79698 6.87499-6.87501 3.79693-6.875-2.38715e-05-6.87499-3.79698-3.79693-6.87501 2.38715e-05-6.875ZM62.6871-20.6248 103.937 0.000360892 62.6869 20.6252Z" fill="#FFFFFF" transform="matrix(1 0 0 -1 2417 1108)"/><path d="M2.38715e-05-6.875 69.562-6.87476C73.359-6.87474 76.437-3.79669 76.437 0.000265406 76.437 3.79722 73.3589 6.87526 69.562 6.87524L-2.38715e-05 6.875C-3.79698 6.87499-6.87501 3.79693-6.875-2.38715e-05-6.87499-3.79698-3.79693-6.87501 2.38715e-05-6.875ZM62.6871-20.6248 103.937 0.000360892 62.6869 20.6252Z" fill="#FFFFFF" transform="matrix(1 0 0 -1 3066 1108)"/><path d="M2.38715e-05-6.875 69.562-6.87476C73.359-6.87474 76.437-3.79669 76.437 0.000265406 76.437 3.79722 73.3589 6.87526 69.562 6.87524L-2.38715e-05 6.875C-3.79698 6.87499-6.87501 3.79693-6.875-2.38715e-05-6.87499-3.79698-3.79693-6.87501 2.38715e-05-6.875ZM62.6871-20.6248 103.937 0.000360892 62.6869 20.6252Z" fill="#FFFFFF" transform="matrix(1 0 0 -1 1767 1758)"/><path d="M2.38715e-05-6.875 69.562-6.87476C73.359-6.87474 76.437-3.79669 76.437 0.000265406 76.437 3.79722 73.3589 6.87526 69.562 6.87524L-2.38715e-05 6.875C-3.79698 6.87499-6.87501 3.79693-6.875-2.38715e-05-6.87499-3.79698-3.79693-6.87501 2.38715e-05-6.875ZM62.6871-20.6248 103.937 0.000360892 62.6869 20.6252Z" fill="#FFFFFF" transform="matrix(1 0 0 -1 2417 1758)"/><path d="M1169.5 2294.5 3118.32 2294.5" stroke="#000000" stroke-width="20.625" stroke-linecap="square" stroke-linejoin="bevel" stroke-miterlimit="10" fill="none" fill-rule="evenodd"/><path d="M1169 2229 1169 2293.96" stroke="#000000" stroke-width="13.75" stroke-linecap="round" stroke-linejoin="bevel" stroke-miterlimit="10" fill="none" fill-rule="evenodd"/><path d="M1819 2229 1819 2293.96" stroke="#000000" stroke-width="13.75" stroke-linecap="round" stroke-linejoin="bevel" stroke-miterlimit="10" fill="none" fill-rule="evenodd"/><path d="M2469 2229 2469 2293.96" stroke="#000000" stroke-width="13.75" stroke-linecap="round" stroke-linejoin="bevel" stroke-miterlimit="10" fill="none" fill-rule="evenodd"/><path d="M3118 2229 3118 2293.96" stroke="#000000" stroke-width="13.75" stroke-linecap="round" stroke-linejoin="bevel" stroke-miterlimit="10" fill="none" fill-rule="evenodd"/><path d="M1494 2294 1494 2358.96" stroke="#000000" stroke-width="13.75" stroke-linecap="round" stroke-linejoin="bevel" stroke-miterlimit="10" fill="none" fill-rule="evenodd"/><path d="M2144 2294 2144 2358.96" stroke="#000000" stroke-width="13.75" stroke-linecap="round" stroke-linejoin="bevel" stroke-miterlimit="10" fill="none" fill-rule="evenodd"/><path d="M2793 2294 2793 2358.96" stroke="#000000" stroke-width="13.75" stroke-linecap="round" stroke-linejoin="bevel" stroke-miterlimit="10" fill="none" fill-rule="evenodd"/><text font-family="Cascadia Code,Cascadia Code_MSFontService,sans-serif" font-weight="400" font-size="50" transform="matrix(1 0 0 1 1124.6 2200)">k</text><text font-family="Cascadia Code,Cascadia Code_MSFontService,sans-serif" font-weight="400" font-size="50" transform="matrix(1 0 0 1 1154.4 2200)">-</text><text font-family="Cascadia Code,Cascadia Code_MSFontService,sans-serif" font-weight="400" font-size="50" transform="matrix(1 0 0 1 1184.19 2200)">1</text><text font-family="Cascadia Code,Cascadia Code_MSFontService,sans-serif" font-weight="400" font-size="50" transform="matrix(1 0 0 1 1804 2202)">k</text><text font-family="Cascadia Code,Cascadia Code_MSFontService,sans-serif" font-weight="400" font-size="50" transform="matrix(1 0 0 1 2423.81 2199)">k+1</text><text font-family="Cascadia Code,Cascadia Code_MSFontService,sans-serif" font-weight="400" font-size="50" transform="matrix(1 0 0 1 3073.42 2202)">k+2</text><text font-family="Cascadia Code,Cascadia Code_MSFontService,sans-serif" font-weight="400" font-size="50" transform="matrix(1 0 0 1 1449.41 2426)">k</text><text font-family="Cascadia Code,Cascadia Code_MSFontService,sans-serif" font-weight="400" font-size="50" transform="matrix(1 0 0 1 1479.2 2426)">-</text><text font-family="Cascadia Code,Cascadia Code_MSFontService,sans-serif" font-weight="400" font-size="50" transform="matrix(1 0 0 1 1508.99 2426)">1</text><text font-family="Cascadia Code,Cascadia Code_MSFontService,sans-serif" font-weight="400" font-size="50" transform="matrix(1 0 0 1 2128.11 2426)">k</text><text font-family="Cascadia Code,Cascadia Code_MSFontService,sans-serif" font-weight="400" font-size="50" transform="matrix(1 0 0 1 2750.9 2426)">k+1</text><text font-family="Cascadia Code,Cascadia Code_MSFontService,sans-serif" font-weight="400" font-size="73" transform="matrix(1 0 0 1 941.714 2206)">xc</text><text font-family="Cascadia Code,Cascadia Code_MSFontService,sans-serif" font-weight="400" font-size="73" transform="matrix(1 0 0 1 940.027 2429)">xm</text><text font-family="Cascadia Code,Cascadia Code_MSFontService,sans-serif" font-weight="400" font-size="73" transform="matrix(1 0 0 1 1838.4 1239)">vx</text><text font-family="Cascadia Code,Cascadia Code_MSFontService,sans-serif" font-weight="400" font-size="73" transform="matrix(1 0 0 1 2208.66 1396)">vy</text><text font-family="Cascadia Code,Cascadia Code_MSFontService,sans-serif" font-weight="400" font-size="73" transform="matrix(1 0 0 1 2057.07 1018)">temp</text><path d="M0 0 0.000360892 1948.82" stroke="#000000" stroke-width="20.625" stroke-linecap="square" stroke-linejoin="bevel" stroke-miterlimit="10" fill="none" fill-rule="evenodd" transform="matrix(1 0 0 -1 780.5 2083.32)"/><path d="M780 134 844.961 134" stroke="#000000" stroke-width="13.75" stroke-linecap="round" stroke-linejoin="bevel" stroke-miterlimit="10" fill="none" fill-rule="evenodd"/><path d="M780 783 844.961 783" stroke="#000000" stroke-width="13.75" stroke-linecap="round" stroke-linejoin="bevel" stroke-miterlimit="10" fill="none" fill-rule="evenodd"/><path d="M786 1433 850.961 1433" stroke="#000000" stroke-width="13.75" stroke-linecap="round" stroke-linejoin="bevel" stroke-miterlimit="10" fill="none" fill-rule="evenodd"/><path d="M776 2082 840.96 2082" stroke="#000000" stroke-width="13.75" stroke-linecap="round" stroke-linejoin="bevel" stroke-miterlimit="10" fill="none" fill-rule="evenodd"/><path d="M715 458 779.961 458" stroke="#000000" stroke-width="13.75" stroke-linecap="round" stroke-linejoin="bevel" stroke-miterlimit="10" fill="none" fill-rule="evenodd"/><path d="M715 1103 779.961 1103" stroke="#000000" stroke-width="13.75" stroke-linecap="round" stroke-linejoin="bevel" stroke-miterlimit="10" fill="none" fill-rule="evenodd"/><path d="M715 1749 779.961 1749" stroke="#000000" stroke-width="13.75" stroke-linecap="round" stroke-linejoin="bevel" stroke-miterlimit="10" fill="none" fill-rule="evenodd"/><text font-family="Cascadia Code,Cascadia Code_MSFontService,sans-serif" font-weight="400" font-size="73" transform="matrix(1 0 0 1 889.209 80)">yc</text><text font-family="Cascadia Code,Cascadia Code_MSFontService,sans-serif" font-weight="400" font-size="73" transform="matrix(1 0 0 1 583.908 80)">ym</text><text font-family="Cascadia Code,Cascadia Code_MSFontService,sans-serif" font-weight="400" font-size="50" transform="matrix(1 0 0 1 883.775 2100)">j</text><text font-family="Cascadia Code,Cascadia Code_MSFontService,sans-serif" font-weight="400" font-size="50" transform="matrix(1 0 0 1 913.566 2100)">-</text><text font-family="Cascadia Code,Cascadia Code_MSFontService,sans-serif" font-weight="400" font-size="50" transform="matrix(1 0 0 1 943.358 2100)">1</text><text font-family="Cascadia Code,Cascadia Code_MSFontService,sans-serif" font-weight="400" font-size="50" transform="matrix(1 0 0 1 887.756 1451)">j</text><text font-family="Cascadia Code,Cascadia Code_MSFontService,sans-serif" font-weight="400" font-size="50" transform="matrix(1 0 0 1 883.775 802)">j+1</text><text font-family="Cascadia Code,Cascadia Code_MSFontService,sans-serif" font-weight="400" font-size="50" transform="matrix(1 0 0 1 884.497 154)">j+2</text><text font-family="Cascadia Code,Cascadia Code_MSFontService,sans-serif" font-weight="400" font-size="50" transform="matrix(1 0 0 1 593.324 1745)">j</text><text font-family="Cascadia Code,Cascadia Code_MSFontService,sans-serif" font-weight="400" font-size="50" transform="matrix(1 0 0 1 623.116 1745)">-</text><text font-family="Cascadia Code,Cascadia Code_MSFontService,sans-serif" font-weight="400" font-size="50" transform="matrix(1 0 0 1 652.908 1745)">1</text><text font-family="Cascadia Code,Cascadia Code_MSFontService,sans-serif" font-weight="400" font-size="50" transform="matrix(1 0 0 1 651.421 1099)">j</text><text font-family="Cascadia Code,Cascadia Code_MSFontService,sans-serif" font-weight="400" font-size="50" transform="matrix(1 0 0 1 591.838 453)">j+1</text><text font-family="Cascadia Code,Cascadia Code_MSFontService,sans-serif" font-weight="400" font-size="73" transform="matrix(1 0 0 1 2100.04 1240)">pr</text></g></svg>