<?xml version="1.0" encoding="utf-8" standalone="no"?>
<!DOCTYPE svg PUBLIC "-//W3C//DTD SVG 1.1//EN"
  "http://www.w3.org/Graphics/SVG/1.1/DTD/svg11.dtd">
<!-- Created with matplotlib (https://matplotlib.org/) -->
<svg height="201.6pt" version="1.1" viewBox="0 0 518.4 201.6" width="518.4pt" xmlns="http://www.w3.org/2000/svg" xmlns:xlink="http://www.w3.org/1999/xlink">
 <defs>
  <style type="text/css">
*{stroke-linecap:butt;stroke-linejoin:round;}
  </style>
 </defs>
 <g id="figure_1">
  <g id="patch_1">
   <path d="M 0 201.6 
L 518.4 201.6 
L 518.4 0 
L 0 0 
z
" style="fill:#ffffff;"/>
  </g>
  <g id="axes_1">
   <g id="patch_2">
    <path d="M 51.60024 158.84976 
L 268.90776 158.84976 
L 268.90776 9.00024 
L 51.60024 9.00024 
z
" style="fill:#eaeaf2;"/>
   </g>
   <g id="matplotlib.axis_1">
    <g id="xtick_1">
     <g id="line2d_1">
      <path clip-path="url(#pec10a71300)" d="M 93.284037 158.84976 
L 93.284037 9.00024 
" style="fill:none;stroke:#ffffff;stroke-linecap:round;"/>
     </g>
     <g id="text_1">
      <!-- $\mathdefault{10^{2}}$ -->
      <defs>
       <path d="M 37.25 0 
L 28.46875 0 
L 28.46875 56 
Q 25.296875 52.984375 20.140625 49.953125 
Q 14.984375 46.921875 10.890625 45.40625 
L 10.890625 53.90625 
Q 18.265625 57.375 23.78125 62.296875 
Q 29.296875 67.234375 31.59375 71.875 
L 37.25 71.875 
z
" id="ArialMT-49"/>
       <path d="M 4.15625 35.296875 
Q 4.15625 48 6.765625 55.734375 
Q 9.375 63.484375 14.515625 67.671875 
Q 19.671875 71.875 27.484375 71.875 
Q 33.25 71.875 37.59375 69.546875 
Q 41.9375 67.234375 44.765625 62.859375 
Q 47.609375 58.5 49.21875 52.21875 
Q 50.828125 45.953125 50.828125 35.296875 
Q 50.828125 22.703125 48.234375 14.96875 
Q 45.65625 7.234375 40.5 3 
Q 35.359375 -1.21875 27.484375 -1.21875 
Q 17.140625 -1.21875 11.234375 6.203125 
Q 4.15625 15.140625 4.15625 35.296875 
z
M 13.1875 35.296875 
Q 13.1875 17.671875 17.3125 11.828125 
Q 21.4375 6 27.484375 6 
Q 33.546875 6 37.671875 11.859375 
Q 41.796875 17.71875 41.796875 35.296875 
Q 41.796875 52.984375 37.671875 58.78125 
Q 33.546875 64.59375 27.390625 64.59375 
Q 21.34375 64.59375 17.71875 59.46875 
Q 13.1875 52.9375 13.1875 35.296875 
z
" id="ArialMT-48"/>
       <path d="M 50.34375 8.453125 
L 50.34375 0 
L 3.03125 0 
Q 2.9375 3.171875 4.046875 6.109375 
Q 5.859375 10.9375 9.828125 15.625 
Q 13.8125 20.3125 21.34375 26.46875 
Q 33.015625 36.03125 37.109375 41.625 
Q 41.21875 47.21875 41.21875 52.203125 
Q 41.21875 57.421875 37.46875 61 
Q 33.734375 64.59375 27.734375 64.59375 
Q 21.390625 64.59375 17.578125 60.78125 
Q 13.765625 56.984375 13.71875 50.25 
L 4.6875 51.171875 
Q 5.609375 61.28125 11.65625 66.578125 
Q 17.71875 71.875 27.9375 71.875 
Q 38.234375 71.875 44.234375 66.15625 
Q 50.25 60.453125 50.25 52 
Q 50.25 47.703125 48.484375 43.546875 
Q 46.734375 39.40625 42.65625 34.8125 
Q 38.578125 30.21875 29.109375 22.21875 
Q 21.1875 15.578125 18.9375 13.203125 
Q 16.703125 10.84375 15.234375 8.453125 
z
" id="ArialMT-50"/>
      </defs>
      <g style="fill:#262626;" transform="translate(84.649037 179.69351)scale(0.11 -0.11)">
       <use transform="translate(0 0.99375)" xlink:href="#ArialMT-49"/>
       <use transform="translate(55.615234 0.99375)" xlink:href="#ArialMT-48"/>
       <use transform="translate(112.972813 70.6875)scale(0.7)" xlink:href="#ArialMT-50"/>
      </g>
     </g>
    </g>
    <g id="xtick_2">
     <g id="line2d_2">
      <path clip-path="url(#pec10a71300)" d="M 257.340372 158.84976 
L 257.340372 9.00024 
" style="fill:none;stroke:#ffffff;stroke-linecap:round;"/>
     </g>
     <g id="text_2">
      <!-- $\mathdefault{10^{3}}$ -->
      <defs>
       <path d="M 4.203125 18.890625 
L 12.984375 20.0625 
Q 14.5 12.59375 18.140625 9.296875 
Q 21.78125 6 27 6 
Q 33.203125 6 37.46875 10.296875 
Q 41.75 14.59375 41.75 20.953125 
Q 41.75 27 37.796875 30.921875 
Q 33.84375 34.859375 27.734375 34.859375 
Q 25.25 34.859375 21.53125 33.890625 
L 22.515625 41.609375 
Q 23.390625 41.5 23.921875 41.5 
Q 29.546875 41.5 34.03125 44.421875 
Q 38.53125 47.359375 38.53125 53.46875 
Q 38.53125 58.296875 35.25 61.46875 
Q 31.984375 64.65625 26.8125 64.65625 
Q 21.6875 64.65625 18.265625 61.421875 
Q 14.84375 58.203125 13.875 51.765625 
L 5.078125 53.328125 
Q 6.6875 62.15625 12.390625 67.015625 
Q 18.109375 71.875 26.609375 71.875 
Q 32.46875 71.875 37.390625 69.359375 
Q 42.328125 66.84375 44.9375 62.5 
Q 47.5625 58.15625 47.5625 53.265625 
Q 47.5625 48.640625 45.0625 44.828125 
Q 42.578125 41.015625 37.703125 38.765625 
Q 44.046875 37.3125 47.5625 32.6875 
Q 51.078125 28.078125 51.078125 21.140625 
Q 51.078125 11.765625 44.234375 5.25 
Q 37.40625 -1.265625 26.953125 -1.265625 
Q 17.53125 -1.265625 11.296875 4.34375 
Q 5.078125 9.96875 4.203125 18.890625 
z
" id="ArialMT-51"/>
      </defs>
      <g style="fill:#262626;" transform="translate(248.705372 179.69351)scale(0.11 -0.11)">
       <use transform="translate(0 0.99375)" xlink:href="#ArialMT-49"/>
       <use transform="translate(55.615234 0.99375)" xlink:href="#ArialMT-48"/>
       <use transform="translate(112.972813 70.6875)scale(0.7)" xlink:href="#ArialMT-51"/>
      </g>
     </g>
    </g>
    <g id="xtick_3"/>
    <g id="xtick_4"/>
    <g id="xtick_5"/>
    <g id="xtick_6"/>
    <g id="xtick_7"/>
    <g id="xtick_8"/>
    <g id="xtick_9"/>
    <g id="xtick_10"/>
    <g id="xtick_11"/>
    <g id="xtick_12"/>
    <g id="xtick_13"/>
    <g id="xtick_14"/>
    <g id="text_3">
     <!-- $N_x$ -->
     <defs>
      <path d="M 16.890625 72.90625 
L 30.171875 72.90625 
L 50.296875 10.40625 
L 62.5 72.90625 
L 72.125 72.90625 
L 57.90625 0 
L 44.578125 0 
L 24.515625 62.890625 
L 12.3125 0 
L 2.6875 0 
z
" id="DejaVuSans-Oblique-78"/>
      <path d="M 60.015625 54.6875 
L 34.90625 27.875 
L 50.296875 0 
L 39.984375 0 
L 28.421875 21.6875 
L 8.296875 0 
L -2.59375 0 
L 24.3125 28.8125 
L 10.015625 54.6875 
L 20.3125 54.6875 
L 30.8125 34.90625 
L 49.125 54.6875 
z
" id="DejaVuSans-Oblique-120"/>
     </defs>
     <g style="fill:#262626;" transform="translate(153.114 194.469135)scale(0.12 -0.12)">
      <use transform="translate(0 0.09375)" xlink:href="#DejaVuSans-Oblique-78"/>
      <use transform="translate(74.804688 -16.3125)scale(0.7)" xlink:href="#DejaVuSans-Oblique-120"/>
     </g>
    </g>
   </g>
   <g id="matplotlib.axis_2">
    <g id="ytick_1">
     <g id="line2d_3">
      <path clip-path="url(#pec10a71300)" d="M 51.60024 158.84976 
L 268.90776 158.84976 
" style="fill:none;stroke:#ffffff;stroke-linecap:round;"/>
     </g>
     <g id="text_4">
      <!-- $\mathdefault{10^{-4}}$ -->
      <defs>
       <path d="M 52.828125 31.203125 
L 5.5625 31.203125 
L 5.5625 39.40625 
L 52.828125 39.40625 
z
" id="ArialMT-8722"/>
       <path d="M 32.328125 0 
L 32.328125 17.140625 
L 1.265625 17.140625 
L 1.265625 25.203125 
L 33.9375 71.578125 
L 41.109375 71.578125 
L 41.109375 25.203125 
L 50.78125 25.203125 
L 50.78125 17.140625 
L 41.109375 17.140625 
L 41.109375 0 
z
M 32.328125 25.203125 
L 32.328125 57.46875 
L 9.90625 25.203125 
z
" id="ArialMT-52"/>
      </defs>
      <g style="fill:#262626;" transform="translate(20.32024 164.466635)scale(0.11 -0.11)">
       <use transform="translate(0 0.201563)" xlink:href="#ArialMT-49"/>
       <use transform="translate(55.615234 0.201563)" xlink:href="#ArialMT-48"/>
       <use transform="translate(112.972813 69.895313)scale(0.7)" xlink:href="#ArialMT-8722"/>
       <use transform="translate(153.851719 69.895313)scale(0.7)" xlink:href="#ArialMT-52"/>
      </g>
     </g>
    </g>
    <g id="ytick_2">
     <g id="line2d_4">
      <path clip-path="url(#pec10a71300)" d="M 51.60024 93.726958 
L 268.90776 93.726958 
" style="fill:none;stroke:#ffffff;stroke-linecap:round;"/>
     </g>
     <g id="text_5">
      <!-- $\mathdefault{10^{-3}}$ -->
      <g style="fill:#262626;" transform="translate(20.32024 99.398833)scale(0.11 -0.11)">
       <use transform="translate(0 0.99375)" xlink:href="#ArialMT-49"/>
       <use transform="translate(55.615234 0.99375)" xlink:href="#ArialMT-48"/>
       <use transform="translate(112.972813 70.6875)scale(0.7)" xlink:href="#ArialMT-8722"/>
       <use transform="translate(153.851719 70.6875)scale(0.7)" xlink:href="#ArialMT-51"/>
      </g>
     </g>
    </g>
    <g id="ytick_3">
     <g id="line2d_5">
      <path clip-path="url(#pec10a71300)" d="M 51.60024 28.604157 
L 268.90776 28.604157 
" style="fill:none;stroke:#ffffff;stroke-linecap:round;"/>
     </g>
     <g id="text_6">
      <!-- $\mathdefault{10^{-2}}$ -->
      <g style="fill:#262626;" transform="translate(20.32024 34.276032)scale(0.11 -0.11)">
       <use transform="translate(0 0.99375)" xlink:href="#ArialMT-49"/>
       <use transform="translate(55.615234 0.99375)" xlink:href="#ArialMT-48"/>
       <use transform="translate(112.972813 70.6875)scale(0.7)" xlink:href="#ArialMT-8722"/>
       <use transform="translate(153.851719 70.6875)scale(0.7)" xlink:href="#ArialMT-50"/>
      </g>
     </g>
    </g>
    <g id="ytick_4"/>
    <g id="ytick_5"/>
    <g id="ytick_6"/>
    <g id="ytick_7"/>
    <g id="ytick_8"/>
    <g id="ytick_9"/>
    <g id="ytick_10"/>
    <g id="ytick_11"/>
    <g id="ytick_12"/>
    <g id="ytick_13"/>
    <g id="ytick_14"/>
    <g id="ytick_15"/>
    <g id="ytick_16"/>
    <g id="ytick_17"/>
    <g id="ytick_18"/>
    <g id="ytick_19"/>
    <g id="ytick_20"/>
    <g id="text_7">
     <!-- $L^2$ error of temperature -->
     <defs>
      <path d="M 16.796875 72.90625 
L 26.703125 72.90625 
L 14.203125 8.203125 
L 49.703125 8.203125 
L 48.09375 0 
L 2.6875 0 
z
" id="DejaVuSans-Oblique-76"/>
      <path d="M 19.1875 8.296875 
L 53.609375 8.296875 
L 53.609375 0 
L 7.328125 0 
L 7.328125 8.296875 
Q 12.9375 14.109375 22.625 23.890625 
Q 32.328125 33.6875 34.8125 36.53125 
Q 39.546875 41.84375 41.421875 45.53125 
Q 43.3125 49.21875 43.3125 52.78125 
Q 43.3125 58.59375 39.234375 62.25 
Q 35.15625 65.921875 28.609375 65.921875 
Q 23.96875 65.921875 18.8125 64.3125 
Q 13.671875 62.703125 7.8125 59.421875 
L 7.8125 69.390625 
Q 13.765625 71.78125 18.9375 73 
Q 24.125 74.21875 28.421875 74.21875 
Q 39.75 74.21875 46.484375 68.546875 
Q 53.21875 62.890625 53.21875 53.421875 
Q 53.21875 48.921875 51.53125 44.890625 
Q 49.859375 40.875 45.40625 35.40625 
Q 44.1875 33.984375 37.640625 27.21875 
Q 31.109375 20.453125 19.1875 8.296875 
z
" id="DejaVuSans-50"/>
      <path id="ArialMT-32"/>
      <path d="M 42.09375 16.703125 
L 51.171875 15.578125 
Q 49.03125 7.625 43.21875 3.21875 
Q 37.40625 -1.171875 28.375 -1.171875 
Q 17 -1.171875 10.328125 5.828125 
Q 3.65625 12.84375 3.65625 25.484375 
Q 3.65625 38.578125 10.390625 45.796875 
Q 17.140625 53.03125 27.875 53.03125 
Q 38.28125 53.03125 44.875 45.953125 
Q 51.46875 38.875 51.46875 26.03125 
Q 51.46875 25.25 51.421875 23.6875 
L 12.75 23.6875 
Q 13.234375 15.140625 17.578125 10.59375 
Q 21.921875 6.0625 28.421875 6.0625 
Q 33.25 6.0625 36.671875 8.59375 
Q 40.09375 11.140625 42.09375 16.703125 
z
M 13.234375 30.90625 
L 42.1875 30.90625 
Q 41.609375 37.453125 38.875 40.71875 
Q 34.671875 45.796875 27.984375 45.796875 
Q 21.921875 45.796875 17.796875 41.75 
Q 13.671875 37.703125 13.234375 30.90625 
z
" id="ArialMT-101"/>
      <path d="M 6.5 0 
L 6.5 51.859375 
L 14.40625 51.859375 
L 14.40625 44 
Q 17.4375 49.515625 20 51.265625 
Q 22.5625 53.03125 25.640625 53.03125 
Q 30.078125 53.03125 34.671875 50.203125 
L 31.640625 42.046875 
Q 28.421875 43.953125 25.203125 43.953125 
Q 22.3125 43.953125 20.015625 42.21875 
Q 17.71875 40.484375 16.75 37.40625 
Q 15.28125 32.71875 15.28125 27.15625 
L 15.28125 0 
z
" id="ArialMT-114"/>
      <path d="M 3.328125 25.921875 
Q 3.328125 40.328125 11.328125 47.265625 
Q 18.015625 53.03125 27.640625 53.03125 
Q 38.328125 53.03125 45.109375 46.015625 
Q 51.90625 39.015625 51.90625 26.65625 
Q 51.90625 16.65625 48.90625 10.90625 
Q 45.90625 5.171875 40.15625 2 
Q 34.421875 -1.171875 27.640625 -1.171875 
Q 16.75 -1.171875 10.03125 5.8125 
Q 3.328125 12.796875 3.328125 25.921875 
z
M 12.359375 25.921875 
Q 12.359375 15.96875 16.703125 11.015625 
Q 21.046875 6.0625 27.640625 6.0625 
Q 34.1875 6.0625 38.53125 11.03125 
Q 42.875 16.015625 42.875 26.21875 
Q 42.875 35.84375 38.5 40.796875 
Q 34.125 45.75 27.640625 45.75 
Q 21.046875 45.75 16.703125 40.8125 
Q 12.359375 35.890625 12.359375 25.921875 
z
" id="ArialMT-111"/>
      <path d="M 8.6875 0 
L 8.6875 45.015625 
L 0.921875 45.015625 
L 0.921875 51.859375 
L 8.6875 51.859375 
L 8.6875 57.375 
Q 8.6875 62.59375 9.625 65.140625 
Q 10.890625 68.5625 14.078125 70.671875 
Q 17.28125 72.796875 23.046875 72.796875 
Q 26.765625 72.796875 31.25 71.921875 
L 29.9375 64.265625 
Q 27.203125 64.75 24.75 64.75 
Q 20.75 64.75 19.09375 63.03125 
Q 17.4375 61.328125 17.4375 56.640625 
L 17.4375 51.859375 
L 27.546875 51.859375 
L 27.546875 45.015625 
L 17.4375 45.015625 
L 17.4375 0 
z
" id="ArialMT-102"/>
      <path d="M 25.78125 7.859375 
L 27.046875 0.09375 
Q 23.34375 -0.6875 20.40625 -0.6875 
Q 15.625 -0.6875 12.984375 0.828125 
Q 10.359375 2.34375 9.28125 4.8125 
Q 8.203125 7.28125 8.203125 15.1875 
L 8.203125 45.015625 
L 1.765625 45.015625 
L 1.765625 51.859375 
L 8.203125 51.859375 
L 8.203125 64.703125 
L 16.9375 69.96875 
L 16.9375 51.859375 
L 25.78125 51.859375 
L 25.78125 45.015625 
L 16.9375 45.015625 
L 16.9375 14.703125 
Q 16.9375 10.9375 17.40625 9.859375 
Q 17.875 8.796875 18.921875 8.15625 
Q 19.96875 7.515625 21.921875 7.515625 
Q 23.390625 7.515625 25.78125 7.859375 
z
" id="ArialMT-116"/>
      <path d="M 6.59375 0 
L 6.59375 51.859375 
L 14.453125 51.859375 
L 14.453125 44.578125 
Q 16.890625 48.390625 20.9375 50.703125 
Q 25 53.03125 30.171875 53.03125 
Q 35.9375 53.03125 39.625 50.640625 
Q 43.3125 48.25 44.828125 43.953125 
Q 50.984375 53.03125 60.84375 53.03125 
Q 68.5625 53.03125 72.703125 48.75 
Q 76.859375 44.484375 76.859375 35.59375 
L 76.859375 0 
L 68.109375 0 
L 68.109375 32.671875 
Q 68.109375 37.9375 67.25 40.25 
Q 66.40625 42.578125 64.15625 43.984375 
Q 61.921875 45.40625 58.890625 45.40625 
Q 53.421875 45.40625 49.796875 41.765625 
Q 46.1875 38.140625 46.1875 30.125 
L 46.1875 0 
L 37.40625 0 
L 37.40625 33.6875 
Q 37.40625 39.546875 35.25 42.46875 
Q 33.109375 45.40625 28.21875 45.40625 
Q 24.515625 45.40625 21.359375 43.453125 
Q 18.21875 41.5 16.796875 37.734375 
Q 15.375 33.984375 15.375 26.90625 
L 15.375 0 
z
" id="ArialMT-109"/>
      <path d="M 6.59375 -19.875 
L 6.59375 51.859375 
L 14.59375 51.859375 
L 14.59375 45.125 
Q 17.4375 49.078125 21 51.046875 
Q 24.5625 53.03125 29.640625 53.03125 
Q 36.28125 53.03125 41.359375 49.609375 
Q 46.4375 46.1875 49.015625 39.953125 
Q 51.609375 33.734375 51.609375 26.3125 
Q 51.609375 18.359375 48.75 11.984375 
Q 45.90625 5.609375 40.453125 2.21875 
Q 35.015625 -1.171875 29 -1.171875 
Q 24.609375 -1.171875 21.109375 0.6875 
Q 17.625 2.546875 15.375 5.375 
L 15.375 -19.875 
z
M 14.546875 25.640625 
Q 14.546875 15.625 18.59375 10.84375 
Q 22.65625 6.0625 28.421875 6.0625 
Q 34.28125 6.0625 38.453125 11.015625 
Q 42.625 15.96875 42.625 26.375 
Q 42.625 36.28125 38.546875 41.203125 
Q 34.46875 46.140625 28.8125 46.140625 
Q 23.1875 46.140625 18.859375 40.890625 
Q 14.546875 35.640625 14.546875 25.640625 
z
" id="ArialMT-112"/>
      <path d="M 40.4375 6.390625 
Q 35.546875 2.25 31.03125 0.53125 
Q 26.515625 -1.171875 21.34375 -1.171875 
Q 12.796875 -1.171875 8.203125 3 
Q 3.609375 7.171875 3.609375 13.671875 
Q 3.609375 17.484375 5.34375 20.625 
Q 7.078125 23.78125 9.890625 25.6875 
Q 12.703125 27.59375 16.21875 28.5625 
Q 18.796875 29.25 24.03125 29.890625 
Q 34.671875 31.15625 39.703125 32.90625 
Q 39.75 34.71875 39.75 35.203125 
Q 39.75 40.578125 37.25 42.78125 
Q 33.890625 45.75 27.25 45.75 
Q 21.046875 45.75 18.09375 43.578125 
Q 15.140625 41.40625 13.71875 35.890625 
L 5.125 37.0625 
Q 6.296875 42.578125 8.984375 45.96875 
Q 11.671875 49.359375 16.75 51.1875 
Q 21.828125 53.03125 28.515625 53.03125 
Q 35.15625 53.03125 39.296875 51.46875 
Q 43.453125 49.90625 45.40625 47.53125 
Q 47.359375 45.171875 48.140625 41.546875 
Q 48.578125 39.3125 48.578125 33.453125 
L 48.578125 21.734375 
Q 48.578125 9.46875 49.140625 6.21875 
Q 49.703125 2.984375 51.375 0 
L 42.1875 0 
Q 40.828125 2.734375 40.4375 6.390625 
z
M 39.703125 26.03125 
Q 34.90625 24.078125 25.34375 22.703125 
Q 19.921875 21.921875 17.671875 20.9375 
Q 15.4375 19.96875 14.203125 18.09375 
Q 12.984375 16.21875 12.984375 13.921875 
Q 12.984375 10.40625 15.640625 8.0625 
Q 18.3125 5.71875 23.4375 5.71875 
Q 28.515625 5.71875 32.46875 7.9375 
Q 36.421875 10.15625 38.28125 14.015625 
Q 39.703125 17 39.703125 22.796875 
z
" id="ArialMT-97"/>
      <path d="M 40.578125 0 
L 40.578125 7.625 
Q 34.515625 -1.171875 24.125 -1.171875 
Q 19.53125 -1.171875 15.546875 0.578125 
Q 11.578125 2.34375 9.640625 5 
Q 7.71875 7.671875 6.9375 11.53125 
Q 6.390625 14.109375 6.390625 19.734375 
L 6.390625 51.859375 
L 15.1875 51.859375 
L 15.1875 23.09375 
Q 15.1875 16.21875 15.71875 13.8125 
Q 16.546875 10.359375 19.234375 8.375 
Q 21.921875 6.390625 25.875 6.390625 
Q 29.828125 6.390625 33.296875 8.421875 
Q 36.765625 10.453125 38.203125 13.9375 
Q 39.65625 17.4375 39.65625 24.078125 
L 39.65625 51.859375 
L 48.4375 51.859375 
L 48.4375 0 
z
" id="ArialMT-117"/>
     </defs>
     <g style="fill:#262626;" transform="translate(13.92024 145.605)rotate(-90)scale(0.12 -0.12)">
      <use transform="translate(0 0.765625)" xlink:href="#DejaVuSans-Oblique-76"/>
      <use transform="translate(62.729661 39.046875)scale(0.7)" xlink:href="#DejaVuSans-50"/>
      <use transform="translate(110.000169 0.765625)" xlink:href="#ArialMT-32"/>
      <use transform="translate(137.783372 0.765625)" xlink:href="#ArialMT-101"/>
      <use transform="translate(193.398607 0.765625)" xlink:href="#ArialMT-114"/>
      <use transform="translate(226.699388 0.765625)" xlink:href="#ArialMT-114"/>
      <use transform="translate(260.000169 0.765625)" xlink:href="#ArialMT-111"/>
      <use transform="translate(315.615404 0.765625)" xlink:href="#ArialMT-114"/>
      <use transform="translate(348.916185 0.765625)" xlink:href="#ArialMT-32"/>
      <use transform="translate(376.699388 0.765625)" xlink:href="#ArialMT-111"/>
      <use transform="translate(432.314622 0.765625)" xlink:href="#ArialMT-102"/>
      <use transform="translate(460.097826 0.765625)" xlink:href="#ArialMT-32"/>
      <use transform="translate(487.881029 0.765625)" xlink:href="#ArialMT-116"/>
      <use transform="translate(515.664232 0.765625)" xlink:href="#ArialMT-101"/>
      <use transform="translate(571.279466 0.765625)" xlink:href="#ArialMT-109"/>
      <use transform="translate(654.580247 0.765625)" xlink:href="#ArialMT-112"/>
      <use transform="translate(710.195482 0.765625)" xlink:href="#ArialMT-101"/>
      <use transform="translate(765.810716 0.765625)" xlink:href="#ArialMT-114"/>
      <use transform="translate(799.111497 0.765625)" xlink:href="#ArialMT-97"/>
      <use transform="translate(854.726732 0.765625)" xlink:href="#ArialMT-116"/>
      <use transform="translate(882.509935 0.765625)" xlink:href="#ArialMT-117"/>
      <use transform="translate(938.125169 0.765625)" xlink:href="#ArialMT-114"/>
      <use transform="translate(971.425951 0.765625)" xlink:href="#ArialMT-101"/>
     </g>
    </g>
   </g>
   <g id="PathCollection_1">
    <defs>
     <path d="M 0 3 
C 0.795609 3 1.55874 2.683901 2.12132 2.12132 
C 2.683901 1.55874 3 0.795609 3 0 
C 3 -0.795609 2.683901 -1.55874 2.12132 -2.12132 
C 1.55874 -2.683901 0.795609 -3 0 -3 
C -0.795609 -3 -1.55874 -2.683901 -2.12132 -2.12132 
C -2.683901 -1.55874 -3 -0.795609 -3 0 
C -3 0.795609 -2.683901 1.55874 -2.12132 2.12132 
C -1.55874 2.683901 -0.795609 3 0 3 
z
" id="C0_0_c48d05ee58"/>
    </defs>
    <g clip-path="url(#pec10a71300)">
     <use style="fill:#ad1759;stroke:#1a1a1a;" x="160.258389" xlink:href="#C0_0_c48d05ee58" y="81.104688"/>
    </g>
    <g clip-path="url(#pec10a71300)">
     <use style="fill:#35193e;stroke:#1a1a1a;" x="61.486633" xlink:href="#C0_0_c48d05ee58" y="24.796658"/>
    </g>
    <g clip-path="url(#pec10a71300)">
     <use style="fill:#e13342;stroke:#1a1a1a;" x="160.258389" xlink:href="#C0_0_c48d05ee58" y="107.839246"/>
    </g>
    <g clip-path="url(#pec10a71300)">
     <use style="fill:#701f57;stroke:#1a1a1a;" x="110.872511" xlink:href="#C0_0_c48d05ee58" y="52.826362"/>
    </g>
    <g clip-path="url(#pec10a71300)">
     <use style="fill:#ad1759;stroke:#1a1a1a;" x="61.486633" xlink:href="#C0_0_c48d05ee58" y="73.247215"/>
    </g>
    <g clip-path="url(#pec10a71300)">
     <use style="fill:#e13342;stroke:#1a1a1a;" x="110.872511" xlink:href="#C0_0_c48d05ee58" y="100.551832"/>
    </g>
    <g clip-path="url(#pec10a71300)">
     <use style="fill:#e13342;stroke:#1a1a1a;" x="61.486633" xlink:href="#C0_0_c48d05ee58" y="79.319973"/>
    </g>
    <g clip-path="url(#pec10a71300)">
     <use style="fill:#701f57;stroke:#1a1a1a;" x="61.486633" xlink:href="#C0_0_c48d05ee58" y="51.816253"/>
    </g>
    <g clip-path="url(#pec10a71300)">
     <use style="fill:#f37651;stroke:#1a1a1a;" x="160.258389" xlink:href="#C0_0_c48d05ee58" y="124.486753"/>
    </g>
    <g clip-path="url(#pec10a71300)">
     <use style="fill:#ad1759;stroke:#1a1a1a;" x="110.872511" xlink:href="#C0_0_c48d05ee58" y="79.271291"/>
    </g>
    <g clip-path="url(#pec10a71300)">
     <use style="fill:#f37651;stroke:#1a1a1a;" x="209.644267" xlink:href="#C0_0_c48d05ee58" y="134.378639"/>
    </g>
    <g clip-path="url(#pec10a71300)">
     <use style="fill:#e13342;stroke:#1a1a1a;" x="209.644267" xlink:href="#C0_0_c48d05ee58" y="111.069889"/>
    </g>
   </g>
   <g id="line2d_6">
    <path clip-path="url(#pec10a71300)" d="M 80.687813 -1 
L 81.644135 -0.240769 
L 85.675635 2.959871 
L 89.707135 6.16051 
L 93.738635 9.361149 
L 97.770136 12.561789 
L 101.801636 15.762428 
L 105.833136 18.963068 
L 109.864636 22.163707 
L 113.896137 25.364347 
L 117.927637 28.564986 
L 121.959137 31.765626 
L 125.990637 34.966265 
L 130.022138 38.166905 
L 134.053638 41.367544 
L 138.085138 44.568184 
L 142.116638 47.768823 
L 146.148139 50.969462 
L 150.179639 54.170102 
L 154.211139 57.370741 
L 158.242639 60.571381 
L 162.27414 63.77202 
L 166.30564 66.97266 
L 170.33714 70.173299 
L 174.36864 73.373939 
L 178.400141 76.574578 
L 182.431641 79.775218 
L 186.463141 82.975857 
L 190.494641 86.176497 
L 194.526142 89.377136 
L 198.557642 92.577775 
L 202.589142 95.778415 
L 206.620642 98.979054 
L 210.652143 102.179694 
L 214.683643 105.380333 
L 218.715143 108.580973 
L 222.746643 111.781612 
L 226.778144 114.982252 
L 230.809644 118.182891 
L 234.841144 121.383531 
L 238.872644 124.58417 
L 242.904144 127.78481 
L 246.935645 130.985449 
L 250.967145 134.186088 
L 254.998645 137.386728 
L 259.030145 140.587367 
" style="fill:none;stroke:#1a1a1a;stroke-dasharray:5.55,2.4;stroke-dashoffset:0;stroke-width:1.5;"/>
   </g>
   <g id="line2d_7">
    <path clip-path="url(#pec10a71300)" d="M 61.486633 100.708772 
L 65.518134 102.309092 
L 69.549634 103.909411 
L 73.581134 105.509731 
L 77.612634 107.110051 
L 81.644135 108.710371 
L 85.675635 110.31069 
L 89.707135 111.91101 
L 93.738635 113.51133 
L 97.770136 115.11165 
L 101.801636 116.711969 
L 105.833136 118.312289 
L 109.864636 119.912609 
L 113.896137 121.512928 
L 117.927637 123.113248 
L 121.959137 124.713568 
L 125.990637 126.313888 
L 130.022138 127.914207 
L 134.053638 129.514527 
L 138.085138 131.114847 
L 142.116638 132.715167 
L 146.148139 134.315486 
L 150.179639 135.915806 
L 154.211139 137.516126 
L 158.242639 139.116445 
L 162.27414 140.716765 
L 166.30564 142.317085 
L 170.33714 143.917405 
L 174.36864 145.517724 
L 178.400141 147.118044 
L 182.431641 148.718364 
L 186.463141 150.318684 
L 190.494641 151.919003 
L 194.526142 153.519323 
L 198.557642 155.119643 
L 202.589142 156.719963 
L 206.620642 158.320282 
L 210.652143 159.920602 
L 214.683643 161.520922 
L 218.715143 163.121241 
L 222.746643 164.721561 
L 226.778144 166.321881 
L 230.809644 167.922201 
L 234.841144 169.52252 
L 238.872644 171.12284 
L 242.904144 172.72316 
L 246.935645 174.32348 
L 250.967145 175.923799 
L 254.998645 177.524119 
L 259.030145 179.124439 
" style="fill:none;stroke:#1a1a1a;stroke-dasharray:5.55,2.4;stroke-dashoffset:0;stroke-width:1.5;"/>
   </g>
   <g id="patch_3">
    <path d="M 51.60024 158.84976 
L 51.60024 9.00024 
" style="fill:none;stroke:#ffffff;stroke-linecap:square;stroke-linejoin:miter;stroke-width:1.25;"/>
   </g>
   <g id="patch_4">
    <path d="M 268.90776 158.84976 
L 268.90776 9.00024 
" style="fill:none;stroke:#ffffff;stroke-linecap:square;stroke-linejoin:miter;stroke-width:1.25;"/>
   </g>
   <g id="patch_5">
    <path d="M 51.60024 158.84976 
L 268.90776 158.84976 
" style="fill:none;stroke:#ffffff;stroke-linecap:square;stroke-linejoin:miter;stroke-width:1.25;"/>
   </g>
   <g id="patch_6">
    <path d="M 51.60024 9.00024 
L 268.90776 9.00024 
" style="fill:none;stroke:#ffffff;stroke-linecap:square;stroke-linejoin:miter;stroke-width:1.25;"/>
   </g>
   <g id="text_8">
    <!-- $N^{-2}$ -->
    <defs>
     <path d="M 10.59375 35.5 
L 73.1875 35.5 
L 73.1875 27.203125 
L 10.59375 27.203125 
z
" id="DejaVuSans-8722"/>
    </defs>
    <g style="fill:#262626;" transform="translate(171.558801 62.655486)scale(0.12 -0.12)">
     <use transform="translate(0 0.765625)" xlink:href="#DejaVuSans-Oblique-78"/>
     <use transform="translate(81.821458 39.046875)scale(0.7)" xlink:href="#DejaVuSans-8722"/>
     <use transform="translate(140.473802 39.046875)scale(0.7)" xlink:href="#DejaVuSans-50"/>
    </g>
   </g>
   <g id="text_9">
    <!-- $N^{-1}$ -->
    <defs>
     <path d="M 12.40625 8.296875 
L 28.515625 8.296875 
L 28.515625 63.921875 
L 10.984375 60.40625 
L 10.984375 69.390625 
L 28.421875 72.90625 
L 38.28125 72.90625 
L 38.28125 8.296875 
L 54.390625 8.296875 
L 54.390625 0 
L 12.40625 0 
z
" id="DejaVuSans-49"/>
    </defs>
    <g style="fill:#262626;" transform="translate(106.274222 147.382204)scale(0.12 -0.12)">
     <use transform="translate(0 0.684375)" xlink:href="#DejaVuSans-Oblique-78"/>
     <use transform="translate(81.821458 38.965625)scale(0.7)" xlink:href="#DejaVuSans-8722"/>
     <use transform="translate(140.473802 38.965625)scale(0.7)" xlink:href="#DejaVuSans-49"/>
    </g>
   </g>
  </g>
  <g id="axes_2">
   <g id="patch_7">
    <path d="M 292.09224 158.84976 
L 509.39976 158.84976 
L 509.39976 9.00024 
L 292.09224 9.00024 
z
" style="fill:#eaeaf2;"/>
   </g>
   <g id="matplotlib.axis_3">
    <g id="xtick_15">
     <g id="line2d_8">
      <path clip-path="url(#p4eddf1f00a)" d="M 333.775948 158.84976 
L 333.775948 9.00024 
" style="fill:none;stroke:#ffffff;stroke-linecap:round;"/>
     </g>
     <g id="text_10">
      <!-- $\mathdefault{10^{2}}$ -->
      <g style="fill:#262626;" transform="translate(325.140948 179.69351)scale(0.11 -0.11)">
       <use transform="translate(0 0.99375)" xlink:href="#ArialMT-49"/>
       <use transform="translate(55.615234 0.99375)" xlink:href="#ArialMT-48"/>
       <use transform="translate(112.972813 70.6875)scale(0.7)" xlink:href="#ArialMT-50"/>
      </g>
     </g>
    </g>
    <g id="xtick_16">
     <g id="line2d_9">
      <path clip-path="url(#p4eddf1f00a)" d="M 497.831828 158.84976 
L 497.831828 9.00024 
" style="fill:none;stroke:#ffffff;stroke-linecap:round;"/>
     </g>
     <g id="text_11">
      <!-- $\mathdefault{10^{3}}$ -->
      <g style="fill:#262626;" transform="translate(489.196828 179.69351)scale(0.11 -0.11)">
       <use transform="translate(0 0.99375)" xlink:href="#ArialMT-49"/>
       <use transform="translate(55.615234 0.99375)" xlink:href="#ArialMT-48"/>
       <use transform="translate(112.972813 70.6875)scale(0.7)" xlink:href="#ArialMT-51"/>
      </g>
     </g>
    </g>
    <g id="xtick_17"/>
    <g id="xtick_18"/>
    <g id="xtick_19"/>
    <g id="xtick_20"/>
    <g id="xtick_21"/>
    <g id="xtick_22"/>
    <g id="xtick_23"/>
    <g id="xtick_24"/>
    <g id="xtick_25"/>
    <g id="xtick_26"/>
    <g id="xtick_27"/>
    <g id="xtick_28"/>
    <g id="text_12">
     <!-- $N_x^r$ -->
     <defs>
      <path d="M 44.578125 46.390625 
Q 43.21875 47.125 41.453125 47.515625 
Q 39.703125 47.90625 37.703125 47.90625 
Q 30.515625 47.90625 25.140625 42.453125 
Q 19.78125 37.015625 18.015625 27.875 
L 12.5 0 
L 3.515625 0 
L 14.203125 54.6875 
L 23.1875 54.6875 
L 21.484375 46.1875 
Q 25.046875 50.921875 30 53.453125 
Q 34.96875 56 40.578125 56 
Q 42.046875 56 43.453125 55.828125 
Q 44.875 55.671875 46.296875 55.28125 
z
" id="DejaVuSans-Oblique-114"/>
     </defs>
     <g style="fill:#262626;" transform="translate(393.606 195.23976)scale(0.12 -0.12)">
      <use transform="translate(0 0.51875)" xlink:href="#DejaVuSans-Oblique-78"/>
      <use transform="translate(81.821458 38.8)scale(0.7)" xlink:href="#DejaVuSans-Oblique-114"/>
      <use transform="translate(74.804688 -26.825)scale(0.7)" xlink:href="#DejaVuSans-Oblique-120"/>
     </g>
    </g>
   </g>
   <g id="matplotlib.axis_4">
    <g id="ytick_21">
     <g id="line2d_10">
      <path clip-path="url(#p4eddf1f00a)" d="M 292.09224 158.84976 
L 509.39976 158.84976 
" style="fill:none;stroke:#ffffff;stroke-linecap:round;"/>
     </g>
    </g>
    <g id="ytick_22">
     <g id="line2d_11">
      <path clip-path="url(#p4eddf1f00a)" d="M 292.09224 93.726958 
L 509.39976 93.726958 
" style="fill:none;stroke:#ffffff;stroke-linecap:round;"/>
     </g>
    </g>
    <g id="ytick_23">
     <g id="line2d_12">
      <path clip-path="url(#p4eddf1f00a)" d="M 292.09224 28.604157 
L 509.39976 28.604157 
" style="fill:none;stroke:#ffffff;stroke-linecap:round;"/>
     </g>
    </g>
    <g id="ytick_24"/>
    <g id="ytick_25"/>
    <g id="ytick_26"/>
    <g id="ytick_27"/>
    <g id="ytick_28"/>
    <g id="ytick_29"/>
    <g id="ytick_30"/>
    <g id="ytick_31"/>
    <g id="ytick_32"/>
    <g id="ytick_33"/>
    <g id="ytick_34"/>
    <g id="ytick_35"/>
    <g id="ytick_36"/>
    <g id="ytick_37"/>
    <g id="ytick_38"/>
    <g id="ytick_39"/>
    <g id="ytick_40"/>
   </g>
   <g id="PathCollection_2">
    <defs>
     <path d="M 0 3 
C 0.795609 3 1.55874 2.683901 2.12132 2.12132 
C 2.683901 1.55874 3 0.795609 3 0 
C 3 -0.795609 2.683901 -1.55874 2.12132 -2.12132 
C 1.55874 -2.683901 0.795609 -3 0 -3 
C -0.795609 -3 -1.55874 -2.683901 -2.12132 -2.12132 
C -2.683901 -1.55874 -3 -0.795609 -3 0 
C -3 0.795609 -2.683901 1.55874 -2.12132 2.12132 
C -1.55874 2.683901 -0.795609 3 0 3 
z
" id="C1_0_67c0a7db67"/>
    </defs>
    <g clip-path="url(#p4eddf1f00a)">
     <use style="fill:#ad1759;stroke:#1a1a1a;" x="400.750115" xlink:href="#C1_0_67c0a7db67" y="81.104688"/>
    </g>
    <g clip-path="url(#p4eddf1f00a)">
     <use style="fill:#35193e;stroke:#1a1a1a;" x="301.978633" xlink:href="#C1_0_67c0a7db67" y="24.796658"/>
    </g>
    <g clip-path="url(#p4eddf1f00a)">
     <use style="fill:#e13342;stroke:#1a1a1a;" x="450.135856" xlink:href="#C1_0_67c0a7db67" y="107.839246"/>
    </g>
    <g clip-path="url(#p4eddf1f00a)">
     <use style="fill:#701f57;stroke:#1a1a1a;" x="351.364374" xlink:href="#C1_0_67c0a7db67" y="52.826362"/>
    </g>
    <g clip-path="url(#p4eddf1f00a)">
     <use style="fill:#ad1759;stroke:#1a1a1a;" x="400.750115" xlink:href="#C1_0_67c0a7db67" y="73.247215"/>
    </g>
    <g clip-path="url(#p4eddf1f00a)">
     <use style="fill:#e13342;stroke:#1a1a1a;" x="450.135856" xlink:href="#C1_0_67c0a7db67" y="100.551832"/>
    </g>
    <g clip-path="url(#p4eddf1f00a)">
     <use style="fill:#e13342;stroke:#1a1a1a;" x="450.135856" xlink:href="#C1_0_67c0a7db67" y="79.319973"/>
    </g>
    <g clip-path="url(#p4eddf1f00a)">
     <use style="fill:#701f57;stroke:#1a1a1a;" x="351.364374" xlink:href="#C1_0_67c0a7db67" y="51.816253"/>
    </g>
    <g clip-path="url(#p4eddf1f00a)">
     <use style="fill:#f37651;stroke:#1a1a1a;" x="499.521597" xlink:href="#C1_0_67c0a7db67" y="124.486753"/>
    </g>
    <g clip-path="url(#p4eddf1f00a)">
     <use style="fill:#ad1759;stroke:#1a1a1a;" x="400.750115" xlink:href="#C1_0_67c0a7db67" y="79.271291"/>
    </g>
    <g clip-path="url(#p4eddf1f00a)">
     <use style="fill:#f37651;stroke:#1a1a1a;" x="499.521597" xlink:href="#C1_0_67c0a7db67" y="134.378639"/>
    </g>
    <g clip-path="url(#p4eddf1f00a)">
     <use style="fill:#e13342;stroke:#1a1a1a;" x="450.135856" xlink:href="#C1_0_67c0a7db67" y="111.069889"/>
    </g>
   </g>
   <g id="line2d_13">
    <path clip-path="url(#p4eddf1f00a)" d="M 345.87263 -1 
L 346.325013 -0.640849 
L 350.356502 2.559791 
L 354.387991 5.76043 
L 358.41948 8.96107 
L 362.450969 12.161709 
L 366.482458 15.362348 
L 370.513947 18.562988 
L 374.545436 21.763627 
L 378.576925 24.964267 
L 382.608414 28.164906 
L 386.639903 31.365546 
L 390.671393 34.566185 
L 394.702882 37.766825 
L 398.734371 40.967464 
L 402.76586 44.168104 
L 406.797349 47.368743 
L 410.828838 50.569383 
L 414.860327 53.770022 
L 418.891816 56.970661 
L 422.923305 60.171301 
L 426.954794 63.37194 
L 430.986283 66.57258 
L 435.017772 69.773219 
L 439.049261 72.973859 
L 443.08075 76.174498 
L 447.112239 79.375138 
L 451.143728 82.575777 
L 455.175217 85.776417 
L 459.206706 88.977056 
L 463.238195 92.177696 
L 467.269684 95.378335 
L 471.301173 98.578974 
L 475.332663 101.779614 
L 479.364152 104.980253 
L 483.395641 108.180893 
L 487.42713 111.381532 
L 491.458619 114.582172 
L 495.490108 117.782811 
L 499.521597 120.983451 
" style="fill:none;stroke:#1a1a1a;stroke-dasharray:5.55,2.4;stroke-dashoffset:0;stroke-width:1.5;"/>
   </g>
   <g id="line2d_14">
    <path clip-path="url(#p4eddf1f00a)" d="M 301.978633 61.500939 
L 306.010123 63.101258 
L 310.041612 64.701578 
L 314.073101 66.301898 
L 318.10459 67.902217 
L 322.136079 69.502537 
L 326.167568 71.102857 
L 330.199057 72.703177 
L 334.230546 74.303496 
L 338.262035 75.903816 
L 342.293524 77.504136 
L 346.325013 79.104456 
L 350.356502 80.704775 
L 354.387991 82.305095 
L 358.41948 83.905415 
L 362.450969 85.505734 
L 366.482458 87.106054 
L 370.513947 88.706374 
L 374.545436 90.306694 
L 378.576925 91.907013 
L 382.608414 93.507333 
L 386.639903 95.107653 
L 390.671393 96.707973 
L 394.702882 98.308292 
L 398.734371 99.908612 
L 402.76586 101.508932 
L 406.797349 103.109252 
L 410.828838 104.709571 
L 414.860327 106.309891 
L 418.891816 107.910211 
L 422.923305 109.51053 
L 426.954794 111.11085 
L 430.986283 112.71117 
L 435.017772 114.31149 
L 439.049261 115.911809 
L 443.08075 117.512129 
L 447.112239 119.112449 
L 451.143728 120.712769 
L 455.175217 122.313088 
L 459.206706 123.913408 
L 463.238195 125.513728 
L 467.269684 127.114047 
L 471.301173 128.714367 
L 475.332663 130.314687 
L 479.364152 131.915007 
L 483.395641 133.515326 
L 487.42713 135.115646 
L 491.458619 136.715966 
L 495.490108 138.316286 
L 499.521597 139.916605 
" style="fill:none;stroke:#1a1a1a;stroke-dasharray:5.55,2.4;stroke-dashoffset:0;stroke-width:1.5;"/>
   </g>
   <g id="patch_8">
    <path d="M 292.09224 158.84976 
L 292.09224 9.00024 
" style="fill:none;stroke:#ffffff;stroke-linecap:square;stroke-linejoin:miter;stroke-width:1.25;"/>
   </g>
   <g id="patch_9">
    <path d="M 509.39976 158.84976 
L 509.39976 9.00024 
" style="fill:none;stroke:#ffffff;stroke-linecap:square;stroke-linejoin:miter;stroke-width:1.25;"/>
   </g>
   <g id="patch_10">
    <path d="M 292.09224 158.84976 
L 509.39976 158.84976 
" style="fill:none;stroke:#ffffff;stroke-linecap:square;stroke-linejoin:miter;stroke-width:1.25;"/>
   </g>
   <g id="patch_11">
    <path d="M 292.09224 9.00024 
L 509.39976 9.00024 
" style="fill:none;stroke:#ffffff;stroke-linecap:square;stroke-linejoin:miter;stroke-width:1.25;"/>
   </g>
   <g id="text_13">
    <!-- $N^{-2}$ -->
    <g style="fill:#262626;" transform="translate(423.03351 54.519125)scale(0.12 -0.12)">
     <use transform="translate(0 0.765625)" xlink:href="#DejaVuSans-Oblique-78"/>
     <use transform="translate(81.821458 39.046875)scale(0.7)" xlink:href="#DejaVuSans-8722"/>
     <use transform="translate(140.473802 39.046875)scale(0.7)" xlink:href="#DejaVuSans-50"/>
    </g>
   </g>
   <g id="text_14">
    <!-- $N^{-1}$ -->
    <g style="fill:#262626;" transform="translate(399.060347 127.778287)scale(0.12 -0.12)">
     <use transform="translate(0 0.684375)" xlink:href="#DejaVuSans-Oblique-78"/>
     <use transform="translate(81.821458 38.965625)scale(0.7)" xlink:href="#DejaVuSans-8722"/>
     <use transform="translate(140.473802 38.965625)scale(0.7)" xlink:href="#DejaVuSans-49"/>
    </g>
   </g>
  </g>
 </g>
 <defs>
  <clipPath id="pec10a71300">
   <rect height="149.84952" width="217.30752" x="51.60024" y="9.00024"/>
  </clipPath>
  <clipPath id="p4eddf1f00a">
   <rect height="149.84952" width="217.30752" x="292.09224" y="9.00024"/>
  </clipPath>
 </defs>
</svg>
