<?xml version="1.0" encoding="utf-8" standalone="no"?>
<!DOCTYPE svg PUBLIC "-//W3C//DTD SVG 1.1//EN"
  "http://www.w3.org/Graphics/SVG/1.1/DTD/svg11.dtd">
<svg xmlns:xlink="http://www.w3.org/1999/xlink" width="432pt" height="144pt" viewBox="0 0 432 144" xmlns="http://www.w3.org/2000/svg" version="1.1">
 <metadata>
  <rdf:RDF xmlns:dc="http://purl.org/dc/elements/1.1/" xmlns:cc="http://creativecommons.org/ns#" xmlns:rdf="http://www.w3.org/1999/02/22-rdf-syntax-ns#">
   <cc:Work>
    <dc:type rdf:resource="http://purl.org/dc/dcmitype/StillImage"/>
    <dc:date>2023-09-19T15:49:30.070746</dc:date>
    <dc:format>image/svg+xml</dc:format>
    <dc:creator>
     <cc:Agent>
      <dc:title>Matplotlib v3.7.2, https://matplotlib.org/</dc:title>
     </cc:Agent>
    </dc:creator>
   </cc:Work>
  </rdf:RDF>
 </metadata>
 <defs>
  <style type="text/css">*{stroke-linejoin: round; stroke-linecap: butt}</style>
 </defs>
 <g id="figure_1">
  <g id="patch_1">
   <path d="M 0 144 
L 432 144 
L 432 0 
L 0 0 
z
" style="fill: #ffffff"/>
  </g>
  <g id="axes_1">
   <g id="patch_2">
    <path d="M 44.58774 110.64351 
L 419.45601 110.64351 
L 419.45601 6.799459 
L 44.58774 6.799459 
z
" style="fill: #ffffff"/>
   </g>
   <g id="matplotlib.axis_1">
    <g id="xtick_1">
     <g id="line2d_1">
      <path d="M 44.58774 110.64351 
L 44.58774 6.799459 
" clip-path="url(#p2f81c42c25)" style="fill: none; stroke: #b0b0b0; stroke-width: 0.8; stroke-linecap: square"/>
     </g>
     <g id="line2d_2">
      <defs>
       <path id="mf92aa1d103" d="M 0 0 
L 0 3.5 
" style="stroke: #000000; stroke-width: 0.8"/>
      </defs>
      <g>
       <use xlink:href="#mf92aa1d103" x="44.58774" y="110.64351" style="stroke: #000000; stroke-width: 0.8"/>
      </g>
     </g>
     <g id="text_1">
      <!-- 0 -->
      <g transform="translate(41.40649 125.241948) scale(0.1 -0.1)">
       <defs>
        <path id="DejaVuSans-30" d="M 2034 4250 
Q 1547 4250 1301 3770 
Q 1056 3291 1056 2328 
Q 1056 1369 1301 889 
Q 1547 409 2034 409 
Q 2525 409 2770 889 
Q 3016 1369 3016 2328 
Q 3016 3291 2770 3770 
Q 2525 4250 2034 4250 
z
M 2034 4750 
Q 2819 4750 3233 4129 
Q 3647 3509 3647 2328 
Q 3647 1150 3233 529 
Q 2819 -91 2034 -91 
Q 1250 -91 836 529 
Q 422 1150 422 2328 
Q 422 3509 836 4129 
Q 1250 4750 2034 4750 
z
" transform="scale(0.015625)"/>
       </defs>
       <use xlink:href="#DejaVuSans-30"/>
      </g>
     </g>
    </g>
    <g id="xtick_2">
     <g id="line2d_3">
      <path d="M 91.446274 110.64351 
L 91.446274 6.799459 
" clip-path="url(#p2f81c42c25)" style="fill: none; stroke: #b0b0b0; stroke-width: 0.8; stroke-linecap: square"/>
     </g>
     <g id="line2d_4">
      <g>
       <use xlink:href="#mf92aa1d103" x="91.446274" y="110.64351" style="stroke: #000000; stroke-width: 0.8"/>
      </g>
     </g>
     <g id="text_2">
      <!-- 25 -->
      <g transform="translate(85.083774 125.241948) scale(0.1 -0.1)">
       <defs>
        <path id="DejaVuSans-32" d="M 1228 531 
L 3431 531 
L 3431 0 
L 469 0 
L 469 531 
Q 828 903 1448 1529 
Q 2069 2156 2228 2338 
Q 2531 2678 2651 2914 
Q 2772 3150 2772 3378 
Q 2772 3750 2511 3984 
Q 2250 4219 1831 4219 
Q 1534 4219 1204 4116 
Q 875 4013 500 3803 
L 500 4441 
Q 881 4594 1212 4672 
Q 1544 4750 1819 4750 
Q 2544 4750 2975 4387 
Q 3406 4025 3406 3419 
Q 3406 3131 3298 2873 
Q 3191 2616 2906 2266 
Q 2828 2175 2409 1742 
Q 1991 1309 1228 531 
z
" transform="scale(0.015625)"/>
        <path id="DejaVuSans-35" d="M 691 4666 
L 3169 4666 
L 3169 4134 
L 1269 4134 
L 1269 2991 
Q 1406 3038 1543 3061 
Q 1681 3084 1819 3084 
Q 2600 3084 3056 2656 
Q 3513 2228 3513 1497 
Q 3513 744 3044 326 
Q 2575 -91 1722 -91 
Q 1428 -91 1123 -41 
Q 819 9 494 109 
L 494 744 
Q 775 591 1075 516 
Q 1375 441 1709 441 
Q 2250 441 2565 725 
Q 2881 1009 2881 1497 
Q 2881 1984 2565 2268 
Q 2250 2553 1709 2553 
Q 1456 2553 1204 2497 
Q 953 2441 691 2322 
L 691 4666 
z
" transform="scale(0.015625)"/>
       </defs>
       <use xlink:href="#DejaVuSans-32"/>
       <use xlink:href="#DejaVuSans-35" x="63.623047"/>
      </g>
     </g>
    </g>
    <g id="xtick_3">
     <g id="line2d_5">
      <path d="M 138.304808 110.64351 
L 138.304808 6.799459 
" clip-path="url(#p2f81c42c25)" style="fill: none; stroke: #b0b0b0; stroke-width: 0.8; stroke-linecap: square"/>
     </g>
     <g id="line2d_6">
      <g>
       <use xlink:href="#mf92aa1d103" x="138.304808" y="110.64351" style="stroke: #000000; stroke-width: 0.8"/>
      </g>
     </g>
     <g id="text_3">
      <!-- 50 -->
      <g transform="translate(131.942307 125.241948) scale(0.1 -0.1)">
       <use xlink:href="#DejaVuSans-35"/>
       <use xlink:href="#DejaVuSans-30" x="63.623047"/>
      </g>
     </g>
    </g>
    <g id="xtick_4">
     <g id="line2d_7">
      <path d="M 185.163341 110.64351 
L 185.163341 6.799459 
" clip-path="url(#p2f81c42c25)" style="fill: none; stroke: #b0b0b0; stroke-width: 0.8; stroke-linecap: square"/>
     </g>
     <g id="line2d_8">
      <g>
       <use xlink:href="#mf92aa1d103" x="185.163341" y="110.64351" style="stroke: #000000; stroke-width: 0.8"/>
      </g>
     </g>
     <g id="text_4">
      <!-- 75 -->
      <g transform="translate(178.800841 125.241948) scale(0.1 -0.1)">
       <defs>
        <path id="DejaVuSans-37" d="M 525 4666 
L 3525 4666 
L 3525 4397 
L 1831 0 
L 1172 0 
L 2766 4134 
L 525 4134 
L 525 4666 
z
" transform="scale(0.015625)"/>
       </defs>
       <use xlink:href="#DejaVuSans-37"/>
       <use xlink:href="#DejaVuSans-35" x="63.623047"/>
      </g>
     </g>
    </g>
    <g id="xtick_5">
     <g id="line2d_9">
      <path d="M 232.021875 110.64351 
L 232.021875 6.799459 
" clip-path="url(#p2f81c42c25)" style="fill: none; stroke: #b0b0b0; stroke-width: 0.8; stroke-linecap: square"/>
     </g>
     <g id="line2d_10">
      <g>
       <use xlink:href="#mf92aa1d103" x="232.021875" y="110.64351" style="stroke: #000000; stroke-width: 0.8"/>
      </g>
     </g>
     <g id="text_5">
      <!-- 100 -->
      <g transform="translate(222.478125 125.241948) scale(0.1 -0.1)">
       <defs>
        <path id="DejaVuSans-31" d="M 794 531 
L 1825 531 
L 1825 4091 
L 703 3866 
L 703 4441 
L 1819 4666 
L 2450 4666 
L 2450 531 
L 3481 531 
L 3481 0 
L 794 0 
L 794 531 
z
" transform="scale(0.015625)"/>
       </defs>
       <use xlink:href="#DejaVuSans-31"/>
       <use xlink:href="#DejaVuSans-30" x="63.623047"/>
       <use xlink:href="#DejaVuSans-30" x="127.246094"/>
      </g>
     </g>
    </g>
    <g id="xtick_6">
     <g id="line2d_11">
      <path d="M 278.880409 110.64351 
L 278.880409 6.799459 
" clip-path="url(#p2f81c42c25)" style="fill: none; stroke: #b0b0b0; stroke-width: 0.8; stroke-linecap: square"/>
     </g>
     <g id="line2d_12">
      <g>
       <use xlink:href="#mf92aa1d103" x="278.880409" y="110.64351" style="stroke: #000000; stroke-width: 0.8"/>
      </g>
     </g>
     <g id="text_6">
      <!-- 125 -->
      <g transform="translate(269.336659 125.241948) scale(0.1 -0.1)">
       <use xlink:href="#DejaVuSans-31"/>
       <use xlink:href="#DejaVuSans-32" x="63.623047"/>
       <use xlink:href="#DejaVuSans-35" x="127.246094"/>
      </g>
     </g>
    </g>
    <g id="xtick_7">
     <g id="line2d_13">
      <path d="M 325.738943 110.64351 
L 325.738943 6.799459 
" clip-path="url(#p2f81c42c25)" style="fill: none; stroke: #b0b0b0; stroke-width: 0.8; stroke-linecap: square"/>
     </g>
     <g id="line2d_14">
      <g>
       <use xlink:href="#mf92aa1d103" x="325.738943" y="110.64351" style="stroke: #000000; stroke-width: 0.8"/>
      </g>
     </g>
     <g id="text_7">
      <!-- 150 -->
      <g transform="translate(316.195193 125.241948) scale(0.1 -0.1)">
       <use xlink:href="#DejaVuSans-31"/>
       <use xlink:href="#DejaVuSans-35" x="63.623047"/>
       <use xlink:href="#DejaVuSans-30" x="127.246094"/>
      </g>
     </g>
    </g>
    <g id="xtick_8">
     <g id="line2d_15">
      <path d="M 372.597476 110.64351 
L 372.597476 6.799459 
" clip-path="url(#p2f81c42c25)" style="fill: none; stroke: #b0b0b0; stroke-width: 0.8; stroke-linecap: square"/>
     </g>
     <g id="line2d_16">
      <g>
       <use xlink:href="#mf92aa1d103" x="372.597476" y="110.64351" style="stroke: #000000; stroke-width: 0.8"/>
      </g>
     </g>
     <g id="text_8">
      <!-- 175 -->
      <g transform="translate(363.053726 125.241948) scale(0.1 -0.1)">
       <use xlink:href="#DejaVuSans-31"/>
       <use xlink:href="#DejaVuSans-37" x="63.623047"/>
       <use xlink:href="#DejaVuSans-35" x="127.246094"/>
      </g>
     </g>
    </g>
    <g id="xtick_9">
     <g id="line2d_17">
      <path d="M 419.45601 110.64351 
L 419.45601 6.799459 
" clip-path="url(#p2f81c42c25)" style="fill: none; stroke: #b0b0b0; stroke-width: 0.8; stroke-linecap: square"/>
     </g>
     <g id="line2d_18">
      <g>
       <use xlink:href="#mf92aa1d103" x="419.45601" y="110.64351" style="stroke: #000000; stroke-width: 0.8"/>
      </g>
     </g>
     <g id="text_9">
      <!-- 200 -->
      <g transform="translate(409.91226 125.241948) scale(0.1 -0.1)">
       <use xlink:href="#DejaVuSans-32"/>
       <use xlink:href="#DejaVuSans-30" x="63.623047"/>
       <use xlink:href="#DejaVuSans-30" x="127.246094"/>
      </g>
     </g>
    </g>
    <g id="text_10">
     <!-- $t/(H/U_f)$ -->
     <g transform="translate(213.971875 138.920073) scale(0.1 -0.1)">
      <defs>
       <path id="DejaVuSans-Oblique-74" d="M 2706 3500 
L 2619 3053 
L 1472 3053 
L 1100 1153 
Q 1081 1047 1072 975 
Q 1063 903 1063 863 
Q 1063 663 1183 572 
Q 1303 481 1569 481 
L 2150 481 
L 2053 0 
L 1503 0 
Q 991 0 739 200 
Q 488 400 488 806 
Q 488 878 497 964 
Q 506 1050 525 1153 
L 897 3053 
L 409 3053 
L 500 3500 
L 978 3500 
L 1172 4494 
L 1747 4494 
L 1556 3500 
L 2706 3500 
z
" transform="scale(0.015625)"/>
       <path id="DejaVuSans-2f" d="M 1625 4666 
L 2156 4666 
L 531 -594 
L 0 -594 
L 1625 4666 
z
" transform="scale(0.015625)"/>
       <path id="DejaVuSans-28" d="M 1984 4856 
Q 1566 4138 1362 3434 
Q 1159 2731 1159 2009 
Q 1159 1288 1364 580 
Q 1569 -128 1984 -844 
L 1484 -844 
Q 1016 -109 783 600 
Q 550 1309 550 2009 
Q 550 2706 781 3412 
Q 1013 4119 1484 4856 
L 1984 4856 
z
" transform="scale(0.015625)"/>
       <path id="DejaVuSans-Oblique-48" d="M 1081 4666 
L 1716 4666 
L 1344 2753 
L 3634 2753 
L 4006 4666 
L 4641 4666 
L 3731 0 
L 3097 0 
L 3531 2222 
L 1241 2222 
L 806 0 
L 172 0 
L 1081 4666 
z
" transform="scale(0.015625)"/>
       <path id="DejaVuSans-Oblique-55" d="M 991 4666 
L 1625 4666 
L 1075 1831 
Q 1041 1641 1027 1517 
Q 1013 1394 1013 1300 
Q 1013 869 1253 645 
Q 1494 422 1959 422 
Q 2563 422 2898 753 
Q 3234 1084 3378 1831 
L 3928 4666 
L 4563 4666 
L 4000 1753 
Q 3816 809 3300 359 
Q 2784 -91 1888 -91 
Q 1188 -91 780 261 
Q 372 613 372 1216 
Q 372 1325 387 1461 
Q 403 1597 434 1753 
L 991 4666 
z
" transform="scale(0.015625)"/>
       <path id="DejaVuSans-Oblique-66" d="M 3059 4863 
L 2969 4384 
L 2419 4384 
Q 2106 4384 1964 4261 
Q 1822 4138 1753 3809 
L 1691 3500 
L 2638 3500 
L 2553 3053 
L 1606 3053 
L 1013 0 
L 434 0 
L 1031 3053 
L 481 3053 
L 563 3500 
L 1113 3500 
L 1159 3744 
Q 1278 4363 1576 4613 
Q 1875 4863 2516 4863 
L 3059 4863 
z
" transform="scale(0.015625)"/>
       <path id="DejaVuSans-29" d="M 513 4856 
L 1013 4856 
Q 1481 4119 1714 3412 
Q 1947 2706 1947 2009 
Q 1947 1309 1714 600 
Q 1481 -109 1013 -844 
L 513 -844 
Q 928 -128 1133 580 
Q 1338 1288 1338 2009 
Q 1338 2731 1133 3434 
Q 928 4138 513 4856 
z
" transform="scale(0.015625)"/>
      </defs>
      <use xlink:href="#DejaVuSans-Oblique-74" transform="translate(0 0.125)"/>
      <use xlink:href="#DejaVuSans-2f" transform="translate(39.208984 0.125)"/>
      <use xlink:href="#DejaVuSans-28" transform="translate(72.900391 0.125)"/>
      <use xlink:href="#DejaVuSans-Oblique-48" transform="translate(111.914062 0.125)"/>
      <use xlink:href="#DejaVuSans-2f" transform="translate(187.109375 0.125)"/>
      <use xlink:href="#DejaVuSans-Oblique-55" transform="translate(220.800781 0.125)"/>
      <use xlink:href="#DejaVuSans-Oblique-66" transform="translate(293.994141 -16.28125) scale(0.7)"/>
      <use xlink:href="#DejaVuSans-29" transform="translate(321.37207 0.125)"/>
     </g>
    </g>
   </g>
   <g id="matplotlib.axis_2">
    <g id="ytick_1">
     <g id="line2d_19">
      <path d="M 44.58774 110.64351 
L 419.45601 110.64351 
" clip-path="url(#p2f81c42c25)" style="fill: none; stroke: #b0b0b0; stroke-width: 0.8; stroke-linecap: square"/>
     </g>
     <g id="line2d_20">
      <defs>
       <path id="m4296b0932c" d="M 0 0 
L -3.5 0 
" style="stroke: #000000; stroke-width: 0.8"/>
      </defs>
      <g>
       <use xlink:href="#m4296b0932c" x="44.58774" y="110.64351" style="stroke: #000000; stroke-width: 0.8"/>
      </g>
     </g>
     <g id="text_11">
      <!-- 0 -->
      <g transform="translate(31.22524 114.442729) scale(0.1 -0.1)">
       <use xlink:href="#DejaVuSans-30"/>
      </g>
     </g>
    </g>
    <g id="ytick_2">
     <g id="line2d_21">
      <path d="M 44.58774 84.682497 
L 419.45601 84.682497 
" clip-path="url(#p2f81c42c25)" style="fill: none; stroke: #b0b0b0; stroke-width: 0.8; stroke-linecap: square"/>
     </g>
     <g id="line2d_22">
      <g>
       <use xlink:href="#m4296b0932c" x="44.58774" y="84.682497" style="stroke: #000000; stroke-width: 0.8"/>
      </g>
     </g>
     <g id="text_12">
      <!-- 200 -->
      <g transform="translate(18.50024 88.481716) scale(0.1 -0.1)">
       <use xlink:href="#DejaVuSans-32"/>
       <use xlink:href="#DejaVuSans-30" x="63.623047"/>
       <use xlink:href="#DejaVuSans-30" x="127.246094"/>
      </g>
     </g>
    </g>
    <g id="ytick_3">
     <g id="line2d_23">
      <path d="M 44.58774 58.721484 
L 419.45601 58.721484 
" clip-path="url(#p2f81c42c25)" style="fill: none; stroke: #b0b0b0; stroke-width: 0.8; stroke-linecap: square"/>
     </g>
     <g id="line2d_24">
      <g>
       <use xlink:href="#m4296b0932c" x="44.58774" y="58.721484" style="stroke: #000000; stroke-width: 0.8"/>
      </g>
     </g>
     <g id="text_13">
      <!-- 400 -->
      <g transform="translate(18.50024 62.520703) scale(0.1 -0.1)">
       <defs>
        <path id="DejaVuSans-34" d="M 2419 4116 
L 825 1625 
L 2419 1625 
L 2419 4116 
z
M 2253 4666 
L 3047 4666 
L 3047 1625 
L 3713 1625 
L 3713 1100 
L 3047 1100 
L 3047 0 
L 2419 0 
L 2419 1100 
L 313 1100 
L 313 1709 
L 2253 4666 
z
" transform="scale(0.015625)"/>
       </defs>
       <use xlink:href="#DejaVuSans-34"/>
       <use xlink:href="#DejaVuSans-30" x="63.623047"/>
       <use xlink:href="#DejaVuSans-30" x="127.246094"/>
      </g>
     </g>
    </g>
    <g id="ytick_4">
     <g id="line2d_25">
      <path d="M 44.58774 32.760472 
L 419.45601 32.760472 
" clip-path="url(#p2f81c42c25)" style="fill: none; stroke: #b0b0b0; stroke-width: 0.8; stroke-linecap: square"/>
     </g>
     <g id="line2d_26">
      <g>
       <use xlink:href="#m4296b0932c" x="44.58774" y="32.760472" style="stroke: #000000; stroke-width: 0.8"/>
      </g>
     </g>
     <g id="text_14">
      <!-- 600 -->
      <g transform="translate(18.50024 36.55969) scale(0.1 -0.1)">
       <defs>
        <path id="DejaVuSans-36" d="M 2113 2584 
Q 1688 2584 1439 2293 
Q 1191 2003 1191 1497 
Q 1191 994 1439 701 
Q 1688 409 2113 409 
Q 2538 409 2786 701 
Q 3034 994 3034 1497 
Q 3034 2003 2786 2293 
Q 2538 2584 2113 2584 
z
M 3366 4563 
L 3366 3988 
Q 3128 4100 2886 4159 
Q 2644 4219 2406 4219 
Q 1781 4219 1451 3797 
Q 1122 3375 1075 2522 
Q 1259 2794 1537 2939 
Q 1816 3084 2150 3084 
Q 2853 3084 3261 2657 
Q 3669 2231 3669 1497 
Q 3669 778 3244 343 
Q 2819 -91 2113 -91 
Q 1303 -91 875 529 
Q 447 1150 447 2328 
Q 447 3434 972 4092 
Q 1497 4750 2381 4750 
Q 2619 4750 2861 4703 
Q 3103 4656 3366 4563 
z
" transform="scale(0.015625)"/>
       </defs>
       <use xlink:href="#DejaVuSans-36"/>
       <use xlink:href="#DejaVuSans-30" x="63.623047"/>
       <use xlink:href="#DejaVuSans-30" x="127.246094"/>
      </g>
     </g>
    </g>
    <g id="ytick_5">
     <g id="line2d_27">
      <path d="M 44.58774 6.799459 
L 419.45601 6.799459 
" clip-path="url(#p2f81c42c25)" style="fill: none; stroke: #b0b0b0; stroke-width: 0.8; stroke-linecap: square"/>
     </g>
     <g id="line2d_28">
      <g>
       <use xlink:href="#m4296b0932c" x="44.58774" y="6.799459" style="stroke: #000000; stroke-width: 0.8"/>
      </g>
     </g>
     <g id="text_15">
      <!-- 800 -->
      <g transform="translate(18.50024 10.598678) scale(0.1 -0.1)">
       <defs>
        <path id="DejaVuSans-38" d="M 2034 2216 
Q 1584 2216 1326 1975 
Q 1069 1734 1069 1313 
Q 1069 891 1326 650 
Q 1584 409 2034 409 
Q 2484 409 2743 651 
Q 3003 894 3003 1313 
Q 3003 1734 2745 1975 
Q 2488 2216 2034 2216 
z
M 1403 2484 
Q 997 2584 770 2862 
Q 544 3141 544 3541 
Q 544 4100 942 4425 
Q 1341 4750 2034 4750 
Q 2731 4750 3128 4425 
Q 3525 4100 3525 3541 
Q 3525 3141 3298 2862 
Q 3072 2584 2669 2484 
Q 3125 2378 3379 2068 
Q 3634 1759 3634 1313 
Q 3634 634 3220 271 
Q 2806 -91 2034 -91 
Q 1263 -91 848 271 
Q 434 634 434 1313 
Q 434 1759 690 2068 
Q 947 2378 1403 2484 
z
M 1172 3481 
Q 1172 3119 1398 2916 
Q 1625 2713 2034 2713 
Q 2441 2713 2670 2916 
Q 2900 3119 2900 3481 
Q 2900 3844 2670 4047 
Q 2441 4250 2034 4250 
Q 1625 4250 1398 4047 
Q 1172 3844 1172 3481 
z
" transform="scale(0.015625)"/>
       </defs>
       <use xlink:href="#DejaVuSans-38"/>
       <use xlink:href="#DejaVuSans-30" x="63.623047"/>
       <use xlink:href="#DejaVuSans-30" x="127.246094"/>
      </g>
     </g>
    </g>
    <g id="text_16">
     <!-- $Re = \sqrt{\mathcal{K}} H / \nu$ -->
     <g transform="translate(12.420552 87.821484) rotate(-90) scale(0.1 -0.1)">
      <defs>
       <path id="DejaVuSans-Oblique-52" d="M 1613 4147 
L 1294 2491 
L 2106 2491 
Q 2584 2491 2879 2755 
Q 3175 3019 3175 3444 
Q 3175 3784 2976 3965 
Q 2778 4147 2406 4147 
L 1613 4147 
z
M 2772 2241 
Q 2972 2194 3105 2009 
Q 3238 1825 3413 1275 
L 3809 0 
L 3144 0 
L 2778 1197 
Q 2638 1659 2453 1815 
Q 2269 1972 1888 1972 
L 1191 1972 
L 806 0 
L 172 0 
L 1081 4666 
L 2503 4666 
Q 3150 4666 3495 4373 
Q 3841 4081 3841 3531 
Q 3841 3044 3547 2687 
Q 3253 2331 2772 2241 
z
" transform="scale(0.015625)"/>
       <path id="DejaVuSans-Oblique-65" d="M 3078 2063 
Q 3088 2113 3092 2166 
Q 3097 2219 3097 2272 
Q 3097 2653 2873 2875 
Q 2650 3097 2266 3097 
Q 1838 3097 1509 2826 
Q 1181 2556 1013 2059 
L 3078 2063 
z
M 3578 1613 
L 903 1613 
Q 884 1494 878 1425 
Q 872 1356 872 1306 
Q 872 872 1139 634 
Q 1406 397 1894 397 
Q 2269 397 2603 481 
Q 2938 566 3225 728 
L 3116 159 
Q 2806 34 2476 -28 
Q 2147 -91 1806 -91 
Q 1078 -91 686 257 
Q 294 606 294 1247 
Q 294 1794 489 2264 
Q 684 2734 1063 3103 
Q 1306 3334 1642 3459 
Q 1978 3584 2356 3584 
Q 2950 3584 3301 3228 
Q 3653 2872 3653 2272 
Q 3653 2128 3634 1964 
Q 3616 1800 3578 1613 
z
" transform="scale(0.015625)"/>
       <path id="DejaVuSans-3d" d="M 678 2906 
L 4684 2906 
L 4684 2381 
L 678 2381 
L 678 2906 
z
M 678 1631 
L 4684 1631 
L 4684 1100 
L 678 1100 
L 678 1631 
z
" transform="scale(0.015625)"/>
       <path id="STIXSizeOneSym-Regular-221a" d="M 6970 9933 
L 3373 -1888 
L 3104 -1888 
L 1626 2918 
Q 1555 3149 1465 3251 
Q 1376 3354 1229 3354 
Q 1011 3354 794 3181 
L 717 3309 
L 1766 4115 
L 1926 4115 
L 3379 -602 
L 3405 -602 
L 6605 9933 
L 6970 9933 
z
" transform="scale(0.015625)"/>
       <path id="STIXNonUnicode-Italic-e237" d="M 1971 2874 
L 2010 2854 
Q 2528 3430 3142 3859 
Q 3757 4288 4275 4288 
Q 4621 4288 4816 4105 
Q 5011 3923 5011 3622 
Q 5011 3354 4864 3158 
Q 4717 2963 4486 2963 
Q 4346 2963 4256 3059 
Q 4166 3155 4166 3290 
Q 4166 3411 4220 3481 
Q 4275 3552 4342 3574 
Q 4410 3597 4464 3648 
Q 4518 3699 4518 3782 
Q 4518 3878 4441 3955 
Q 4365 4032 4230 4032 
Q 3789 4032 3232 3635 
Q 2675 3238 2118 2566 
Q 2336 1587 2835 960 
Q 3334 333 3904 333 
Q 4122 333 4371 464 
Q 4621 595 4768 806 
L 4896 704 
Q 4723 474 4569 326 
Q 4416 179 4128 48 
Q 3840 -83 3488 -83 
Q 2886 -83 2371 477 
Q 1856 1037 1690 1709 
L 1434 813 
Q 1280 262 1049 131 
Q 819 0 192 0 
L 237 154 
Q 429 154 557 374 
Q 685 595 858 1197 
L 1517 3514 
Q 1542 3590 1542 3661 
Q 1542 3853 1242 3853 
Q 1171 3853 1126 3846 
L 1158 4006 
Q 1882 4083 2355 4237 
L 1971 2874 
z
" transform="scale(0.015625)"/>
       <path id="DejaVuSans-Oblique-3bd" d="M 959 0 
L 572 3500 
L 1191 3500 
L 1522 563 
Q 1972 950 2391 1488 
Q 2706 1891 2788 2241 
Q 2825 2406 2809 2719 
Q 2794 3091 2544 3500 
L 3125 3500 
L 3125 3500 
Q 3288 3222 3353 2834 
Q 3416 2478 3369 2234 
Q 3250 1622 2719 1075 
Q 2025 363 1572 0 
L 959 0 
z
" transform="scale(0.015625)"/>
      </defs>
      <use xlink:href="#DejaVuSans-Oblique-52" transform="translate(0 0.765625)"/>
      <use xlink:href="#DejaVuSans-Oblique-65" transform="translate(69.482422 0.765625)"/>
      <use xlink:href="#DejaVuSans-3d" transform="translate(150.488281 0.765625)"/>
      <use xlink:href="#STIXSizeOneSym-Regular-221a" transform="translate(253.759766 15.359375) scale(0.538956)"/>
      <use xlink:href="#STIXNonUnicode-Italic-e237" transform="translate(323.222137 0.75)"/>
      <use xlink:href="#DejaVuSans-Oblique-48" transform="translate(416.622131 0.765625)"/>
      <use xlink:href="#DejaVuSans-2f" transform="translate(491.817444 0.765625)"/>
      <use xlink:href="#DejaVuSans-Oblique-3bd" transform="translate(525.50885 0.765625)"/>
      <path d="M 310.722137 92.5 
L 310.722137 98.75 
L 416.622131 98.75 
L 416.622131 92.5 
L 310.722137 92.5 
z
"/>
     </g>
    </g>
   </g>
   <g id="line2d_29">
    <path d="M 44.58774 110.527875 
L 48.711291 110.15112 
L 49.835896 109.82108 
L 50.960501 109.257424 
L 51.710237 108.676674 
L 52.459974 107.850699 
L 53.20971 106.676603 
L 53.959447 105.008378 
L 54.709183 102.639316 
L 55.45892 99.27799 
L 56.208656 94.516889 
L 56.958393 87.79558 
L 57.708129 78.369216 
L 58.457866 65.317333 
L 59.207603 47.679726 
L 59.957339 25.413478 
L 60.680194 -1 
M 65.365635 -1 
L 65.955231 19.958559 
L 66.704968 39.608023 
L 67.079836 45.089628 
L 67.454704 47.574954 
L 67.829573 47.51957 
L 68.204441 45.863862 
L 69.329046 38.943614 
L 69.703914 37.617433 
L 70.078782 37.202494 
L 70.453651 37.516878 
L 71.578255 39.294593 
L 71.953124 40.3733 
L 73.827465 47.885178 
L 74.577202 51.176019 
L 75.326938 55.628853 
L 76.451543 64.296268 
L 77.951016 76.226728 
L 79.075621 83.545261 
L 79.825357 87.405771 
L 80.575094 90.260738 
L 81.32483 92.109487 
L 81.699699 92.625905 
L 82.074567 92.929909 
L 82.449435 93.049014 
L 82.824304 93.018663 
L 83.57404 92.652399 
L 85.82325 91.013801 
L 86.572986 90.789884 
L 87.322723 90.80419 
L 88.072459 91.02807 
L 89.197064 91.69347 
L 90.321669 92.700493 
L 92.19601 94.76572 
L 93.695483 96.385342 
L 94.820088 97.254031 
L 95.569825 97.600522 
L 96.319561 97.763242 
L 97.444166 97.705844 
L 98.943639 97.265606 
L 101.567717 96.42327 
L 103.06719 96.167335 
L 104.566663 96.120855 
L 106.066136 96.302619 
L 107.940478 96.793652 
L 110.189687 97.399626 
L 111.68916 97.603283 
L 113.188633 97.606071 
L 115.062975 97.373566 
L 121.435735 96.15617 
L 126.309023 94.751153 
L 130.807442 93.350505 
L 132.681783 92.459922 
L 137.555071 89.713143 
L 142.428358 86.900087 
L 145.802173 84.712582 
L 147.301646 83.570935 
L 149.925724 81.24623 
L 153.674407 77.886559 
L 154.799011 77.238681 
L 155.548748 77.033276 
L 156.298484 77.024883 
L 157.048221 77.202909 
L 158.172826 77.78879 
L 160.422035 79.233944 
L 161.921509 79.871925 
L 164.545586 80.830062 
L 165.670191 81.619565 
L 167.544533 82.999993 
L 169.418874 84.115444 
L 170.543479 84.525598 
L 171.293215 84.601265 
L 172.41782 84.451201 
L 173.917293 83.946978 
L 175.791635 83.061122 
L 179.915185 80.838449 
L 181.03979 80.547795 
L 182.164395 80.452297 
L 184.038736 80.384579 
L 185.913078 80.028062 
L 190.036629 79.239436 
L 192.285838 78.964746 
L 193.410443 79.01202 
L 196.409389 79.504003 
L 199.033467 80.148902 
L 200.907809 80.568601 
L 203.531886 81.188801 
L 205.03136 81.479375 
L 211.029252 82.110979 
L 213.278462 82.821869 
L 215.527671 83.617227 
L 216.652276 83.781972 
L 217.776881 83.699577 
L 219.276354 83.269823 
L 221.525563 82.295632 
L 223.774773 81.395066 
L 227.148587 80.323478 
L 229.022929 80.009484 
L 232.021875 79.690976 
L 234.645953 79.116877 
L 235.770558 79.181414 
L 239.144372 79.646505 
L 241.76845 79.800349 
L 245.142264 80.075093 
L 247.766342 80.268271 
L 250.39042 80.537694 
L 251.515025 81.023111 
L 254.513971 82.663674 
L 256.763181 83.503327 
L 259.01239 84.149929 
L 260.511864 84.389707 
L 262.761073 84.409539 
L 269.508702 84.319248 
L 271.383043 83.977141 
L 273.632253 83.529414 
L 275.131726 83.455817 
L 277.006067 83.571827 
L 278.50554 83.915306 
L 282.629091 85.021945 
L 285.628038 85.139005 
L 287.127511 85.016293 
L 288.252116 84.713373 
L 289.37672 84.200089 
L 293.500271 81.876844 
L 294.624876 81.682105 
L 295.749481 81.751341 
L 297.623822 82.183018 
L 301.372505 83.124656 
L 302.49711 83.178611 
L 303.621715 82.978074 
L 305.121188 82.470709 
L 309.244739 80.895893 
L 310.744212 80.603183 
L 311.868817 80.558318 
L 312.993421 80.705399 
L 316.367236 81.404764 
L 319.366182 81.462311 
L 321.240523 81.370978 
L 324.239469 81.058694 
L 325.364074 81.173018 
L 332.86144 82.881812 
L 334.360913 83.169642 
L 335.485518 83.165113 
L 336.610122 82.966747 
L 338.109595 82.452595 
L 339.609068 81.662407 
L 341.48341 80.560129 
L 342.608015 80.178454 
L 343.357751 80.123819 
L 344.107488 80.236911 
L 345.232093 80.677145 
L 346.731566 81.621165 
L 347.85617 82.338766 
L 348.980775 82.764336 
L 350.10538 82.913767 
L 351.229985 82.832182 
L 356.478141 81.95601 
L 357.977614 81.97739 
L 359.477087 82.187376 
L 361.351428 82.459764 
L 368.473925 82.765641 
L 369.59853 82.640458 
L 370.723135 82.298212 
L 371.84774 81.72686 
L 373.722081 80.687581 
L 375.221554 80.144559 
L 379.719973 78.724475 
L 382.71892 77.194005 
L 385.342997 76.022902 
L 387.217339 75.405058 
L 389.841417 74.79056 
L 390.966021 74.666293 
L 392.090626 74.775619 
L 393.590099 75.226633 
L 395.464441 76.097293 
L 396.963914 77.021385 
L 399.96286 79.045525 
L 402.586938 80.214368 
L 404.836147 81.08824 
L 406.710489 81.428306 
L 407.835094 81.414694 
L 408.959698 81.167487 
L 416.082196 79.001394 
L 417.2068 78.984727 
L 418.706273 79.194855 
L 419.45601 79.369922 
L 419.45601 79.369922 
" clip-path="url(#p2f81c42c25)" style="fill: none; stroke: #1f77b4; stroke-width: 1.5; stroke-linecap: square"/>
   </g>
   <g id="line2d_30">
    <path d="M 44.58774 110.515997 
L 45.712345 110.551661 
L 48.711291 110.38372 
L 50.585632 110.040451 
L 51.710237 109.63031 
L 52.834842 108.93512 
L 53.584578 108.220933 
L 54.334315 107.206889 
L 55.084052 105.768066 
L 55.833788 103.729135 
L 56.583525 100.847025 
L 57.333261 96.792892 
L 58.082998 91.143216 
L 58.832734 83.406437 
L 59.582471 73.1434 
L 60.332207 60.375148 
L 62.206549 26.918052 
L 62.581417 22.790676 
L 62.956285 19.898638 
L 63.331154 17.877833 
L 63.706022 16.815161 
L 64.08089 17.313314 
L 64.455758 20.396165 
L 65.205495 33.367312 
L 66.3301 55.383407 
L 67.079836 65.731233 
L 67.454704 68.701183 
L 67.829573 69.743432 
L 68.204441 69.022996 
L 68.954178 64.998149 
L 69.703914 60.022574 
L 70.828519 51.866843 
L 71.203387 50.448764 
L 71.578255 49.728051 
L 71.953124 49.440862 
L 72.327992 49.792505 
L 73.077729 51.77402 
L 73.827465 54.67742 
L 75.326938 60.753161 
L 77.201279 68.013354 
L 79.825357 79.385665 
L 80.949962 83.012591 
L 81.699699 84.923795 
L 82.449435 86.396587 
L 83.199172 87.459212 
L 83.948908 88.189338 
L 84.698645 88.655755 
L 85.82325 88.990374 
L 88.072459 89.355225 
L 89.197064 89.883682 
L 90.696537 90.967311 
L 94.44522 93.966813 
L 96.319561 95.126286 
L 98.568771 96.263249 
L 100.817981 97.114647 
L 104.191795 98.07034 
L 107.565609 98.823769 
L 111.68916 99.450615 
L 114.688106 99.671768 
L 123.310077 99.88807 
L 125.184418 99.613673 
L 135.305861 97.446562 
L 137.180203 96.722594 
L 141.678622 94.641627 
L 144.3027 93.811062 
L 146.551909 92.990062 
L 154.799011 89.681811 
L 156.298484 88.802533 
L 158.922562 87.079102 
L 159.672299 86.815359 
L 160.796904 86.712333 
L 161.921509 86.839794 
L 167.169664 88.121541 
L 169.044006 88.678541 
L 174.292161 89.993406 
L 176.916239 90.230208 
L 178.040844 90.16166 
L 179.540317 89.822113 
L 181.789527 89.277865 
L 183.289 89.124599 
L 186.662814 89.113576 
L 188.912024 88.679377 
L 191.536102 88.006672 
L 193.785311 87.19715 
L 195.284785 86.729837 
L 197.908862 86.233846 
L 199.408336 86.02462 
L 200.907809 86.084308 
L 202.407282 86.331583 
L 203.906755 86.859451 
L 205.781096 87.84685 
L 207.280569 88.490652 
L 208.780042 88.844063 
L 209.904647 88.894664 
L 211.40412 88.724867 
L 214.777935 88.242479 
L 216.652276 88.212151 
L 218.901486 88.471962 
L 221.525563 88.729618 
L 223.399905 88.679556 
L 225.649114 88.395483 
L 228.273192 87.87584 
L 232.021875 86.662333 
L 233.896216 86.141804 
L 236.895163 84.981327 
L 238.019767 84.957185 
L 239.51924 85.196646 
L 241.76845 85.787938 
L 244.392528 86.821333 
L 245.892001 87.618587 
L 248.141211 88.747186 
L 249.640684 89.278814 
L 250.39042 89.340827 
L 251.515025 89.153816 
L 256.763181 87.852583 
L 258.637522 87.778407 
L 260.136995 87.900719 
L 262.761073 88.435429 
L 268.384097 89.46123 
L 272.13278 89.646454 
L 274.007121 89.442544 
L 276.631199 88.899352 
L 280.379882 87.844864 
L 282.254223 87.725235 
L 286.377774 87.809227 
L 290.126457 88.188722 
L 291.251062 88.100235 
L 292.375666 87.788092 
L 295.749481 86.590208 
L 296.874086 86.522064 
L 298.373559 86.69586 
L 300.2479 86.910297 
L 302.122241 87.084494 
L 304.371451 87.691982 
L 307.370397 88.493021 
L 308.495002 88.481494 
L 309.619607 88.242959 
L 313.743158 87.0209 
L 314.867763 86.946574 
L 318.991314 86.988897 
L 320.490787 86.946394 
L 325.738943 87.237339 
L 328.737889 88.231715 
L 329.862493 88.220051 
L 330.987098 87.991761 
L 333.236308 87.391953 
L 334.360913 87.368829 
L 336.610122 87.655913 
L 339.983937 88.0333 
L 341.48341 88.062836 
L 342.608015 87.923796 
L 344.107488 87.510964 
L 345.981829 87.010186 
L 347.106434 86.911873 
L 347.85617 87.003261 
L 348.980775 87.400329 
L 353.854063 89.529627 
L 356.853009 90.200838 
L 358.352482 90.272406 
L 359.851955 90.310537 
L 361.351428 90.655753 
L 362.476033 90.888707 
L 364.350374 90.962544 
L 366.974452 90.993235 
L 370.348267 90.821409 
L 372.972345 90.917324 
L 374.096949 90.569385 
L 375.971291 89.872795 
L 377.470764 89.665566 
L 379.719973 89.465753 
L 380.844578 89.155774 
L 386.092734 87.223316 
L 387.592207 86.908401 
L 389.466548 86.755083 
L 391.715758 86.631836 
L 393.215231 86.337532 
L 395.839309 85.681938 
L 397.71365 85.477859 
L 398.838255 85.558122 
L 399.96286 85.855125 
L 402.961806 86.899536 
L 405.211016 87.446034 
L 407.460225 88.284165 
L 409.334567 88.88989 
L 410.459172 88.95459 
L 411.583776 88.708968 
L 414.207854 87.890193 
L 419.081142 86.835473 
L 419.45601 86.840522 
L 419.45601 86.840522 
" clip-path="url(#p2f81c42c25)" style="fill: none; stroke: #ff7f0e; stroke-width: 1.5; stroke-linecap: square"/>
   </g>
   <g id="line2d_31">
    <path d="M 44.58774 110.471373 
L 46.462081 110.418445 
L 48.336423 110.175539 
L 49.835896 109.716188 
L 50.960501 109.083189 
L 51.710237 108.431041 
L 52.459974 107.50361 
L 53.20971 106.185426 
L 53.959447 104.312655 
L 54.709183 101.653371 
L 55.45892 97.880648 
L 56.208656 92.537477 
L 56.958393 84.995613 
L 57.708129 74.420515 
L 58.457866 59.780998 
L 59.207603 39.999139 
L 59.957339 15.019364 
L 60.351235 -1 
M 65.910011 -1 
L 66.3301 13.738442 
L 66.704968 24.092518 
L 67.079836 31.180159 
L 67.454704 34.901834 
L 67.829573 35.4275 
L 68.204441 33.645653 
L 70.078782 19.702018 
L 70.453651 18.229035 
L 70.828519 17.283004 
L 71.203387 16.80639 
L 71.578255 16.82794 
L 71.953124 17.457317 
L 72.327992 18.765204 
L 73.452597 24.462871 
L 74.577202 31.111932 
L 75.701806 39.276961 
L 79.450489 69.445891 
L 80.200226 73.684367 
L 80.949962 76.92382 
L 81.699699 79.240679 
L 82.449435 80.685546 
L 83.199172 81.434072 
L 83.948908 81.694597 
L 84.698645 81.654413 
L 86.572986 81.33108 
L 87.322723 81.406447 
L 88.072459 81.696031 
L 88.822196 82.201792 
L 89.946801 83.338153 
L 91.446274 85.289892 
L 93.695483 88.294639 
L 94.820088 89.451673 
L 95.944693 90.27354 
L 97.069298 90.788221 
L 98.193903 91.048268 
L 99.693376 91.147819 
L 103.06719 91.272242 
L 104.941531 91.575329 
L 106.815873 92.099215 
L 110.564556 93.260613 
L 112.064029 93.49972 
L 113.563502 93.544698 
L 115.437843 93.388925 
L 122.56034 92.380897 
L 124.80955 91.703008 
L 130.432574 89.59825 
L 132.681783 88.570197 
L 134.930993 87.239432 
L 137.555071 85.406275 
L 143.178095 81.351206 
L 145.802173 79.435878 
L 147.676514 77.827853 
L 151.050329 74.552976 
L 153.674407 72.03671 
L 154.799011 71.20653 
L 155.923616 70.666326 
L 157.048221 70.416123 
L 158.172826 70.45752 
L 159.297431 70.749431 
L 161.921509 71.739688 
L 164.920455 73.044252 
L 166.045059 73.87703 
L 167.919401 75.334506 
L 169.793742 76.465739 
L 170.918347 76.892706 
L 172.042952 77.062088 
L 173.167557 77.00165 
L 174.66703 76.662639 
L 176.541371 75.972934 
L 178.415712 75.001474 
L 180.290054 74.070074 
L 181.414659 73.73217 
L 182.914132 73.575137 
L 185.163341 73.395171 
L 187.037683 72.990686 
L 193.785311 71.310232 
L 195.659653 71.219017 
L 198.283731 71.376297 
L 200.53294 71.738627 
L 202.407282 72.22704 
L 204.281623 73.02985 
L 206.155964 73.804489 
L 208.030306 74.289273 
L 210.279515 74.614059 
L 213.65333 75.119179 
L 216.277408 75.616433 
L 217.776881 75.651219 
L 219.276354 75.448846 
L 221.150695 74.936055 
L 231.647007 71.602775 
L 233.521348 70.941531 
L 235.395689 70.294709 
L 236.520294 70.179276 
L 238.019767 70.319116 
L 241.393582 70.926032 
L 244.767396 71.983864 
L 249.640684 73.610914 
L 251.889893 74.163849 
L 254.139103 74.76178 
L 265.760019 76.645102 
L 268.758965 76.907022 
L 270.258439 76.851658 
L 272.13278 76.568579 
L 275.131726 76.036998 
L 278.50554 75.761803 
L 280.005014 75.887314 
L 283.00396 76.288598 
L 287.502379 76.367413 
L 288.626984 76.181283 
L 289.751589 75.778767 
L 291.251062 74.97359 
L 293.87514 73.449334 
L 294.999744 73.106592 
L 296.124349 73.069314 
L 297.248954 73.269058 
L 301.747373 74.412177 
L 303.246846 74.557489 
L 305.121188 74.448699 
L 306.995529 74.142231 
L 308.86987 73.598686 
L 311.493948 72.760967 
L 312.618553 72.612856 
L 313.743158 72.659419 
L 317.491841 73.122744 
L 321.99026 72.977397 
L 324.989206 72.865967 
L 326.113811 73.218112 
L 327.988152 73.950608 
L 329.487625 74.277453 
L 331.361967 74.404547 
L 333.236308 74.507479 
L 335.860386 74.712039 
L 337.359859 74.559247 
L 338.859332 74.154095 
L 340.733673 73.362061 
L 342.233146 72.749958 
L 343.357751 72.485209 
L 344.482356 72.459606 
L 345.606961 72.691615 
L 346.731566 73.159265 
L 350.10538 74.801585 
L 351.604853 75.143177 
L 353.479194 75.264779 
L 356.853009 75.406999 
L 359.477087 75.650658 
L 363.22577 76.369024 
L 366.224716 76.564421 
L 368.473925 76.464595 
L 369.973398 76.25497 
L 371.472871 75.819459 
L 372.972345 75.092831 
L 375.596422 73.710696 
L 377.095895 73.204142 
L 379.345105 72.513635 
L 380.844578 71.698377 
L 384.593261 69.330019 
L 386.467602 68.458848 
L 388.341944 67.865756 
L 390.216285 67.504317 
L 391.715758 67.427102 
L 393.590099 67.626345 
L 395.089572 67.941094 
L 396.589046 68.500618 
L 398.088519 69.311836 
L 402.961806 72.177064 
L 405.585884 73.277938 
L 407.460225 73.867823 
L 408.58483 73.976161 
L 409.709435 73.847229 
L 411.208908 73.373792 
L 416.457064 71.342865 
L 417.956537 71.188831 
L 419.081142 71.267822 
L 419.45601 71.341862 
L 419.45601 71.341862 
" clip-path="url(#p2f81c42c25)" style="fill: none; stroke: #2ca02c; stroke-width: 1.5; stroke-linecap: square"/>
   </g>
   <g id="patch_3">
    <path d="M 44.58774 110.64351 
L 44.58774 6.799459 
" style="fill: none; stroke: #000000; stroke-width: 0.8; stroke-linejoin: miter; stroke-linecap: square"/>
   </g>
   <g id="patch_4">
    <path d="M 419.45601 110.64351 
L 419.45601 6.799459 
" style="fill: none; stroke: #000000; stroke-width: 0.8; stroke-linejoin: miter; stroke-linecap: square"/>
   </g>
   <g id="patch_5">
    <path d="M 44.58774 110.64351 
L 419.45601 110.64351 
" style="fill: none; stroke: #000000; stroke-width: 0.8; stroke-linejoin: miter; stroke-linecap: square"/>
   </g>
   <g id="patch_6">
    <path d="M 44.58774 6.799459 
L 419.45601 6.799459 
" style="fill: none; stroke: #000000; stroke-width: 0.8; stroke-linejoin: miter; stroke-linecap: square"/>
   </g>
   <g id="legend_1">
    <g id="patch_7">
     <path d="M 330.579448 58.833834 
L 412.45601 58.833834 
Q 414.45601 58.833834 414.45601 56.833834 
L 414.45601 13.799459 
Q 414.45601 11.799459 412.45601 11.799459 
L 330.579448 11.799459 
Q 328.579448 11.799459 328.579448 13.799459 
L 328.579448 56.833834 
Q 328.579448 58.833834 330.579448 58.833834 
z
" style="fill: #ffffff; opacity: 0.8; stroke: #cccccc; stroke-linejoin: miter"/>
    </g>
    <g id="line2d_32">
     <path d="M 332.579448 19.897896 
L 342.579448 19.897896 
L 352.579448 19.897896 
" style="fill: none; stroke: #1f77b4; stroke-width: 1.5; stroke-linecap: square"/>
    </g>
    <g id="text_17">
     <!-- vertical -->
     <g transform="translate(360.579448 23.397896) scale(0.1 -0.1)">
      <defs>
       <path id="DejaVuSans-76" d="M 191 3500 
L 800 3500 
L 1894 563 
L 2988 3500 
L 3597 3500 
L 2284 0 
L 1503 0 
L 191 3500 
z
" transform="scale(0.015625)"/>
       <path id="DejaVuSans-65" d="M 3597 1894 
L 3597 1613 
L 953 1613 
Q 991 1019 1311 708 
Q 1631 397 2203 397 
Q 2534 397 2845 478 
Q 3156 559 3463 722 
L 3463 178 
Q 3153 47 2828 -22 
Q 2503 -91 2169 -91 
Q 1331 -91 842 396 
Q 353 884 353 1716 
Q 353 2575 817 3079 
Q 1281 3584 2069 3584 
Q 2775 3584 3186 3129 
Q 3597 2675 3597 1894 
z
M 3022 2063 
Q 3016 2534 2758 2815 
Q 2500 3097 2075 3097 
Q 1594 3097 1305 2825 
Q 1016 2553 972 2059 
L 3022 2063 
z
" transform="scale(0.015625)"/>
       <path id="DejaVuSans-72" d="M 2631 2963 
Q 2534 3019 2420 3045 
Q 2306 3072 2169 3072 
Q 1681 3072 1420 2755 
Q 1159 2438 1159 1844 
L 1159 0 
L 581 0 
L 581 3500 
L 1159 3500 
L 1159 2956 
Q 1341 3275 1631 3429 
Q 1922 3584 2338 3584 
Q 2397 3584 2469 3576 
Q 2541 3569 2628 3553 
L 2631 2963 
z
" transform="scale(0.015625)"/>
       <path id="DejaVuSans-74" d="M 1172 4494 
L 1172 3500 
L 2356 3500 
L 2356 3053 
L 1172 3053 
L 1172 1153 
Q 1172 725 1289 603 
Q 1406 481 1766 481 
L 2356 481 
L 2356 0 
L 1766 0 
Q 1100 0 847 248 
Q 594 497 594 1153 
L 594 3053 
L 172 3053 
L 172 3500 
L 594 3500 
L 594 4494 
L 1172 4494 
z
" transform="scale(0.015625)"/>
       <path id="DejaVuSans-69" d="M 603 3500 
L 1178 3500 
L 1178 0 
L 603 0 
L 603 3500 
z
M 603 4863 
L 1178 4863 
L 1178 4134 
L 603 4134 
L 603 4863 
z
" transform="scale(0.015625)"/>
       <path id="DejaVuSans-63" d="M 3122 3366 
L 3122 2828 
Q 2878 2963 2633 3030 
Q 2388 3097 2138 3097 
Q 1578 3097 1268 2742 
Q 959 2388 959 1747 
Q 959 1106 1268 751 
Q 1578 397 2138 397 
Q 2388 397 2633 464 
Q 2878 531 3122 666 
L 3122 134 
Q 2881 22 2623 -34 
Q 2366 -91 2075 -91 
Q 1284 -91 818 406 
Q 353 903 353 1747 
Q 353 2603 823 3093 
Q 1294 3584 2113 3584 
Q 2378 3584 2631 3529 
Q 2884 3475 3122 3366 
z
" transform="scale(0.015625)"/>
       <path id="DejaVuSans-61" d="M 2194 1759 
Q 1497 1759 1228 1600 
Q 959 1441 959 1056 
Q 959 750 1161 570 
Q 1363 391 1709 391 
Q 2188 391 2477 730 
Q 2766 1069 2766 1631 
L 2766 1759 
L 2194 1759 
z
M 3341 1997 
L 3341 0 
L 2766 0 
L 2766 531 
Q 2569 213 2275 61 
Q 1981 -91 1556 -91 
Q 1019 -91 701 211 
Q 384 513 384 1019 
Q 384 1609 779 1909 
Q 1175 2209 1959 2209 
L 2766 2209 
L 2766 2266 
Q 2766 2663 2505 2880 
Q 2244 3097 1772 3097 
Q 1472 3097 1187 3025 
Q 903 2953 641 2809 
L 641 3341 
Q 956 3463 1253 3523 
Q 1550 3584 1831 3584 
Q 2591 3584 2966 3190 
Q 3341 2797 3341 1997 
z
" transform="scale(0.015625)"/>
       <path id="DejaVuSans-6c" d="M 603 4863 
L 1178 4863 
L 1178 0 
L 603 0 
L 603 4863 
z
" transform="scale(0.015625)"/>
      </defs>
      <use xlink:href="#DejaVuSans-76"/>
      <use xlink:href="#DejaVuSans-65" x="59.179688"/>
      <use xlink:href="#DejaVuSans-72" x="120.703125"/>
      <use xlink:href="#DejaVuSans-74" x="161.816406"/>
      <use xlink:href="#DejaVuSans-69" x="201.025391"/>
      <use xlink:href="#DejaVuSans-63" x="228.808594"/>
      <use xlink:href="#DejaVuSans-61" x="283.789062"/>
      <use xlink:href="#DejaVuSans-6c" x="345.068359"/>
     </g>
    </g>
    <g id="line2d_33">
     <path d="M 332.579448 34.576021 
L 342.579448 34.576021 
L 352.579448 34.576021 
" style="fill: none; stroke: #ff7f0e; stroke-width: 1.5; stroke-linecap: square"/>
    </g>
    <g id="text_18">
     <!-- horizontal -->
     <g transform="translate(360.579448 38.076021) scale(0.1 -0.1)">
      <defs>
       <path id="DejaVuSans-68" d="M 3513 2113 
L 3513 0 
L 2938 0 
L 2938 2094 
Q 2938 2591 2744 2837 
Q 2550 3084 2163 3084 
Q 1697 3084 1428 2787 
Q 1159 2491 1159 1978 
L 1159 0 
L 581 0 
L 581 4863 
L 1159 4863 
L 1159 2956 
Q 1366 3272 1645 3428 
Q 1925 3584 2291 3584 
Q 2894 3584 3203 3211 
Q 3513 2838 3513 2113 
z
" transform="scale(0.015625)"/>
       <path id="DejaVuSans-6f" d="M 1959 3097 
Q 1497 3097 1228 2736 
Q 959 2375 959 1747 
Q 959 1119 1226 758 
Q 1494 397 1959 397 
Q 2419 397 2687 759 
Q 2956 1122 2956 1747 
Q 2956 2369 2687 2733 
Q 2419 3097 1959 3097 
z
M 1959 3584 
Q 2709 3584 3137 3096 
Q 3566 2609 3566 1747 
Q 3566 888 3137 398 
Q 2709 -91 1959 -91 
Q 1206 -91 779 398 
Q 353 888 353 1747 
Q 353 2609 779 3096 
Q 1206 3584 1959 3584 
z
" transform="scale(0.015625)"/>
       <path id="DejaVuSans-7a" d="M 353 3500 
L 3084 3500 
L 3084 2975 
L 922 459 
L 3084 459 
L 3084 0 
L 275 0 
L 275 525 
L 2438 3041 
L 353 3041 
L 353 3500 
z
" transform="scale(0.015625)"/>
       <path id="DejaVuSans-6e" d="M 3513 2113 
L 3513 0 
L 2938 0 
L 2938 2094 
Q 2938 2591 2744 2837 
Q 2550 3084 2163 3084 
Q 1697 3084 1428 2787 
Q 1159 2491 1159 1978 
L 1159 0 
L 581 0 
L 581 3500 
L 1159 3500 
L 1159 2956 
Q 1366 3272 1645 3428 
Q 1925 3584 2291 3584 
Q 2894 3584 3203 3211 
Q 3513 2838 3513 2113 
z
" transform="scale(0.015625)"/>
      </defs>
      <use xlink:href="#DejaVuSans-68"/>
      <use xlink:href="#DejaVuSans-6f" x="63.378906"/>
      <use xlink:href="#DejaVuSans-72" x="124.560547"/>
      <use xlink:href="#DejaVuSans-69" x="165.673828"/>
      <use xlink:href="#DejaVuSans-7a" x="193.457031"/>
      <use xlink:href="#DejaVuSans-6f" x="245.947266"/>
      <use xlink:href="#DejaVuSans-6e" x="307.128906"/>
      <use xlink:href="#DejaVuSans-74" x="370.507812"/>
      <use xlink:href="#DejaVuSans-61" x="409.716797"/>
      <use xlink:href="#DejaVuSans-6c" x="470.996094"/>
     </g>
    </g>
    <g id="line2d_34">
     <path d="M 332.579448 49.254146 
L 342.579448 49.254146 
L 352.579448 49.254146 
" style="fill: none; stroke: #2ca02c; stroke-width: 1.5; stroke-linecap: square"/>
    </g>
    <g id="text_19">
     <!-- total -->
     <g transform="translate(360.579448 52.754146) scale(0.1 -0.1)">
      <use xlink:href="#DejaVuSans-74"/>
      <use xlink:href="#DejaVuSans-6f" x="39.208984"/>
      <use xlink:href="#DejaVuSans-74" x="100.390625"/>
      <use xlink:href="#DejaVuSans-61" x="139.599609"/>
      <use xlink:href="#DejaVuSans-6c" x="200.878906"/>
     </g>
    </g>
   </g>
  </g>
 </g>
 <defs>
  <clipPath id="p2f81c42c25">
   <rect x="44.58774" y="6.799459" width="374.86827" height="103.844051"/>
  </clipPath>
 </defs>
</svg>
